<svg xmlns="http://www.w3.org/2000/svg" xmlns:xlink="http://www.w3.org/1999/xlink" width="50" zoomAndPan="magnify" viewBox="0 0 37.5 37.499999" height="50" preserveAspectRatio="xMidYMid meet" version="1.0"><defs><clipPath id="8e28299aef"><path d="M 0.519531 0.519531 L 35.378906 0.519531 L 35.378906 35.378906 L 0.519531 35.378906 Z M 0.519531 0.519531 " clip-rule="nonzero"/></clipPath><clipPath id="8559ec4f65"><path d="M 17.949219 0.519531 C 8.320312 0.519531 0.519531 8.320312 0.519531 17.949219 C 0.519531 27.574219 8.320312 35.378906 17.949219 35.378906 C 27.574219 35.378906 35.378906 27.574219 35.378906 17.949219 C 35.378906 8.320312 27.574219 0.519531 17.949219 0.519531 Z M 17.949219 0.519531 " clip-rule="nonzero"/></clipPath><linearGradient x1="-0.0000000135881" gradientTransform="matrix(0.136173, 0, 0, 0.136173, 0.518093, 0.518094)" y1="128" x2="255.999983" gradientUnits="userSpaceOnUse" y2="128" id="09e65c0865"><stop stop-opacity="1" stop-color="rgb(65.098572%, 65.098572%, 65.098572%)" offset="0"/><stop stop-opacity="1" stop-color="rgb(65.234375%, 65.234375%, 65.234375%)" offset="0.0078125"/><stop stop-opacity="1" stop-color="rgb(65.507507%, 65.507507%, 65.507507%)" offset="0.015625"/><stop stop-opacity="1" stop-color="rgb(65.78064%, 65.78064%, 65.78064%)" offset="0.0234375"/><stop stop-opacity="1" stop-color="rgb(66.052246%, 66.052246%, 66.052246%)" offset="0.03125"/><stop stop-opacity="1" stop-color="rgb(66.325378%, 66.325378%, 66.325378%)" offset="0.0390625"/><stop stop-opacity="1" stop-color="rgb(66.598511%, 66.598511%, 66.598511%)" offset="0.046875"/><stop stop-opacity="1" stop-color="rgb(66.871643%, 66.871643%, 66.871643%)" offset="0.0546875"/><stop stop-opacity="1" stop-color="rgb(67.14325%, 67.14325%, 67.14325%)" offset="0.0625"/><stop stop-opacity="1" stop-color="rgb(67.416382%, 67.416382%, 67.416382%)" offset="0.0703125"/><stop stop-opacity="1" stop-color="rgb(67.689514%, 67.689514%, 67.689514%)" offset="0.078125"/><stop stop-opacity="1" stop-color="rgb(67.961121%, 67.961121%, 67.961121%)" offset="0.0859375"/><stop stop-opacity="1" stop-color="rgb(68.234253%, 68.234253%, 68.234253%)" offset="0.09375"/><stop stop-opacity="1" stop-color="rgb(68.507385%, 68.507385%, 68.507385%)" offset="0.101562"/><stop stop-opacity="1" stop-color="rgb(68.778992%, 68.778992%, 68.778992%)" offset="0.109375"/><stop stop-opacity="1" stop-color="rgb(69.052124%, 69.052124%, 69.052124%)" offset="0.117188"/><stop stop-opacity="1" stop-color="rgb(69.325256%, 69.325256%, 69.325256%)" offset="0.125"/><stop stop-opacity="1" stop-color="rgb(69.596863%, 69.596863%, 69.596863%)" offset="0.132813"/><stop stop-opacity="1" stop-color="rgb(69.869995%, 69.869995%, 69.869995%)" offset="0.140625"/><stop stop-opacity="1" stop-color="rgb(70.143127%, 70.143127%, 70.143127%)" offset="0.148438"/><stop stop-opacity="1" stop-color="rgb(70.41626%, 70.41626%, 70.41626%)" offset="0.15625"/><stop stop-opacity="1" stop-color="rgb(70.687866%, 70.687866%, 70.687866%)" offset="0.164062"/><stop stop-opacity="1" stop-color="rgb(70.960999%, 70.960999%, 70.960999%)" offset="0.171875"/><stop stop-opacity="1" stop-color="rgb(71.234131%, 71.234131%, 71.234131%)" offset="0.179688"/><stop stop-opacity="1" stop-color="rgb(71.505737%, 71.505737%, 71.505737%)" offset="0.1875"/><stop stop-opacity="1" stop-color="rgb(71.77887%, 71.77887%, 71.77887%)" offset="0.195312"/><stop stop-opacity="1" stop-color="rgb(72.052002%, 72.052002%, 72.052002%)" offset="0.203125"/><stop stop-opacity="1" stop-color="rgb(72.323608%, 72.323608%, 72.323608%)" offset="0.210937"/><stop stop-opacity="1" stop-color="rgb(72.596741%, 72.596741%, 72.596741%)" offset="0.21875"/><stop stop-opacity="1" stop-color="rgb(72.869873%, 72.869873%, 72.869873%)" offset="0.226563"/><stop stop-opacity="1" stop-color="rgb(73.141479%, 73.141479%, 73.141479%)" offset="0.234375"/><stop stop-opacity="1" stop-color="rgb(73.414612%, 73.414612%, 73.414612%)" offset="0.242188"/><stop stop-opacity="1" stop-color="rgb(73.687744%, 73.687744%, 73.687744%)" offset="0.25"/><stop stop-opacity="1" stop-color="rgb(73.959351%, 73.959351%, 73.959351%)" offset="0.257812"/><stop stop-opacity="1" stop-color="rgb(74.232483%, 74.232483%, 74.232483%)" offset="0.265625"/><stop stop-opacity="1" stop-color="rgb(74.505615%, 74.505615%, 74.505615%)" offset="0.273438"/><stop stop-opacity="1" stop-color="rgb(74.778748%, 74.778748%, 74.778748%)" offset="0.28125"/><stop stop-opacity="1" stop-color="rgb(75.050354%, 75.050354%, 75.050354%)" offset="0.289063"/><stop stop-opacity="1" stop-color="rgb(75.323486%, 75.323486%, 75.323486%)" offset="0.296875"/><stop stop-opacity="1" stop-color="rgb(75.596619%, 75.596619%, 75.596619%)" offset="0.304688"/><stop stop-opacity="1" stop-color="rgb(75.868225%, 75.868225%, 75.868225%)" offset="0.3125"/><stop stop-opacity="1" stop-color="rgb(76.141357%, 76.141357%, 76.141357%)" offset="0.320312"/><stop stop-opacity="1" stop-color="rgb(76.41449%, 76.41449%, 76.41449%)" offset="0.328125"/><stop stop-opacity="1" stop-color="rgb(76.686096%, 76.686096%, 76.686096%)" offset="0.335938"/><stop stop-opacity="1" stop-color="rgb(76.959229%, 76.959229%, 76.959229%)" offset="0.34375"/><stop stop-opacity="1" stop-color="rgb(77.232361%, 77.232361%, 77.232361%)" offset="0.351562"/><stop stop-opacity="1" stop-color="rgb(77.503967%, 77.503967%, 77.503967%)" offset="0.359375"/><stop stop-opacity="1" stop-color="rgb(77.7771%, 77.7771%, 77.7771%)" offset="0.367188"/><stop stop-opacity="1" stop-color="rgb(78.050232%, 78.050232%, 78.050232%)" offset="0.375"/><stop stop-opacity="1" stop-color="rgb(78.321838%, 78.321838%, 78.321838%)" offset="0.382812"/><stop stop-opacity="1" stop-color="rgb(78.594971%, 78.594971%, 78.594971%)" offset="0.390625"/><stop stop-opacity="1" stop-color="rgb(78.868103%, 78.868103%, 78.868103%)" offset="0.398437"/><stop stop-opacity="1" stop-color="rgb(79.141235%, 79.141235%, 79.141235%)" offset="0.40625"/><stop stop-opacity="1" stop-color="rgb(79.412842%, 79.412842%, 79.412842%)" offset="0.414062"/><stop stop-opacity="1" stop-color="rgb(79.685974%, 79.685974%, 79.685974%)" offset="0.421875"/><stop stop-opacity="1" stop-color="rgb(79.959106%, 79.959106%, 79.959106%)" offset="0.429688"/><stop stop-opacity="1" stop-color="rgb(80.230713%, 80.230713%, 80.230713%)" offset="0.4375"/><stop stop-opacity="1" stop-color="rgb(80.503845%, 80.503845%, 80.503845%)" offset="0.445312"/><stop stop-opacity="1" stop-color="rgb(80.776978%, 80.776978%, 80.776978%)" offset="0.453125"/><stop stop-opacity="1" stop-color="rgb(81.048584%, 81.048584%, 81.048584%)" offset="0.460938"/><stop stop-opacity="1" stop-color="rgb(81.321716%, 81.321716%, 81.321716%)" offset="0.46875"/><stop stop-opacity="1" stop-color="rgb(81.594849%, 81.594849%, 81.594849%)" offset="0.476562"/><stop stop-opacity="1" stop-color="rgb(81.866455%, 81.866455%, 81.866455%)" offset="0.484375"/><stop stop-opacity="1" stop-color="rgb(82.139587%, 82.139587%, 82.139587%)" offset="0.492188"/><stop stop-opacity="1" stop-color="rgb(82.41272%, 82.41272%, 82.41272%)" offset="0.5"/><stop stop-opacity="1" stop-color="rgb(82.684326%, 82.684326%, 82.684326%)" offset="0.507812"/><stop stop-opacity="1" stop-color="rgb(82.957458%, 82.957458%, 82.957458%)" offset="0.515625"/><stop stop-opacity="1" stop-color="rgb(83.230591%, 83.230591%, 83.230591%)" offset="0.523437"/><stop stop-opacity="1" stop-color="rgb(83.503723%, 83.503723%, 83.503723%)" offset="0.53125"/><stop stop-opacity="1" stop-color="rgb(83.77533%, 83.77533%, 83.77533%)" offset="0.539062"/><stop stop-opacity="1" stop-color="rgb(84.048462%, 84.048462%, 84.048462%)" offset="0.546875"/><stop stop-opacity="1" stop-color="rgb(84.321594%, 84.321594%, 84.321594%)" offset="0.554687"/><stop stop-opacity="1" stop-color="rgb(84.593201%, 84.593201%, 84.593201%)" offset="0.5625"/><stop stop-opacity="1" stop-color="rgb(84.866333%, 84.866333%, 84.866333%)" offset="0.570312"/><stop stop-opacity="1" stop-color="rgb(85.139465%, 85.139465%, 85.139465%)" offset="0.578125"/><stop stop-opacity="1" stop-color="rgb(85.411072%, 85.411072%, 85.411072%)" offset="0.585937"/><stop stop-opacity="1" stop-color="rgb(85.684204%, 85.684204%, 85.684204%)" offset="0.59375"/><stop stop-opacity="1" stop-color="rgb(85.957336%, 85.957336%, 85.957336%)" offset="0.601562"/><stop stop-opacity="1" stop-color="rgb(86.228943%, 86.228943%, 86.228943%)" offset="0.609375"/><stop stop-opacity="1" stop-color="rgb(86.502075%, 86.502075%, 86.502075%)" offset="0.617188"/><stop stop-opacity="1" stop-color="rgb(86.775208%, 86.775208%, 86.775208%)" offset="0.625"/><stop stop-opacity="1" stop-color="rgb(87.046814%, 87.046814%, 87.046814%)" offset="0.632812"/><stop stop-opacity="1" stop-color="rgb(87.319946%, 87.319946%, 87.319946%)" offset="0.640625"/><stop stop-opacity="1" stop-color="rgb(87.593079%, 87.593079%, 87.593079%)" offset="0.648438"/><stop stop-opacity="1" stop-color="rgb(87.866211%, 87.866211%, 87.866211%)" offset="0.65625"/><stop stop-opacity="1" stop-color="rgb(88.137817%, 88.137817%, 88.137817%)" offset="0.664063"/><stop stop-opacity="1" stop-color="rgb(88.41095%, 88.41095%, 88.41095%)" offset="0.671875"/><stop stop-opacity="1" stop-color="rgb(88.684082%, 88.684082%, 88.684082%)" offset="0.679688"/><stop stop-opacity="1" stop-color="rgb(88.955688%, 88.955688%, 88.955688%)" offset="0.6875"/><stop stop-opacity="1" stop-color="rgb(89.228821%, 89.228821%, 89.228821%)" offset="0.695313"/><stop stop-opacity="1" stop-color="rgb(89.501953%, 89.501953%, 89.501953%)" offset="0.703125"/><stop stop-opacity="1" stop-color="rgb(89.77356%, 89.77356%, 89.77356%)" offset="0.710938"/><stop stop-opacity="1" stop-color="rgb(90.046692%, 90.046692%, 90.046692%)" offset="0.71875"/><stop stop-opacity="1" stop-color="rgb(90.319824%, 90.319824%, 90.319824%)" offset="0.726563"/><stop stop-opacity="1" stop-color="rgb(90.591431%, 90.591431%, 90.591431%)" offset="0.734375"/><stop stop-opacity="1" stop-color="rgb(90.864563%, 90.864563%, 90.864563%)" offset="0.742188"/><stop stop-opacity="1" stop-color="rgb(91.137695%, 91.137695%, 91.137695%)" offset="0.75"/><stop stop-opacity="1" stop-color="rgb(91.409302%, 91.409302%, 91.409302%)" offset="0.757813"/><stop stop-opacity="1" stop-color="rgb(91.682434%, 91.682434%, 91.682434%)" offset="0.765625"/><stop stop-opacity="1" stop-color="rgb(91.955566%, 91.955566%, 91.955566%)" offset="0.773438"/><stop stop-opacity="1" stop-color="rgb(92.228699%, 92.228699%, 92.228699%)" offset="0.78125"/><stop stop-opacity="1" stop-color="rgb(92.500305%, 92.500305%, 92.500305%)" offset="0.789063"/><stop stop-opacity="1" stop-color="rgb(92.773438%, 92.773438%, 92.773438%)" offset="0.796875"/><stop stop-opacity="1" stop-color="rgb(93.04657%, 93.04657%, 93.04657%)" offset="0.804688"/><stop stop-opacity="1" stop-color="rgb(93.318176%, 93.318176%, 93.318176%)" offset="0.8125"/><stop stop-opacity="1" stop-color="rgb(93.591309%, 93.591309%, 93.591309%)" offset="0.820313"/><stop stop-opacity="1" stop-color="rgb(93.864441%, 93.864441%, 93.864441%)" offset="0.828125"/><stop stop-opacity="1" stop-color="rgb(94.136047%, 94.136047%, 94.136047%)" offset="0.835937"/><stop stop-opacity="1" stop-color="rgb(94.40918%, 94.40918%, 94.40918%)" offset="0.84375"/><stop stop-opacity="1" stop-color="rgb(94.682312%, 94.682312%, 94.682312%)" offset="0.851562"/><stop stop-opacity="1" stop-color="rgb(94.953918%, 94.953918%, 94.953918%)" offset="0.859375"/><stop stop-opacity="1" stop-color="rgb(95.227051%, 95.227051%, 95.227051%)" offset="0.867187"/><stop stop-opacity="1" stop-color="rgb(95.500183%, 95.500183%, 95.500183%)" offset="0.875"/><stop stop-opacity="1" stop-color="rgb(95.77179%, 95.77179%, 95.77179%)" offset="0.882812"/><stop stop-opacity="1" stop-color="rgb(96.044922%, 96.044922%, 96.044922%)" offset="0.890625"/><stop stop-opacity="1" stop-color="rgb(96.318054%, 96.318054%, 96.318054%)" offset="0.898437"/><stop stop-opacity="1" stop-color="rgb(96.591187%, 96.591187%, 96.591187%)" offset="0.90625"/><stop stop-opacity="1" stop-color="rgb(96.862793%, 96.862793%, 96.862793%)" offset="0.914062"/><stop stop-opacity="1" stop-color="rgb(97.135925%, 97.135925%, 97.135925%)" offset="0.921875"/><stop stop-opacity="1" stop-color="rgb(97.409058%, 97.409058%, 97.409058%)" offset="0.929687"/><stop stop-opacity="1" stop-color="rgb(97.680664%, 97.680664%, 97.680664%)" offset="0.9375"/><stop stop-opacity="1" stop-color="rgb(97.953796%, 97.953796%, 97.953796%)" offset="0.945312"/><stop stop-opacity="1" stop-color="rgb(98.226929%, 98.226929%, 98.226929%)" offset="0.953125"/><stop stop-opacity="1" stop-color="rgb(98.498535%, 98.498535%, 98.498535%)" offset="0.960937"/><stop stop-opacity="1" stop-color="rgb(98.771667%, 98.771667%, 98.771667%)" offset="0.96875"/><stop stop-opacity="1" stop-color="rgb(99.0448%, 99.0448%, 99.0448%)" offset="0.976562"/><stop stop-opacity="1" stop-color="rgb(99.316406%, 99.316406%, 99.316406%)" offset="0.984375"/><stop stop-opacity="1" stop-color="rgb(99.589539%, 99.589539%, 99.589539%)" offset="0.992188"/><stop stop-opacity="1" stop-color="rgb(99.862671%, 99.862671%, 99.862671%)" offset="1"/></linearGradient><clipPath id="a9a216d446"><path d="M 0.738281 0.738281 L 35.527344 0.738281 L 35.527344 35.527344 L 0.738281 35.527344 Z M 0.738281 0.738281 " clip-rule="nonzero"/></clipPath><clipPath id="edc7c19a84"><path d="M 18.132812 0.738281 C 8.527344 0.738281 0.738281 8.527344 0.738281 18.132812 C 0.738281 27.738281 8.527344 35.527344 18.132812 35.527344 C 27.738281 35.527344 35.527344 27.738281 35.527344 18.132812 C 35.527344 8.527344 27.738281 0.738281 18.132812 0.738281 Z M 18.132812 0.738281 " clip-rule="nonzero"/></clipPath><clipPath id="e5a910337f"><path d="M 6.492188 16 L 27 16 L 27 32.375 L 6.492188 32.375 Z M 6.492188 16 " clip-rule="nonzero"/></clipPath><clipPath id="1b02aa2f33"><path d="M 11 29 L 22 29 L 22 32.375 L 11 32.375 Z M 11 29 " clip-rule="nonzero"/></clipPath><clipPath id="36f7ad70cc"><path d="M 12 5 L 29.4375 5 L 29.4375 19 L 12 19 Z M 12 5 " clip-rule="nonzero"/></clipPath><clipPath id="e6d486142a"><path d="M 21 5 L 29.4375 5 L 29.4375 15 L 21 15 Z M 21 5 " clip-rule="nonzero"/></clipPath><clipPath id="8239da9edb"><path d="M 14 30 L 22 30 L 22 32.375 L 14 32.375 Z M 14 30 " clip-rule="nonzero"/></clipPath></defs><g clip-path="url(#8e28299aef)"><g clip-path="url(#8559ec4f65)"><path fill="url(#09e65c0865)" d="M 0.519531 0.519531 L 0.519531 35.378906 L 35.378906 35.378906 L 35.378906 0.519531 Z M 0.519531 0.519531 " fill-rule="nonzero"/></g></g><g clip-path="url(#a9a216d446)"><g clip-path="url(#edc7c19a84)"><path fill="#435b70" d="M 0.738281 0.738281 L 35.527344 0.738281 L 35.527344 35.527344 L 0.738281 35.527344 Z M 0.738281 0.738281 " fill-opacity="1" fill-rule="nonzero"/></g></g><g clip-path="url(#e5a910337f)"><path fill="#ecb06b" d="M 16.007812 16.808594 C 16.007812 16.808594 15.882812 17.828125 14.414062 18.773438 C 12.945312 19.722656 10.671875 19.957031 8.984375 21.121094 C 7.300781 22.289062 6.507812 24.355469 6.605469 26.355469 C 6.707031 28.351562 8.019531 29.597656 8.667969 30.121094 C 9.3125 30.644531 10.550781 30.984375 11.5 31.292969 C 12.449219 31.601562 12.902344 31.996094 13.5625 32.050781 C 13.875 32.078125 14.328125 31.757812 14.625 31.378906 C 14.953125 30.964844 15.140625 30.511719 15.054688 30.28125 C 14.917969 29.910156 14.46875 29.710938 14.011719 29.65625 C 14.011719 29.65625 14.835938 29.476562 15.628906 29.503906 C 16.421875 29.53125 17.660156 29.664062 18.34375 29.53125 C 18.34375 29.53125 18.464844 30.550781 18.53125 31.03125 C 18.597656 31.515625 18.726562 31.894531 19.515625 32.132812 C 20.308594 32.371094 20.925781 32.355469 21.421875 32.132812 C 21.917969 31.90625 21.679688 31.222656 21.492188 30.863281 C 21.308594 30.5 21.582031 29.375 21.742188 28.945312 C 21.742188 28.945312 23.414062 28.078125 24.316406 27 C 25.21875 25.917969 25.714844 24.734375 25.714844 24.734375 C 25.714844 24.734375 25.691406 25.046875 25.816406 25.035156 C 25.9375 25.023438 26.382812 24.109375 26.304688 23.140625 C 26.304688 23.140625 26.457031 23.707031 26.566406 23.648438 C 26.675781 23.585938 26.851562 23.242188 26.746094 22.140625 C 26.652344 21.164062 25.988281 18.542969 24.84375 17.347656 C 23.671875 16.132812 15.886719 16.953125 16.007812 16.808594 Z M 16.007812 16.808594 " fill-opacity="1" fill-rule="evenodd"/></g><g clip-path="url(#1b02aa2f33)"><path fill="#f3e5d6" d="M 18.386719 29.886719 C 18.597656 29.839844 18.980469 29.78125 19.339844 29.867188 C 19.871094 29.988281 20.15625 30.175781 20.628906 30.199219 C 20.910156 30.210938 21.242188 30.136719 21.464844 30.070312 C 21.417969 30.398438 21.410156 30.703125 21.492188 30.863281 C 21.679688 31.222656 21.917969 31.90625 21.421875 32.132812 C 20.925781 32.355469 20.308594 32.371094 19.515625 32.132812 C 18.726562 31.894531 18.597656 31.515625 18.53125 31.03125 C 18.488281 30.734375 18.425781 30.226562 18.386719 29.886719 Z M 11.710938 31.367188 C 11.816406 31.21875 11.980469 31.011719 12.1875 30.855469 C 12.550781 30.570312 13.179688 30.210938 13.601562 29.472656 C 13.601562 29.472656 13.789062 29.652344 14.007812 29.65625 L 14.011719 29.65625 C 14.46875 29.710938 14.917969 29.910156 15.054688 30.28125 C 15.140625 30.511719 14.953125 30.964844 14.625 31.378906 C 14.328125 31.757812 13.875 32.078125 13.5625 32.050781 C 12.953125 32 12.519531 31.664062 11.710938 31.367188 Z M 11.710938 31.367188 " fill-opacity="1" fill-rule="evenodd"/></g><path fill="#f3e5d6" d="M 17.757812 16.753906 C 17.167969 17.042969 16.730469 17.265625 16.730469 17.265625 C 16.730469 17.265625 16.945312 18.625 18.671875 20.113281 C 20.402344 21.601562 23.375 23.671875 21.742188 28.945312 C 21.742188 28.945312 23.414062 28.078125 24.316406 27 C 25.21875 25.917969 25.714844 24.734375 25.714844 24.734375 C 25.714844 24.734375 25.691406 25.046875 25.816406 25.035156 C 25.9375 25.023438 26.382812 24.109375 26.304688 23.140625 C 26.304688 23.140625 26.457031 23.707031 26.566406 23.648438 C 26.675781 23.585938 26.851562 23.242188 26.746094 22.140625 C 26.652344 21.164062 25.988281 18.542969 24.84375 17.347656 C 24.035156 16.511719 20.097656 16.636719 17.757812 16.753906 Z M 17.757812 16.753906 " fill-opacity="1" fill-rule="evenodd"/><path fill="#ecb06b" d="M 22.484375 28.136719 C 22.484375 28.136719 22.605469 28.898438 22.652344 29.445312 C 22.703125 29.996094 22.894531 30.511719 23.417969 30.714844 C 23.941406 30.917969 25.230469 30.800781 25.460938 30.511719 C 25.6875 30.21875 25.769531 29.699219 25.367188 29.230469 C 24.960938 28.765625 24.78125 28.667969 24.867188 28.136719 C 24.957031 27.605469 25.734375 24.496094 25.734375 24.496094 Z M 22.484375 28.136719 " fill-opacity="1" fill-rule="evenodd"/><path fill="#fcf7f2" d="M 24.890625 28.621094 C 24.960938 28.804688 25.125 28.953125 25.367188 29.230469 C 25.769531 29.699219 25.6875 30.21875 25.460938 30.511719 C 25.230469 30.800781 23.941406 30.917969 23.417969 30.714844 C 22.894531 30.511719 22.703125 29.996094 22.652344 29.445312 C 22.644531 29.34375 22.632812 29.230469 22.621094 29.117188 C 22.761719 29.066406 22.960938 29.023438 23.1875 29.058594 C 23.628906 29.128906 23.945312 29.101562 24.332031 28.847656 C 24.539062 28.710938 24.746094 28.648438 24.890625 28.621094 Z M 24.890625 28.621094 " fill-opacity="1" fill-rule="evenodd"/><path fill="#65453f" d="M 25.042969 30.714844 C 25.078125 30.707031 25.113281 30.695312 25.144531 30.6875 C 25.117188 30.1875 24.851562 29.90625 24.851562 29.90625 C 24.832031 29.886719 24.796875 29.882812 24.777344 29.90625 C 24.757812 29.925781 24.757812 29.957031 24.777344 29.976562 C 24.777344 29.976562 25.027344 30.246094 25.042969 30.714844 Z M 25.042969 30.714844 " fill-opacity="1" fill-rule="evenodd"/><g clip-path="url(#36f7ad70cc)"><path fill="#f3e5d6" d="M 21.109375 18.609375 C 21.109375 18.609375 19.722656 18.644531 18.046875 18.117188 C 16.980469 17.785156 15.449219 16.988281 14.933594 16.589844 C 14.414062 16.191406 14.140625 16.0625 14.28125 15.933594 C 14.425781 15.804688 14.609375 15.671875 14.609375 15.671875 C 14.609375 15.671875 14.105469 15.300781 14.125 15.171875 C 14.140625 15.039062 14.441406 14.75 14.574219 14.414062 C 14.707031 14.078125 14.726562 13.457031 14.90625 12.894531 C 14.90625 12.894531 14.128906 12.449219 13.617188 11.550781 C 13.101562 10.652344 12.410156 8.820312 12.414062 7.410156 C 12.417969 5.859375 12.667969 5.386719 14.035156 5.628906 C 15.324219 5.855469 17.222656 6.839844 18.5 8.210938 C 18.5 8.210938 19.445312 7.875 20.585938 7.859375 C 20.707031 7.855469 21.097656 7.847656 21.210938 7.84375 C 22.347656 7.804688 23.308594 8.09375 23.308594 8.09375 C 24.523438 6.660156 26.371094 5.582031 27.652344 5.292969 C 29.007812 4.988281 29.277344 5.445312 29.351562 6.996094 C 29.421875 8.40625 28.816406 10.269531 28.34375 11.191406 C 27.871094 12.113281 27.117188 12.597656 27.117188 12.597656 C 27.324219 13.152344 27.371094 13.769531 27.519531 14.097656 C 27.664062 14.425781 27.980469 14.703125 28.003906 14.832031 C 28.027344 14.960938 27.542969 15.355469 27.542969 15.355469 C 27.542969 15.355469 27.730469 15.480469 27.878906 15.601562 C 28.027344 15.722656 27.757812 15.867188 27.261719 16.289062 C 26.761719 16.714844 25.476562 17.574219 24.28125 18.078125 C 23.003906 18.613281 21.109375 18.609375 21.109375 18.609375 Z M 21.109375 18.609375 " fill-opacity="1" fill-rule="evenodd"/></g><path fill="#ecb06b" d="M 14.527344 14.515625 C 14.546875 14.480469 14.5625 14.449219 14.574219 14.414062 C 14.707031 14.078125 14.726562 13.457031 14.90625 12.894531 C 14.90625 12.894531 14.128906 12.449219 13.617188 11.550781 C 13.101562 10.652344 12.410156 8.820312 12.414062 7.410156 C 12.417969 5.859375 12.667969 5.386719 14.035156 5.628906 C 15.324219 5.855469 17.222656 6.839844 18.5 8.210938 C 18.5 8.210938 19.339844 7.914062 20.386719 7.867188 C 20.527344 8.667969 20.574219 9.515625 20.5625 10.175781 C 20.546875 11.039062 20.535156 12.691406 19.578125 13.648438 C 18.621094 14.605469 17.046875 14.648438 16.277344 14.613281 C 15.703125 14.585938 14.902344 14.539062 14.527344 14.515625 Z M 14.527344 14.515625 " fill-opacity="1" fill-rule="evenodd"/><g clip-path="url(#e6d486142a)"><path fill="#ecb06b" d="M 27.566406 14.195312 C 27.550781 14.164062 27.53125 14.132812 27.519531 14.097656 C 27.371094 13.769531 27.324219 13.152344 27.117188 12.597656 C 27.117188 12.597656 27.871094 12.113281 28.34375 11.191406 C 28.816406 10.269531 29.421875 8.40625 29.351562 6.996094 C 29.277344 5.445312 29.007812 4.988281 27.652344 5.292969 C 26.371094 5.582031 24.523438 6.660156 23.308594 8.09375 C 23.308594 8.09375 22.460938 7.835938 21.410156 7.839844 C 21.351562 8.589844 21.421875 9.554688 21.464844 10.214844 C 21.523438 11.078125 21.484375 12.667969 22.484375 13.578125 C 23.484375 14.484375 25.058594 14.453125 25.828125 14.378906 C 26.398438 14.324219 27.199219 14.238281 27.566406 14.195312 Z M 27.566406 14.195312 " fill-opacity="1" fill-rule="evenodd"/></g><path fill="#65453f" d="M 18.769531 12.214844 C 19.0625 12.207031 19.308594 12.445312 19.316406 12.75 C 19.320312 13.050781 19.089844 13.304688 18.792969 13.308594 C 18.5 13.316406 18.257812 13.078125 18.25 12.773438 C 18.242188 12.472656 18.476562 12.222656 18.769531 12.214844 Z M 18.769531 12.214844 " fill-opacity="1" fill-rule="evenodd"/><path fill="#65453f" d="M 23.226562 12.105469 C 22.933594 12.113281 22.699219 12.363281 22.707031 12.667969 C 22.710938 12.96875 22.957031 13.207031 23.25 13.203125 C 23.546875 13.195312 23.777344 12.941406 23.773438 12.640625 C 23.765625 12.339844 23.519531 12.097656 23.226562 12.105469 Z M 23.226562 12.105469 " fill-opacity="1" fill-rule="evenodd"/><path fill="#eb826d" d="M 20.160156 15.757812 C 20.160156 15.757812 20.800781 16.246094 21.214844 16.238281 C 21.648438 16.226562 22.269531 15.707031 22.269531 15.707031 C 22.269531 15.707031 21.335938 15.683594 21.109375 14.9375 C 21.109375 14.9375 21.277344 15.523438 20.160156 15.757812 Z M 20.160156 15.757812 " fill-opacity="1" fill-rule="evenodd"/><path fill="#65453f" d="M 21.011719 15.179688 C 20.511719 15.160156 20.054688 14.839844 20.039062 14.511719 C 20.019531 14.191406 20.3125 13.796875 21.039062 13.792969 C 21.769531 13.792969 22.09375 14.167969 22.097656 14.429688 C 22.097656 14.757812 21.785156 15.070312 21.304688 15.15625 C 21.417969 15.316406 21.652344 15.546875 22.105469 15.585938 C 22.628906 15.628906 23.035156 15.421875 23.144531 15.128906 C 23.160156 15.089844 23.207031 15.070312 23.246094 15.085938 C 23.285156 15.101562 23.304688 15.144531 23.289062 15.1875 C 23.15625 15.527344 22.699219 15.792969 22.09375 15.742188 C 21.554688 15.695312 21.285156 15.40625 21.164062 15.21875 C 21.09375 15.355469 20.984375 15.476562 20.84375 15.574219 C 20.554688 15.773438 20.144531 15.871094 19.78125 15.796875 C 19.148438 15.667969 19.058594 15.277344 19.058594 15.277344 C 19.046875 15.234375 19.070312 15.191406 19.113281 15.179688 C 19.152344 15.171875 19.195312 15.195312 19.203125 15.238281 C 19.203125 15.238281 19.289062 15.539062 19.808594 15.644531 C 20.136719 15.707031 20.5 15.621094 20.757812 15.445312 C 20.863281 15.371094 20.953125 15.28125 21.011719 15.179688 Z M 21.011719 15.179688 " fill-opacity="1" fill-rule="evenodd"/><path fill="#ecb06b" d="M 18.226562 18.210938 C 18.226562 18.210938 21.1875 19.277344 24.296875 18.132812 C 24.324219 18.125 24.335938 18.09375 24.328125 18.066406 C 24.316406 18.039062 24.289062 18.027344 24.261719 18.035156 C 21.1875 19.167969 18.261719 18.113281 18.261719 18.113281 C 18.234375 18.105469 18.203125 18.117188 18.195312 18.144531 C 18.1875 18.171875 18.199219 18.203125 18.226562 18.210938 Z M 18.226562 18.210938 " fill-opacity="1" fill-rule="evenodd"/><path fill="#f3e5d6" d="M 15.375 11.554688 C 15.097656 11.503906 14.617188 11.125 14.242188 10.414062 C 14.015625 9.984375 13.605469 8.679688 13.550781 7.921875 C 13.492188 7.089844 13.648438 6.90625 14.484375 7.082031 C 15.328125 7.261719 16.15625 7.746094 16.722656 8.230469 C 17.292969 8.714844 17.480469 8.902344 17.261719 9.246094 C 17.128906 9.449219 16.695312 10 16.390625 10.382812 C 15.75 11.195312 15.671875 11.605469 15.375 11.554688 Z M 15.375 11.554688 " fill-opacity="1" fill-rule="evenodd"/><path fill="#f3e5d6" d="M 26.585938 11.277344 C 26.863281 11.214844 27.324219 10.8125 27.664062 10.085938 C 27.871094 9.644531 28.21875 8.320312 28.238281 7.5625 C 28.261719 6.730469 28.09375 6.550781 27.269531 6.769531 C 26.433594 6.992188 25.628906 7.511719 25.085938 8.023438 C 24.539062 8.539062 24.363281 8.734375 24.597656 9.066406 C 24.738281 9.265625 25.195312 9.789062 25.515625 10.160156 C 26.195312 10.941406 26.289062 11.34375 26.585938 11.277344 Z M 26.585938 11.277344 " fill-opacity="1" fill-rule="evenodd"/><path fill="#f3e5d6" d="M 17.90625 11.425781 C 17.855469 11.230469 17.910156 10.933594 18.308594 10.816406 C 18.628906 10.726562 18.949219 10.804688 19 11.050781 C 19.054688 11.292969 18.785156 11.476562 18.554688 11.566406 C 18.292969 11.667969 17.964844 11.652344 17.90625 11.425781 Z M 17.90625 11.425781 " fill-opacity="1" fill-rule="evenodd"/><path fill="#f3e5d6" d="M 24.050781 11.277344 C 24.09375 11.078125 24.027344 10.78125 23.621094 10.6875 C 23.296875 10.609375 22.980469 10.707031 22.941406 10.953125 C 22.898438 11.199219 23.175781 11.367188 23.410156 11.449219 C 23.675781 11.539062 24.003906 11.503906 24.050781 11.277344 Z M 24.050781 11.277344 " fill-opacity="1" fill-rule="evenodd"/><g clip-path="url(#8239da9edb)"><path fill="#65453f" d="M 20.109375 32.269531 C 20.140625 32.273438 20.175781 32.277344 20.207031 32.28125 C 20.300781 31.769531 20.0625 31.449219 20.0625 31.449219 C 20.046875 31.429688 20.011719 31.421875 19.992188 31.441406 C 19.96875 31.457031 19.964844 31.492188 19.980469 31.515625 C 19.980469 31.515625 20.191406 31.804688 20.109375 32.269531 Z M 21.105469 32.242188 C 21.140625 32.234375 21.175781 32.222656 21.210938 32.210938 C 21.242188 31.988281 21.226562 31.679688 21.019531 31.390625 C 21 31.367188 20.96875 31.359375 20.945312 31.378906 C 20.925781 31.394531 20.917969 31.429688 20.9375 31.449219 C 21.136719 31.734375 21.140625 32.035156 21.105469 32.242188 Z M 14.570312 31.449219 C 14.589844 31.425781 14.605469 31.402344 14.625 31.378906 C 14.628906 31.375 14.632812 31.371094 14.632812 31.367188 C 14.527344 31.257812 14.339844 31.113281 14.054688 31.113281 C 14.023438 31.113281 14.003906 31.136719 14.003906 31.167969 C 14.003906 31.195312 14.023438 31.21875 14.054688 31.21875 C 14.308594 31.21875 14.480469 31.351562 14.570312 31.449219 Z M 14.957031 30.851562 C 14.972656 30.8125 14.988281 30.777344 15 30.742188 C 14.757812 30.441406 14.394531 30.5 14.394531 30.5 C 14.363281 30.503906 14.347656 30.53125 14.351562 30.558594 C 14.355469 30.585938 14.378906 30.605469 14.40625 30.601562 C 14.40625 30.601562 14.75 30.550781 14.957031 30.851562 Z M 14.957031 30.851562 " fill-opacity="1" fill-rule="evenodd"/></g></svg>