<svg xmlns="http://www.w3.org/2000/svg" xmlns:xlink="http://www.w3.org/1999/xlink" width="50" zoomAndPan="magnify" viewBox="0 0 37.5 37.499999" height="50" preserveAspectRatio="xMidYMid meet" version="1.0"><defs><clipPath id="311335912a"><path d="M 0 0.519531 L 36.851562 0.519531 L 36.851562 35.378906 L 0 35.378906 Z M 0 0.519531 " clip-rule="nonzero"/></clipPath><clipPath id="a0cc5d8711"><path d="M 18.425781 0.519531 C 8.25 0.519531 0 8.320312 0 17.949219 C 0 27.574219 8.25 35.378906 18.425781 35.378906 C 28.601562 35.378906 36.851562 27.574219 36.851562 17.949219 C 36.851562 8.320312 28.601562 0.519531 18.425781 0.519531 Z M 18.425781 0.519531 " clip-rule="nonzero"/></clipPath><linearGradient x1="0.0018158" gradientTransform="matrix(0.136173, 0, 0, 0.136173, -0.000246762, 0.518094)" y1="128" x2="270.612992" gradientUnits="userSpaceOnUse" y2="128" id="2b14a4450a"><stop stop-opacity="1" stop-color="rgb(65.100098%, 65.100098%, 65.100098%)" offset="0"/><stop stop-opacity="1" stop-color="rgb(65.235901%, 65.235901%, 65.235901%)" offset="0.0078125"/><stop stop-opacity="1" stop-color="rgb(65.507507%, 65.507507%, 65.507507%)" offset="0.015625"/><stop stop-opacity="1" stop-color="rgb(65.78064%, 65.78064%, 65.78064%)" offset="0.0234375"/><stop stop-opacity="1" stop-color="rgb(66.053772%, 66.053772%, 66.053772%)" offset="0.03125"/><stop stop-opacity="1" stop-color="rgb(66.325378%, 66.325378%, 66.325378%)" offset="0.0390625"/><stop stop-opacity="1" stop-color="rgb(66.598511%, 66.598511%, 66.598511%)" offset="0.046875"/><stop stop-opacity="1" stop-color="rgb(66.871643%, 66.871643%, 66.871643%)" offset="0.0546875"/><stop stop-opacity="1" stop-color="rgb(67.14325%, 67.14325%, 67.14325%)" offset="0.0625"/><stop stop-opacity="1" stop-color="rgb(67.416382%, 67.416382%, 67.416382%)" offset="0.0703125"/><stop stop-opacity="1" stop-color="rgb(67.689514%, 67.689514%, 67.689514%)" offset="0.078125"/><stop stop-opacity="1" stop-color="rgb(67.961121%, 67.961121%, 67.961121%)" offset="0.0859375"/><stop stop-opacity="1" stop-color="rgb(68.234253%, 68.234253%, 68.234253%)" offset="0.09375"/><stop stop-opacity="1" stop-color="rgb(68.507385%, 68.507385%, 68.507385%)" offset="0.101562"/><stop stop-opacity="1" stop-color="rgb(68.780518%, 68.780518%, 68.780518%)" offset="0.109375"/><stop stop-opacity="1" stop-color="rgb(69.052124%, 69.052124%, 69.052124%)" offset="0.117187"/><stop stop-opacity="1" stop-color="rgb(69.325256%, 69.325256%, 69.325256%)" offset="0.125"/><stop stop-opacity="1" stop-color="rgb(69.598389%, 69.598389%, 69.598389%)" offset="0.132812"/><stop stop-opacity="1" stop-color="rgb(69.869995%, 69.869995%, 69.869995%)" offset="0.140625"/><stop stop-opacity="1" stop-color="rgb(70.143127%, 70.143127%, 70.143127%)" offset="0.148438"/><stop stop-opacity="1" stop-color="rgb(70.41626%, 70.41626%, 70.41626%)" offset="0.15625"/><stop stop-opacity="1" stop-color="rgb(70.687866%, 70.687866%, 70.687866%)" offset="0.164062"/><stop stop-opacity="1" stop-color="rgb(70.960999%, 70.960999%, 70.960999%)" offset="0.171875"/><stop stop-opacity="1" stop-color="rgb(71.234131%, 71.234131%, 71.234131%)" offset="0.179687"/><stop stop-opacity="1" stop-color="rgb(71.505737%, 71.505737%, 71.505737%)" offset="0.1875"/><stop stop-opacity="1" stop-color="rgb(71.77887%, 71.77887%, 71.77887%)" offset="0.195312"/><stop stop-opacity="1" stop-color="rgb(72.052002%, 72.052002%, 72.052002%)" offset="0.203125"/><stop stop-opacity="1" stop-color="rgb(72.323608%, 72.323608%, 72.323608%)" offset="0.210937"/><stop stop-opacity="1" stop-color="rgb(72.596741%, 72.596741%, 72.596741%)" offset="0.21875"/><stop stop-opacity="1" stop-color="rgb(72.869873%, 72.869873%, 72.869873%)" offset="0.226562"/><stop stop-opacity="1" stop-color="rgb(73.143005%, 73.143005%, 73.143005%)" offset="0.234375"/><stop stop-opacity="1" stop-color="rgb(73.414612%, 73.414612%, 73.414612%)" offset="0.242187"/><stop stop-opacity="1" stop-color="rgb(73.687744%, 73.687744%, 73.687744%)" offset="0.25"/><stop stop-opacity="1" stop-color="rgb(73.960876%, 73.960876%, 73.960876%)" offset="0.257812"/><stop stop-opacity="1" stop-color="rgb(74.232483%, 74.232483%, 74.232483%)" offset="0.265625"/><stop stop-opacity="1" stop-color="rgb(74.505615%, 74.505615%, 74.505615%)" offset="0.273437"/><stop stop-opacity="1" stop-color="rgb(74.778748%, 74.778748%, 74.778748%)" offset="0.28125"/><stop stop-opacity="1" stop-color="rgb(75.050354%, 75.050354%, 75.050354%)" offset="0.289062"/><stop stop-opacity="1" stop-color="rgb(75.323486%, 75.323486%, 75.323486%)" offset="0.296875"/><stop stop-opacity="1" stop-color="rgb(75.596619%, 75.596619%, 75.596619%)" offset="0.304687"/><stop stop-opacity="1" stop-color="rgb(75.868225%, 75.868225%, 75.868225%)" offset="0.3125"/><stop stop-opacity="1" stop-color="rgb(76.141357%, 76.141357%, 76.141357%)" offset="0.320312"/><stop stop-opacity="1" stop-color="rgb(76.41449%, 76.41449%, 76.41449%)" offset="0.328125"/><stop stop-opacity="1" stop-color="rgb(76.686096%, 76.686096%, 76.686096%)" offset="0.335937"/><stop stop-opacity="1" stop-color="rgb(76.959229%, 76.959229%, 76.959229%)" offset="0.34375"/><stop stop-opacity="1" stop-color="rgb(77.232361%, 77.232361%, 77.232361%)" offset="0.351562"/><stop stop-opacity="1" stop-color="rgb(77.503967%, 77.503967%, 77.503967%)" offset="0.359375"/><stop stop-opacity="1" stop-color="rgb(77.7771%, 77.7771%, 77.7771%)" offset="0.367188"/><stop stop-opacity="1" stop-color="rgb(78.050232%, 78.050232%, 78.050232%)" offset="0.375"/><stop stop-opacity="1" stop-color="rgb(78.323364%, 78.323364%, 78.323364%)" offset="0.382812"/><stop stop-opacity="1" stop-color="rgb(78.594971%, 78.594971%, 78.594971%)" offset="0.390625"/><stop stop-opacity="1" stop-color="rgb(78.868103%, 78.868103%, 78.868103%)" offset="0.398437"/><stop stop-opacity="1" stop-color="rgb(79.141235%, 79.141235%, 79.141235%)" offset="0.40625"/><stop stop-opacity="1" stop-color="rgb(79.412842%, 79.412842%, 79.412842%)" offset="0.414062"/><stop stop-opacity="1" stop-color="rgb(79.685974%, 79.685974%, 79.685974%)" offset="0.421875"/><stop stop-opacity="1" stop-color="rgb(79.959106%, 79.959106%, 79.959106%)" offset="0.429687"/><stop stop-opacity="1" stop-color="rgb(80.230713%, 80.230713%, 80.230713%)" offset="0.4375"/><stop stop-opacity="1" stop-color="rgb(80.503845%, 80.503845%, 80.503845%)" offset="0.445312"/><stop stop-opacity="1" stop-color="rgb(80.776978%, 80.776978%, 80.776978%)" offset="0.453125"/><stop stop-opacity="1" stop-color="rgb(81.048584%, 81.048584%, 81.048584%)" offset="0.460937"/><stop stop-opacity="1" stop-color="rgb(81.321716%, 81.321716%, 81.321716%)" offset="0.46875"/><stop stop-opacity="1" stop-color="rgb(81.594849%, 81.594849%, 81.594849%)" offset="0.476562"/><stop stop-opacity="1" stop-color="rgb(81.866455%, 81.866455%, 81.866455%)" offset="0.484375"/><stop stop-opacity="1" stop-color="rgb(82.139587%, 82.139587%, 82.139587%)" offset="0.492188"/><stop stop-opacity="1" stop-color="rgb(82.41272%, 82.41272%, 82.41272%)" offset="0.5"/><stop stop-opacity="1" stop-color="rgb(82.685852%, 82.685852%, 82.685852%)" offset="0.507812"/><stop stop-opacity="1" stop-color="rgb(82.957458%, 82.957458%, 82.957458%)" offset="0.515625"/><stop stop-opacity="1" stop-color="rgb(83.230591%, 83.230591%, 83.230591%)" offset="0.523438"/><stop stop-opacity="1" stop-color="rgb(83.503723%, 83.503723%, 83.503723%)" offset="0.53125"/><stop stop-opacity="1" stop-color="rgb(83.77533%, 83.77533%, 83.77533%)" offset="0.539062"/><stop stop-opacity="1" stop-color="rgb(84.048462%, 84.048462%, 84.048462%)" offset="0.546875"/><stop stop-opacity="1" stop-color="rgb(84.321594%, 84.321594%, 84.321594%)" offset="0.554688"/><stop stop-opacity="1" stop-color="rgb(84.593201%, 84.593201%, 84.593201%)" offset="0.5625"/><stop stop-opacity="1" stop-color="rgb(84.866333%, 84.866333%, 84.866333%)" offset="0.570312"/><stop stop-opacity="1" stop-color="rgb(85.139465%, 85.139465%, 85.139465%)" offset="0.578125"/><stop stop-opacity="1" stop-color="rgb(85.411072%, 85.411072%, 85.411072%)" offset="0.585938"/><stop stop-opacity="1" stop-color="rgb(85.684204%, 85.684204%, 85.684204%)" offset="0.59375"/><stop stop-opacity="1" stop-color="rgb(85.957336%, 85.957336%, 85.957336%)" offset="0.601562"/><stop stop-opacity="1" stop-color="rgb(86.228943%, 86.228943%, 86.228943%)" offset="0.609375"/><stop stop-opacity="1" stop-color="rgb(86.502075%, 86.502075%, 86.502075%)" offset="0.617188"/><stop stop-opacity="1" stop-color="rgb(86.775208%, 86.775208%, 86.775208%)" offset="0.625"/><stop stop-opacity="1" stop-color="rgb(87.04834%, 87.04834%, 87.04834%)" offset="0.632812"/><stop stop-opacity="1" stop-color="rgb(87.319946%, 87.319946%, 87.319946%)" offset="0.640625"/><stop stop-opacity="1" stop-color="rgb(87.593079%, 87.593079%, 87.593079%)" offset="0.648438"/><stop stop-opacity="1" stop-color="rgb(87.866211%, 87.866211%, 87.866211%)" offset="0.65625"/><stop stop-opacity="1" stop-color="rgb(88.137817%, 88.137817%, 88.137817%)" offset="0.664062"/><stop stop-opacity="1" stop-color="rgb(88.41095%, 88.41095%, 88.41095%)" offset="0.671875"/><stop stop-opacity="1" stop-color="rgb(88.684082%, 88.684082%, 88.684082%)" offset="0.679688"/><stop stop-opacity="1" stop-color="rgb(88.955688%, 88.955688%, 88.955688%)" offset="0.6875"/><stop stop-opacity="1" stop-color="rgb(89.228821%, 89.228821%, 89.228821%)" offset="0.695312"/><stop stop-opacity="1" stop-color="rgb(89.501953%, 89.501953%, 89.501953%)" offset="0.703125"/><stop stop-opacity="1" stop-color="rgb(89.77356%, 89.77356%, 89.77356%)" offset="0.710938"/><stop stop-opacity="1" stop-color="rgb(90.046692%, 90.046692%, 90.046692%)" offset="0.71875"/><stop stop-opacity="1" stop-color="rgb(90.319824%, 90.319824%, 90.319824%)" offset="0.726562"/><stop stop-opacity="1" stop-color="rgb(90.591431%, 90.591431%, 90.591431%)" offset="0.734375"/><stop stop-opacity="1" stop-color="rgb(90.864563%, 90.864563%, 90.864563%)" offset="0.742188"/><stop stop-opacity="1" stop-color="rgb(91.137695%, 91.137695%, 91.137695%)" offset="0.75"/><stop stop-opacity="1" stop-color="rgb(91.410828%, 91.410828%, 91.410828%)" offset="0.757812"/><stop stop-opacity="1" stop-color="rgb(91.682434%, 91.682434%, 91.682434%)" offset="0.765625"/><stop stop-opacity="1" stop-color="rgb(91.955566%, 91.955566%, 91.955566%)" offset="0.773438"/><stop stop-opacity="1" stop-color="rgb(92.228699%, 92.228699%, 92.228699%)" offset="0.78125"/><stop stop-opacity="1" stop-color="rgb(92.500305%, 92.500305%, 92.500305%)" offset="0.789062"/><stop stop-opacity="1" stop-color="rgb(92.773438%, 92.773438%, 92.773438%)" offset="0.796875"/><stop stop-opacity="1" stop-color="rgb(93.04657%, 93.04657%, 93.04657%)" offset="0.804688"/><stop stop-opacity="1" stop-color="rgb(93.318176%, 93.318176%, 93.318176%)" offset="0.8125"/><stop stop-opacity="1" stop-color="rgb(93.591309%, 93.591309%, 93.591309%)" offset="0.820312"/><stop stop-opacity="1" stop-color="rgb(93.864441%, 93.864441%, 93.864441%)" offset="0.828125"/><stop stop-opacity="1" stop-color="rgb(94.136047%, 94.136047%, 94.136047%)" offset="0.835938"/><stop stop-opacity="1" stop-color="rgb(94.40918%, 94.40918%, 94.40918%)" offset="0.84375"/><stop stop-opacity="1" stop-color="rgb(94.682312%, 94.682312%, 94.682312%)" offset="0.851562"/><stop stop-opacity="1" stop-color="rgb(94.953918%, 94.953918%, 94.953918%)" offset="0.859375"/><stop stop-opacity="1" stop-color="rgb(95.227051%, 95.227051%, 95.227051%)" offset="0.867188"/><stop stop-opacity="1" stop-color="rgb(95.500183%, 95.500183%, 95.500183%)" offset="0.875"/><stop stop-opacity="1" stop-color="rgb(95.773315%, 95.773315%, 95.773315%)" offset="0.882812"/><stop stop-opacity="1" stop-color="rgb(96.044922%, 96.044922%, 96.044922%)" offset="0.890625"/><stop stop-opacity="1" stop-color="rgb(96.318054%, 96.318054%, 96.318054%)" offset="0.898438"/><stop stop-opacity="1" stop-color="rgb(96.591187%, 96.591187%, 96.591187%)" offset="0.90625"/><stop stop-opacity="1" stop-color="rgb(96.862793%, 96.862793%, 96.862793%)" offset="0.914062"/><stop stop-opacity="1" stop-color="rgb(97.135925%, 97.135925%, 97.135925%)" offset="0.921875"/><stop stop-opacity="1" stop-color="rgb(97.409058%, 97.409058%, 97.409058%)" offset="0.929688"/><stop stop-opacity="1" stop-color="rgb(97.680664%, 97.680664%, 97.680664%)" offset="0.9375"/><stop stop-opacity="1" stop-color="rgb(97.953796%, 97.953796%, 97.953796%)" offset="0.945312"/><stop stop-opacity="1" stop-color="rgb(98.226929%, 98.226929%, 98.226929%)" offset="0.953125"/><stop stop-opacity="1" stop-color="rgb(98.498535%, 98.498535%, 98.498535%)" offset="0.960938"/><stop stop-opacity="1" stop-color="rgb(98.771667%, 98.771667%, 98.771667%)" offset="0.96875"/><stop stop-opacity="1" stop-color="rgb(99.0448%, 99.0448%, 99.0448%)" offset="0.976562"/><stop stop-opacity="1" stop-color="rgb(99.316406%, 99.316406%, 99.316406%)" offset="0.984375"/><stop stop-opacity="1" stop-color="rgb(99.589539%, 99.589539%, 99.589539%)" offset="0.992188"/><stop stop-opacity="1" stop-color="rgb(99.862671%, 99.862671%, 99.862671%)" offset="1"/></linearGradient><clipPath id="3f724b3984"><path d="M 0.234375 0.738281 L 37.007812 0.738281 L 37.007812 35.527344 L 0.234375 35.527344 Z M 0.234375 0.738281 " clip-rule="nonzero"/></clipPath><clipPath id="ee4c7b612a"><path d="M 5.671875 0.738281 L 31.570312 0.738281 C 34.574219 0.738281 37.007812 3.171875 37.007812 6.175781 L 37.007812 30.089844 C 37.007812 33.09375 34.574219 35.527344 31.570312 35.527344 L 5.671875 35.527344 C 2.667969 35.527344 0.234375 33.09375 0.234375 30.089844 L 0.234375 6.175781 C 0.234375 3.171875 2.667969 0.738281 5.671875 0.738281 Z M 5.671875 0.738281 " clip-rule="nonzero"/></clipPath><clipPath id="bf0858a11d"><path d="M 6.660156 2.191406 L 27 2.191406 L 27 32.535156 L 6.660156 32.535156 Z M 6.660156 2.191406 " clip-rule="nonzero"/></clipPath><clipPath id="fbfd108655"><path d="M 6.660156 3 L 26 3 L 26 32.535156 L 6.660156 32.535156 Z M 6.660156 3 " clip-rule="nonzero"/></clipPath><clipPath id="5b057abee3"><path d="M 6.660156 2.191406 L 27.386719 2.191406 L 27.386719 32.535156 L 6.660156 32.535156 Z M 6.660156 2.191406 " clip-rule="nonzero"/></clipPath></defs><g clip-path="url(#311335912a)"><g clip-path="url(#a0cc5d8711)"><path fill="url(#2b14a4450a)" d="M 0 0.519531 L 0 35.378906 L 36.851562 35.378906 L 36.851562 0.519531 Z M 0 0.519531 " fill-rule="nonzero"/></g></g><g clip-path="url(#3f724b3984)"><g clip-path="url(#ee4c7b612a)"><path fill="#435b70" d="M 0.234375 0.738281 L 37.058594 0.738281 L 37.058594 35.527344 L 0.234375 35.527344 Z M 0.234375 0.738281 " fill-opacity="1" fill-rule="nonzero"/></g></g><g clip-path="url(#bf0858a11d)"><path fill="#926f69" d="M 24.867188 29.929688 C 24.867188 29.929688 26.074219 30.023438 25.929688 30.570312 C 25.789062 31.113281 25.648438 31.585938 24.4375 31.5625 C 23.226562 31.539062 22.03125 31.515625 22.03125 31.515625 C 22.03125 31.515625 21.722656 32.445312 20.859375 32.445312 C 19.996094 32.445312 19.628906 32.394531 19.347656 31.699219 L 18.605469 31.714844 C 18.605469 31.714844 18.289062 32.605469 17.269531 32.542969 C 16.25 32.484375 15.695312 32.242188 15.820312 31.773438 C 15.820312 31.773438 10.910156 31.605469 10.796875 31.554688 C 10.679688 31.503906 10.445312 30.3125 11.316406 30.148438 C 11.316406 30.148438 11.113281 29.359375 10.273438 28.6875 C 9.433594 28.019531 8.246094 25.136719 10.226562 23.613281 C 10.582031 23.335938 10.90625 23.089844 11.195312 22.859375 L 10.160156 23.613281 C 6.824219 20.667969 6.769531 17.371094 6.925781 17.601562 C 8.058594 19.28125 8.183594 19.109375 8.183594 19.109375 C 8.183594 19.109375 7.160156 16.398438 9.621094 15.140625 C 12.085938 13.886719 13.527344 16.546875 13.527344 16.546875 C 9.925781 17.738281 11.507812 22.007812 11.6875 22.457031 C 12.675781 21.597656 13.21875 20.832031 13.613281 19.277344 C 14.167969 17.082031 14.550781 16.042969 14.550781 16.042969 L 12.222656 14.015625 L 13.058594 13.914062 L 12.070312 13.144531 L 14.003906 9.851562 L 15.910156 7.066406 L 14.003906 9.851562 C 14.003906 9.851562 13.96875 3.691406 15.257812 2.882812 C 15.257812 2.882812 15.496094 2.5625 17.25 6.617188 L 16.894531 6.734375 L 19.847656 6.429688 C 19.863281 4.285156 20.683594 2.375 20.683594 2.375 C 23.363281 3.394531 23.617188 8.453125 23.617188 8.453125 L 23.398438 8.277344 C 24.460938 9.328125 26.25 11.097656 26.410156 11.757812 C 26.410156 11.757812 25.828125 12.71875 25.78125 12.742188 C 25.734375 12.765625 26.398438 12.765625 26.398438 12.765625 C 26.398438 12.765625 24.867188 14.863281 24.394531 15.410156 L 24.789062 22.546875 C 24.789062 22.546875 27.261719 25.027344 26.953125 26.238281 C 26.644531 27.441406 25.292969 29.574219 24.867188 29.929688 Z M 24.867188 29.929688 " fill-opacity="1" fill-rule="nonzero"/></g><g clip-path="url(#fbfd108655)"><path fill="#f6e9e1" d="M 15.085938 8.09375 C 15.085938 8.09375 14.667969 5.53125 15.355469 4.519531 C 15.355469 4.484375 15.90625 6.53125 16.476562 6.777344 C 16.476562 6.777344 15.996094 6.828125 15.953125 6.949219 C 15.910156 7.066406 15.085938 8.09375 15.085938 8.09375 Z M 13.191406 16.128906 C 13.191406 16.128906 10.527344 12.613281 8.183594 16.78125 C 7.957031 17.574219 8.058594 18.339844 8.183594 19.109375 L 6.976562 17.636719 C 6.976562 17.636719 7.292969 20.953125 9.019531 22.359375 C 9.023438 22.359375 7.160156 16.195312 13.191406 16.128906 Z M 22.660156 7.53125 C 22.75 5.597656 21.277344 3.511719 21.386719 3.925781 C 21.492188 4.332031 21.011719 6.265625 21.011719 6.265625 Z M 24.585938 23.902344 C 24.574219 23.890625 24.574219 23.914062 24.582031 23.964844 C 24.582031 23.941406 24.582031 23.921875 24.585938 23.902344 Z M 25.839844 31.222656 C 25.675781 31.339844 23.65625 31.847656 22.035156 31.515625 C 22.035156 31.515625 21.75 32.25 21.585938 32.324219 C 21.417969 32.394531 19.832031 32.65625 19.511719 32.285156 C 19.191406 31.917969 19.351562 31.699219 19.351562 31.699219 L 18.609375 31.714844 C 18.609375 31.714844 18.726562 32.582031 17.542969 32.554688 C 16.359375 32.53125 16.097656 32.398438 15.820312 31.773438 L 10.730469 31.585938 C 10.730469 31.585938 10.320312 30.257812 11.316406 30.148438 L 11.003906 29.5 C 11.003906 29.5 11.59375 26.5625 11.691406 25.140625 C 11.785156 23.71875 13.242188 18.636719 16.589844 21.320312 C 16.589844 21.320312 16.925781 21.671875 17.210938 21.503906 C 17.496094 21.339844 15.675781 18.714844 16.027344 16.921875 C 16.027344 16.921875 15.316406 16.007812 15.117188 15.558594 C 14.984375 15.171875 14.769531 14.25 15.132812 13.648438 C 15.507812 13.023438 15.015625 12.792969 14.816406 12.558594 C 14.617188 12.324219 14.316406 9.859375 16.023438 8.519531 C 17.730469 7.183594 19.105469 8.605469 19.238281 9.007812 C 19.375 9.410156 19.605469 9.207031 19.675781 9.039062 C 19.742188 8.875 20.488281 6.996094 22.375 8.101562 C 24.355469 9.261719 24.449219 12.070312 23.578125 12.675781 C 23.578125 12.675781 25.285156 14.566406 23.359375 16.308594 C 23.359375 16.308594 22.503906 20.078125 21.535156 21.214844 C 21.535156 21.214844 21.199219 21.550781 21.386719 21.804688 C 21.570312 22.054688 21.835938 21.769531 21.953125 21.6875 C 22.070312 21.601562 22.859375 20.949219 24.601562 21.9375 C 24.601562 21.9375 24.628906 24.121094 24.34375 24.976562 C 24.214844 25.363281 24.03125 26.027344 23.808594 26.738281 C 24.203125 25.644531 24.523438 24.617188 24.578125 23.964844 C 24.617188 24.28125 24.914062 25.699219 25.253906 26.898438 C 25.523438 27.851562 25.90625 28.304688 25.90625 28.304688 L 25.167969 29.394531 L 24.863281 29.925781 C 24.863281 29.925781 25.734375 29.847656 25.835938 30.347656 C 25.941406 30.851562 26.011719 31.105469 25.839844 31.222656 Z M 20.691406 10.824219 C 20.691406 10.824219 19.375 10.414062 18.519531 10.925781 C 18.519531 10.925781 19.207031 11.757812 19.609375 11.714844 C 20.011719 11.671875 20.65625 10.960938 20.691406 10.824219 Z M 22.988281 28.875 C 22.953125 28.949219 22.910156 29.015625 22.875 29.078125 C 22.441406 29.78125 22.210938 30.648438 22.105469 31.136719 C 22.261719 30.675781 22.605469 29.839844 22.988281 28.875 Z M 22.988281 28.875 " fill-opacity="1" fill-rule="nonzero"/></g><path fill="#dc9274" d="M 21 13.480469 C 21 13.480469 20.816406 14.953125 19.679688 15.070312 C 18.539062 15.1875 18.171875 13.597656 18.171875 13.597656 L 19.59375 12.925781 Z M 21 13.480469 " fill-opacity="1" fill-rule="nonzero"/><g clip-path="url(#5b057abee3)"><path fill="#92756a" d="M 26.382812 24.179688 C 25.773438 23.203125 24.980469 22.496094 24.898438 22.421875 C 24.90625 22.257812 24.902344 22.132812 24.878906 22.066406 C 24.796875 21.785156 24.644531 17.980469 24.558594 15.457031 C 24.824219 15.128906 25.144531 14.730469 25.441406 14.355469 C 25.742188 13.980469 26.023438 13.617188 26.238281 13.339844 C 26.621094 12.835938 26.621094 12.828125 26.621094 12.761719 C 26.621094 12.710938 26.601562 12.664062 26.5625 12.632812 C 26.488281 12.5625 26.402344 12.574219 26.136719 12.605469 C 26.113281 12.609375 26.09375 12.613281 26.066406 12.617188 C 26.269531 12.375 26.546875 12.011719 26.566406 11.777344 C 26.570312 11.75 26.566406 11.722656 26.558594 11.703125 C 26.257812 10.917969 24.746094 9.359375 24.109375 8.722656 C 23.996094 8.613281 23.882812 8.503906 23.769531 8.390625 C 23.75 8.125 23.664062 6.996094 23.304688 5.753906 C 23.070312 4.929688 22.765625 4.226562 22.402344 3.667969 C 21.941406 2.953125 21.378906 2.46875 20.734375 2.222656 C 20.648438 2.191406 20.554688 2.230469 20.519531 2.3125 C 20.488281 2.386719 19.714844 4.214844 19.671875 6.316406 C 19.371094 6.34375 19.035156 6.371094 18.6875 6.410156 C 18.636719 6.417969 18.027344 6.476562 17.394531 6.550781 C 15.765625 2.765625 15.425781 2.730469 15.300781 2.714844 C 15.246094 2.707031 15.199219 2.722656 15.160156 2.75 C 14.578125 3.128906 14.1875 4.40625 13.980469 6.65625 C 13.84375 8.125 13.835938 9.527344 13.835938 9.804688 C 13.214844 10.78125 12.027344 12.71875 11.933594 13.078125 C 11.914062 13.152344 11.925781 13.210938 11.960938 13.257812 C 12.03125 13.351562 12.402344 13.621094 12.695312 13.804688 C 12.539062 13.824219 12.371094 13.835938 12.3125 13.824219 C 12.257812 13.804688 12.195312 13.816406 12.148438 13.851562 C 12.101562 13.894531 12.078125 13.953125 12.089844 14.015625 C 12.101562 14.070312 12.105469 14.105469 12.558594 14.539062 C 12.738281 14.710938 13.105469 15.054688 13.566406 15.453125 C 13.804688 15.65625 14.070312 15.878906 14.347656 16.089844 C 14.261719 16.328125 13.925781 17.320312 13.445312 19.234375 C 13.085938 20.652344 12.613281 21.382812 11.753906 22.167969 C 11.527344 21.503906 11.027344 19.714844 11.664062 18.316406 C 12.011719 17.550781 12.652344 17.007812 13.578125 16.703125 C 13.621094 16.691406 13.664062 16.652344 13.679688 16.605469 C 13.699219 16.558594 13.695312 16.507812 13.671875 16.464844 C 13.65625 16.4375 13.289062 15.761719 12.597656 15.238281 C 11.949219 14.746094 10.894531 14.296875 9.546875 14.988281 C 8.203125 15.675781 7.863281 16.777344 7.8125 17.582031 C 7.785156 17.984375 7.828125 18.351562 7.882812 18.628906 C 7.707031 18.417969 7.449219 18.074219 7.0625 17.503906 C 7.019531 17.441406 6.953125 17.410156 6.882812 17.421875 C 6.847656 17.429688 6.761719 17.453125 6.726562 17.566406 C 6.667969 17.777344 6.738281 18.644531 7.1875 19.777344 C 7.578125 20.761719 8.375 22.222656 9.933594 23.636719 C 9.316406 24.195312 8.984375 24.953125 8.980469 25.84375 C 8.96875 27.082031 9.589844 28.355469 10.171875 28.816406 C 10.738281 29.269531 10.996094 29.785156 11.097656 30.035156 C 10.765625 30.164062 10.5625 30.457031 10.515625 30.875 C 10.488281 31.121094 10.523438 31.617188 10.726562 31.707031 C 10.777344 31.730469 10.828125 31.75 13.28125 31.847656 C 14.351562 31.890625 15.417969 31.929688 15.644531 31.9375 C 15.847656 32.347656 15.910156 32.429688 15.960938 32.460938 C 16.089844 32.542969 16.683594 32.636719 17.179688 32.65625 C 17.261719 32.660156 17.34375 32.664062 17.417969 32.664062 C 18.046875 32.664062 18.460938 32.542969 18.644531 32.304688 C 18.75 32.164062 18.789062 32.019531 18.78125 31.875 C 18.949219 31.863281 19.113281 31.859375 19.214844 31.859375 C 19.226562 31.964844 19.253906 32.074219 19.304688 32.171875 C 19.421875 32.394531 19.640625 32.539062 19.953125 32.605469 C 19.957031 32.605469 19.960938 32.605469 19.964844 32.609375 C 20.097656 32.636719 20.257812 32.652344 20.429688 32.652344 C 21.714844 32.652344 22.019531 32.125 22.121094 31.683594 C 22.414062 31.6875 22.707031 31.703125 22.988281 31.714844 C 23.378906 31.734375 23.753906 31.75 24.101562 31.75 C 25.089844 31.75 25.847656 31.613281 26.050781 30.957031 C 26.15625 30.601562 26.140625 30.320312 25.992188 30.113281 C 25.765625 29.792969 25.304688 29.769531 25.042969 29.761719 C 25.214844 29.503906 25.695312 28.875 26.554688 27.753906 C 27.300781 26.789062 27.238281 25.558594 26.382812 24.179688 Z M 20.773438 2.59375 C 22.75 3.503906 23.277344 6.839844 23.40625 8.035156 C 23.207031 7.847656 23.011719 7.667969 22.824219 7.5 C 22.859375 6.5625 22.546875 5.636719 22.277344 5.023438 C 22 4.390625 21.640625 3.808594 21.476562 3.726562 C 21.410156 3.691406 21.332031 3.699219 21.277344 3.746094 C 21.234375 3.777344 21.1875 3.847656 21.222656 3.96875 C 21.292969 4.238281 21.03125 5.496094 20.851562 6.226562 C 20.851562 6.234375 20.847656 6.238281 20.847656 6.242188 C 20.726562 6.246094 20.578125 6.253906 20.382812 6.265625 C 20.273438 6.269531 20.148438 6.28125 20.015625 6.289062 C 20.054688 4.605469 20.589844 3.074219 20.773438 2.59375 Z M 21.300781 6.292969 C 21.277344 6.273438 21.25 6.257812 21.1875 6.25 C 21.269531 5.921875 21.496094 4.96875 21.554688 4.34375 C 21.894531 4.90625 22.445312 6.070312 22.492188 7.203125 C 21.980469 6.765625 21.554688 6.433594 21.300781 6.292969 Z M 15.277344 3.082031 C 15.417969 3.230469 15.878906 3.875 17.054688 6.589844 C 16.890625 6.609375 16.730469 6.632812 16.585938 6.648438 C 16.574219 6.640625 16.558594 6.632812 16.542969 6.625 C 16.441406 6.582031 16.070312 6.300781 15.535156 4.539062 C 15.53125 4.519531 15.523438 4.5 15.519531 4.488281 C 15.476562 4.335938 15.351562 4.347656 15.328125 4.355469 C 15.277344 4.363281 15.238281 4.390625 15.214844 4.429688 C 14.5 5.488281 14.902344 8.015625 14.921875 8.125 C 14.921875 8.128906 14.925781 8.132812 14.925781 8.136719 C 14.699219 8.46875 14.445312 8.851562 14.175781 9.269531 C 14.1875 8.675781 14.21875 7.699219 14.316406 6.691406 C 14.550781 4.125 14.996094 3.328125 15.277344 3.082031 Z M 15.207031 7.726562 C 15.136719 7.109375 15.03125 5.792969 15.320312 4.96875 C 15.601562 5.835938 15.878906 6.425781 16.144531 6.726562 C 16.085938 6.738281 16.035156 6.75 16.011719 6.765625 C 15.945312 6.792969 15.824219 6.84375 15.207031 7.726562 Z M 7.078125 18.117188 C 7.894531 19.277344 8.070312 19.28125 8.164062 19.285156 C 8.226562 19.285156 8.285156 19.257812 8.316406 19.210938 C 8.351562 19.164062 8.363281 19.105469 8.339844 19.050781 C 8.335938 19.042969 8.097656 18.394531 8.144531 17.605469 C 8.210938 16.558594 8.734375 15.78125 9.699219 15.289062 C 10.65625 14.804688 11.5625 14.875 12.390625 15.5 C 12.824219 15.828125 13.128906 16.234375 13.273438 16.457031 C 12.367188 16.804688 11.722656 17.382812 11.359375 18.183594 C 10.621094 19.808594 11.273438 21.835938 11.488281 22.40625 C 11.136719 22.703125 10.730469 23.019531 10.25 23.386719 L 10.199219 23.425781 C 7.859375 21.320312 7.210938 19.070312 7.078125 18.117188 Z M 21.84375 31.371094 C 21.792969 31.738281 21.734375 32.140625 21.015625 32.277344 C 21.023438 32.09375 21.078125 31.785156 21.140625 31.527344 C 21.160156 31.441406 21.105469 31.347656 21.015625 31.324219 C 20.925781 31.304688 20.835938 31.359375 20.8125 31.449219 C 20.777344 31.597656 20.679688 32.023438 20.683594 32.3125 C 20.605469 32.316406 20.527344 32.320312 20.4375 32.320312 C 20.351562 32.320312 20.257812 32.316406 20.164062 32.304688 C 20.183594 32.105469 20.289062 31.757812 20.375 31.535156 C 20.410156 31.449219 20.367188 31.351562 20.28125 31.320312 C 20.195312 31.285156 20.097656 31.328125 20.066406 31.414062 C 20.027344 31.511719 19.882812 31.902344 19.839844 32.21875 C 19.742188 32.171875 19.664062 32.105469 19.613281 32.019531 C 19.46875 31.75 19.648438 31.320312 19.75 31.164062 C 19.773438 31.132812 19.808594 31.105469 19.851562 31.070312 C 20.214844 30.78125 20.765625 30.347656 20.796875 23.699219 C 20.796875 23.605469 20.722656 23.527344 20.632812 23.527344 C 20.539062 23.527344 20.464844 23.601562 20.464844 23.695312 C 20.433594 30.179688 19.921875 30.585938 19.648438 30.804688 C 19.589844 30.847656 19.53125 30.898438 19.476562 30.976562 C 19.414062 31.074219 19.304688 31.28125 19.257812 31.523438 C 19.15625 31.523438 18.984375 31.527344 18.707031 31.542969 C 18.574219 31.265625 18.332031 31.011719 18.164062 30.839844 C 18.097656 30.773438 18.039062 30.710938 18.007812 30.671875 C 17.882812 30.296875 17.546875 26 17.367188 23.355469 C 17.359375 23.261719 17.28125 23.191406 17.1875 23.195312 C 17.097656 23.203125 17.027344 23.28125 17.03125 23.375 C 17.03125 23.394531 17.15625 25.183594 17.300781 26.984375 C 17.597656 30.667969 17.679688 30.78125 17.726562 30.851562 C 17.769531 30.914062 17.839844 30.984375 17.925781 31.074219 C 18.277344 31.441406 18.605469 31.824219 18.394531 32.097656 C 18.328125 32.183594 18.179688 32.25 17.96875 32.285156 C 17.910156 31.773438 17.660156 31.398438 17.648438 31.382812 C 17.59375 31.308594 17.488281 31.289062 17.414062 31.339844 C 17.335938 31.394531 17.316406 31.5 17.367188 31.574219 C 17.371094 31.578125 17.582031 31.902344 17.632812 32.324219 C 17.511719 32.332031 17.378906 32.332031 17.238281 32.328125 C 17.1875 32.324219 17.132812 32.324219 17.082031 32.320312 C 17.0625 32.179688 17.011719 31.9375 16.882812 31.511719 C 16.859375 31.421875 16.765625 31.367188 16.675781 31.398438 C 16.585938 31.421875 16.535156 31.515625 16.5625 31.605469 C 16.628906 31.84375 16.699219 32.121094 16.734375 32.289062 C 16.453125 32.253906 16.238281 32.210938 16.160156 32.183594 C 15.996094 31.941406 15.242188 30.265625 14.738281 29.152344 C 14.375 28.355469 14.0625 27.664062 13.957031 27.460938 C 13.824219 27.203125 13.542969 26.511719 13.351562 25.558594 C 13.113281 24.378906 13.085938 23.210938 13.265625 22.09375 C 13.28125 22 13.21875 21.914062 13.128906 21.902344 C 13.035156 21.886719 12.949219 21.949219 12.9375 22.039062 C 12.515625 24.660156 13.316406 26.953125 13.664062 27.617188 C 13.765625 27.816406 14.074219 28.5 14.433594 29.292969 C 14.941406 30.414062 15.273438 31.136719 15.496094 31.601562 C 13.757812 31.542969 11.339844 31.445312 10.910156 31.40625 C 10.867188 31.28125 10.808594 30.9375 10.929688 30.65625 C 11.011719 30.46875 11.152344 30.359375 11.359375 30.320312 C 11.40625 30.308594 11.449219 30.28125 11.472656 30.246094 C 11.496094 30.207031 11.503906 30.160156 11.492188 30.113281 C 11.484375 30.078125 11.269531 29.265625 10.398438 28.566406 C 9.945312 28.203125 9.320312 27.058594 9.332031 25.855469 C 9.34375 24.972656 9.679688 24.265625 10.347656 23.753906 L 10.472656 23.660156 C 10.949219 23.289062 11.359375 22.972656 11.722656 22.667969 C 11.742188 22.667969 11.765625 22.664062 11.78125 22.65625 C 11.839844 22.628906 11.875 22.582031 11.882812 22.527344 C 12.847656 21.675781 13.398438 20.886719 13.792969 19.324219 C 14.214844 17.640625 14.53125 16.660156 14.648438 16.308594 C 15.128906 16.660156 15.609375 16.960938 15.992188 17.085938 C 16.011719 17.09375 16.027344 17.09375 16.042969 17.09375 C 16.113281 17.09375 16.179688 17.050781 16.203125 16.980469 C 16.234375 16.890625 16.1875 16.800781 16.097656 16.769531 C 15.128906 16.445312 13.320312 14.804688 12.664062 14.15625 C 12.691406 14.152344 12.714844 14.152344 12.734375 14.148438 C 13.152344 14.097656 13.21875 14.019531 13.253906 13.941406 C 13.289062 13.859375 13.269531 13.738281 13.136719 13.675781 C 12.9375 13.574219 12.464844 13.242188 12.300781 13.105469 C 12.429688 12.792969 13.105469 11.617188 14.097656 10.050781 C 15.300781 8.148438 16.011719 7.175781 16.164062 7.074219 C 16.300781 7.027344 17.273438 6.894531 18.640625 6.753906 C 20.082031 6.609375 20.976562 6.558594 21.140625 6.582031 C 22.082031 7.078125 25.753906 10.617188 26.253906 11.78125 C 26.199219 11.980469 25.828125 12.4375 25.632812 12.632812 C 25.535156 12.730469 25.574219 12.832031 25.585938 12.859375 C 25.652344 13 25.820312 12.988281 26.140625 12.949219 C 25.597656 13.667969 24.070312 15.585938 23.820312 15.835938 C 23.753906 15.902344 23.753906 16.007812 23.820312 16.074219 C 23.882812 16.140625 23.992188 16.140625 24.054688 16.074219 C 24.097656 16.03125 24.171875 15.949219 24.257812 15.847656 C 24.3125 17.347656 24.476562 21.800781 24.582031 22.164062 C 24.621094 22.296875 24.542969 23.164062 24.296875 24.441406 C 24.042969 25.761719 23.738281 26.832031 23.480469 27.320312 C 22.878906 28.457031 21.953125 30.789062 21.875 31.28125 C 21.851562 31.308594 21.847656 31.339844 21.84375 31.371094 Z M 24.960938 29.308594 C 24.6875 29.683594 24.632812 29.789062 24.652344 29.902344 C 24.667969 29.992188 24.734375 30.035156 24.761719 30.054688 C 24.820312 30.09375 24.890625 30.09375 25.015625 30.101562 C 25.214844 30.105469 25.589844 30.121094 25.726562 30.3125 C 25.808594 30.429688 25.8125 30.613281 25.738281 30.863281 C 25.546875 31.5 24.371094 31.449219 23.015625 31.386719 C 22.746094 31.375 22.46875 31.363281 22.1875 31.351562 C 22.1875 31.347656 22.191406 31.339844 22.191406 31.328125 C 22.257812 30.90625 23.144531 28.632812 23.761719 27.472656 C 24.15625 26.730469 24.484375 25.148438 24.609375 24.5 C 24.691406 24.078125 24.808594 23.394531 24.867188 22.847656 C 25.144531 23.121094 25.675781 23.671875 26.101562 24.359375 C 26.886719 25.625 26.953125 26.699219 26.300781 27.554688 C 25.597656 28.460938 25.195312 28.992188 24.960938 29.308594 Z M 21.949219 12.078125 C 21.859375 12.097656 21.804688 12.1875 21.824219 12.28125 C 21.921875 12.707031 21.882812 12.992188 21.710938 13.128906 C 21.328125 13.429688 20.253906 13.074219 19.664062 12.777344 C 19.617188 12.753906 19.558594 12.753906 19.507812 12.78125 C 17.734375 13.761719 17.238281 13.609375 17.109375 13.5 C 16.917969 13.335938 17.066406 12.910156 17.070312 12.902344 C 17.097656 12.816406 17.054688 12.71875 16.96875 12.6875 C 16.882812 12.652344 16.785156 12.699219 16.753906 12.785156 C 16.746094 12.8125 16.519531 13.429688 16.890625 13.75 C 17.015625 13.859375 17.1875 13.914062 17.410156 13.914062 C 17.589844 13.914062 17.804688 13.878906 18.054688 13.804688 C 18.105469 13.964844 18.199219 14.214844 18.351562 14.464844 C 18.664062 14.980469 19.082031 15.242188 19.558594 15.242188 C 19.605469 15.242188 19.648438 15.242188 19.691406 15.238281 C 20.808594 15.125 21.097656 13.894531 21.15625 13.574219 C 21.445312 13.589844 21.722656 13.546875 21.921875 13.386719 C 22.207031 13.164062 22.285156 12.761719 22.152344 12.199219 C 22.128906 12.113281 22.039062 12.058594 21.949219 12.078125 Z M 19.660156 14.90625 C 18.863281 14.988281 18.488281 14.054688 18.371094 13.695312 C 18.722656 13.5625 19.128906 13.371094 19.59375 13.117188 C 19.632812 13.136719 19.679688 13.15625 19.730469 13.179688 L 19.714844 13.761719 C 19.710938 13.851562 19.785156 13.929688 19.878906 13.933594 C 19.878906 13.933594 19.882812 13.933594 19.882812 13.933594 C 19.96875 13.933594 20.046875 13.863281 20.046875 13.769531 L 20.058594 13.3125 C 20.28125 13.398438 20.546875 13.484375 20.816406 13.53125 C 20.765625 13.816406 20.515625 14.820312 19.660156 14.90625 Z M 17.914062 11.117188 C 17.941406 11.183594 18.003906 11.21875 18.070312 11.21875 C 18.089844 11.21875 18.113281 11.214844 18.132812 11.207031 C 18.140625 11.203125 18.257812 11.15625 18.441406 11.09375 C 18.632812 11.3125 19.164062 11.882812 19.582031 11.882812 C 19.597656 11.882812 19.613281 11.882812 19.628906 11.878906 C 19.894531 11.851562 20.199219 11.617188 20.402344 11.429688 C 20.417969 11.414062 20.695312 11.15625 20.808594 10.964844 C 20.851562 10.992188 20.894531 11.019531 20.929688 11.050781 C 21 11.109375 21.109375 11.097656 21.167969 11.023438 C 21.226562 10.953125 21.214844 10.847656 21.140625 10.789062 C 20.171875 9.996094 18.09375 10.863281 18.007812 10.898438 C 17.917969 10.933594 17.878906 11.03125 17.914062 11.117188 Z M 20.488281 10.839844 C 20.339844 11.046875 19.859375 11.519531 19.589844 11.546875 C 19.414062 11.566406 19.054688 11.261719 18.792969 10.980469 C 19.289062 10.84375 19.96875 10.710938 20.488281 10.839844 Z M 17.1875 10.199219 C 17.171875 9.773438 17.273438 9.347656 17.527344 9.324219 C 17.792969 9.300781 17.996094 9.71875 17.980469 10.15625 C 17.960938 10.585938 17.902344 10.921875 17.605469 10.917969 C 17.417969 10.910156 17.199219 10.6875 17.1875 10.199219 Z M 20.976562 9.988281 C 20.925781 9.5625 20.984375 9.132812 21.234375 9.082031 C 21.496094 9.035156 21.738281 9.4375 21.761719 9.875 C 21.78125 10.300781 21.757812 10.644531 21.457031 10.664062 C 21.273438 10.675781 21.035156 10.46875 20.976562 9.988281 Z M 20.976562 9.988281 " fill-opacity="1" fill-rule="nonzero"/></g></svg>