<svg xmlns="http://www.w3.org/2000/svg" xmlns:xlink="http://www.w3.org/1999/xlink" width="50" zoomAndPan="magnify" viewBox="0 0 37.5 37.499999" height="50" preserveAspectRatio="xMidYMid meet" version="1.0"><defs><clipPath id="2d1f670823"><path d="M 0 0.519531 L 36.851562 0.519531 L 36.851562 35.378906 L 0 35.378906 Z M 0 0.519531 " clip-rule="nonzero"/></clipPath><clipPath id="e3f4439851"><path d="M 18.425781 0.519531 C 8.25 0.519531 0 8.320312 0 17.949219 C 0 27.574219 8.25 35.378906 18.425781 35.378906 C 28.601562 35.378906 36.851562 27.574219 36.851562 17.949219 C 36.851562 8.320312 28.601562 0.519531 18.425781 0.519531 Z M 18.425781 0.519531 " clip-rule="nonzero"/></clipPath><linearGradient x1="0.0018158" gradientTransform="matrix(0.136173, 0, 0, 0.136173, -0.000246762, 0.518094)" y1="128" x2="270.612992" gradientUnits="userSpaceOnUse" y2="128" id="1938525fb6"><stop stop-opacity="1" stop-color="rgb(65.100098%, 65.100098%, 65.100098%)" offset="0"/><stop stop-opacity="1" stop-color="rgb(65.235901%, 65.235901%, 65.235901%)" offset="0.0078125"/><stop stop-opacity="1" stop-color="rgb(65.507507%, 65.507507%, 65.507507%)" offset="0.015625"/><stop stop-opacity="1" stop-color="rgb(65.78064%, 65.78064%, 65.78064%)" offset="0.0234375"/><stop stop-opacity="1" stop-color="rgb(66.053772%, 66.053772%, 66.053772%)" offset="0.03125"/><stop stop-opacity="1" stop-color="rgb(66.325378%, 66.325378%, 66.325378%)" offset="0.0390625"/><stop stop-opacity="1" stop-color="rgb(66.598511%, 66.598511%, 66.598511%)" offset="0.046875"/><stop stop-opacity="1" stop-color="rgb(66.871643%, 66.871643%, 66.871643%)" offset="0.0546875"/><stop stop-opacity="1" stop-color="rgb(67.14325%, 67.14325%, 67.14325%)" offset="0.0625"/><stop stop-opacity="1" stop-color="rgb(67.416382%, 67.416382%, 67.416382%)" offset="0.0703125"/><stop stop-opacity="1" stop-color="rgb(67.689514%, 67.689514%, 67.689514%)" offset="0.078125"/><stop stop-opacity="1" stop-color="rgb(67.961121%, 67.961121%, 67.961121%)" offset="0.0859375"/><stop stop-opacity="1" stop-color="rgb(68.234253%, 68.234253%, 68.234253%)" offset="0.09375"/><stop stop-opacity="1" stop-color="rgb(68.507385%, 68.507385%, 68.507385%)" offset="0.101562"/><stop stop-opacity="1" stop-color="rgb(68.780518%, 68.780518%, 68.780518%)" offset="0.109375"/><stop stop-opacity="1" stop-color="rgb(69.052124%, 69.052124%, 69.052124%)" offset="0.117187"/><stop stop-opacity="1" stop-color="rgb(69.325256%, 69.325256%, 69.325256%)" offset="0.125"/><stop stop-opacity="1" stop-color="rgb(69.598389%, 69.598389%, 69.598389%)" offset="0.132812"/><stop stop-opacity="1" stop-color="rgb(69.869995%, 69.869995%, 69.869995%)" offset="0.140625"/><stop stop-opacity="1" stop-color="rgb(70.143127%, 70.143127%, 70.143127%)" offset="0.148438"/><stop stop-opacity="1" stop-color="rgb(70.41626%, 70.41626%, 70.41626%)" offset="0.15625"/><stop stop-opacity="1" stop-color="rgb(70.687866%, 70.687866%, 70.687866%)" offset="0.164062"/><stop stop-opacity="1" stop-color="rgb(70.960999%, 70.960999%, 70.960999%)" offset="0.171875"/><stop stop-opacity="1" stop-color="rgb(71.234131%, 71.234131%, 71.234131%)" offset="0.179687"/><stop stop-opacity="1" stop-color="rgb(71.505737%, 71.505737%, 71.505737%)" offset="0.1875"/><stop stop-opacity="1" stop-color="rgb(71.77887%, 71.77887%, 71.77887%)" offset="0.195312"/><stop stop-opacity="1" stop-color="rgb(72.052002%, 72.052002%, 72.052002%)" offset="0.203125"/><stop stop-opacity="1" stop-color="rgb(72.323608%, 72.323608%, 72.323608%)" offset="0.210937"/><stop stop-opacity="1" stop-color="rgb(72.596741%, 72.596741%, 72.596741%)" offset="0.21875"/><stop stop-opacity="1" stop-color="rgb(72.869873%, 72.869873%, 72.869873%)" offset="0.226562"/><stop stop-opacity="1" stop-color="rgb(73.143005%, 73.143005%, 73.143005%)" offset="0.234375"/><stop stop-opacity="1" stop-color="rgb(73.414612%, 73.414612%, 73.414612%)" offset="0.242187"/><stop stop-opacity="1" stop-color="rgb(73.687744%, 73.687744%, 73.687744%)" offset="0.25"/><stop stop-opacity="1" stop-color="rgb(73.960876%, 73.960876%, 73.960876%)" offset="0.257812"/><stop stop-opacity="1" stop-color="rgb(74.232483%, 74.232483%, 74.232483%)" offset="0.265625"/><stop stop-opacity="1" stop-color="rgb(74.505615%, 74.505615%, 74.505615%)" offset="0.273437"/><stop stop-opacity="1" stop-color="rgb(74.778748%, 74.778748%, 74.778748%)" offset="0.28125"/><stop stop-opacity="1" stop-color="rgb(75.050354%, 75.050354%, 75.050354%)" offset="0.289062"/><stop stop-opacity="1" stop-color="rgb(75.323486%, 75.323486%, 75.323486%)" offset="0.296875"/><stop stop-opacity="1" stop-color="rgb(75.596619%, 75.596619%, 75.596619%)" offset="0.304687"/><stop stop-opacity="1" stop-color="rgb(75.868225%, 75.868225%, 75.868225%)" offset="0.3125"/><stop stop-opacity="1" stop-color="rgb(76.141357%, 76.141357%, 76.141357%)" offset="0.320312"/><stop stop-opacity="1" stop-color="rgb(76.41449%, 76.41449%, 76.41449%)" offset="0.328125"/><stop stop-opacity="1" stop-color="rgb(76.686096%, 76.686096%, 76.686096%)" offset="0.335937"/><stop stop-opacity="1" stop-color="rgb(76.959229%, 76.959229%, 76.959229%)" offset="0.34375"/><stop stop-opacity="1" stop-color="rgb(77.232361%, 77.232361%, 77.232361%)" offset="0.351562"/><stop stop-opacity="1" stop-color="rgb(77.503967%, 77.503967%, 77.503967%)" offset="0.359375"/><stop stop-opacity="1" stop-color="rgb(77.7771%, 77.7771%, 77.7771%)" offset="0.367188"/><stop stop-opacity="1" stop-color="rgb(78.050232%, 78.050232%, 78.050232%)" offset="0.375"/><stop stop-opacity="1" stop-color="rgb(78.323364%, 78.323364%, 78.323364%)" offset="0.382812"/><stop stop-opacity="1" stop-color="rgb(78.594971%, 78.594971%, 78.594971%)" offset="0.390625"/><stop stop-opacity="1" stop-color="rgb(78.868103%, 78.868103%, 78.868103%)" offset="0.398437"/><stop stop-opacity="1" stop-color="rgb(79.141235%, 79.141235%, 79.141235%)" offset="0.40625"/><stop stop-opacity="1" stop-color="rgb(79.412842%, 79.412842%, 79.412842%)" offset="0.414062"/><stop stop-opacity="1" stop-color="rgb(79.685974%, 79.685974%, 79.685974%)" offset="0.421875"/><stop stop-opacity="1" stop-color="rgb(79.959106%, 79.959106%, 79.959106%)" offset="0.429687"/><stop stop-opacity="1" stop-color="rgb(80.230713%, 80.230713%, 80.230713%)" offset="0.4375"/><stop stop-opacity="1" stop-color="rgb(80.503845%, 80.503845%, 80.503845%)" offset="0.445312"/><stop stop-opacity="1" stop-color="rgb(80.776978%, 80.776978%, 80.776978%)" offset="0.453125"/><stop stop-opacity="1" stop-color="rgb(81.048584%, 81.048584%, 81.048584%)" offset="0.460937"/><stop stop-opacity="1" stop-color="rgb(81.321716%, 81.321716%, 81.321716%)" offset="0.46875"/><stop stop-opacity="1" stop-color="rgb(81.594849%, 81.594849%, 81.594849%)" offset="0.476562"/><stop stop-opacity="1" stop-color="rgb(81.866455%, 81.866455%, 81.866455%)" offset="0.484375"/><stop stop-opacity="1" stop-color="rgb(82.139587%, 82.139587%, 82.139587%)" offset="0.492188"/><stop stop-opacity="1" stop-color="rgb(82.41272%, 82.41272%, 82.41272%)" offset="0.5"/><stop stop-opacity="1" stop-color="rgb(82.685852%, 82.685852%, 82.685852%)" offset="0.507812"/><stop stop-opacity="1" stop-color="rgb(82.957458%, 82.957458%, 82.957458%)" offset="0.515625"/><stop stop-opacity="1" stop-color="rgb(83.230591%, 83.230591%, 83.230591%)" offset="0.523438"/><stop stop-opacity="1" stop-color="rgb(83.503723%, 83.503723%, 83.503723%)" offset="0.53125"/><stop stop-opacity="1" stop-color="rgb(83.77533%, 83.77533%, 83.77533%)" offset="0.539062"/><stop stop-opacity="1" stop-color="rgb(84.048462%, 84.048462%, 84.048462%)" offset="0.546875"/><stop stop-opacity="1" stop-color="rgb(84.321594%, 84.321594%, 84.321594%)" offset="0.554688"/><stop stop-opacity="1" stop-color="rgb(84.593201%, 84.593201%, 84.593201%)" offset="0.5625"/><stop stop-opacity="1" stop-color="rgb(84.866333%, 84.866333%, 84.866333%)" offset="0.570312"/><stop stop-opacity="1" stop-color="rgb(85.139465%, 85.139465%, 85.139465%)" offset="0.578125"/><stop stop-opacity="1" stop-color="rgb(85.411072%, 85.411072%, 85.411072%)" offset="0.585938"/><stop stop-opacity="1" stop-color="rgb(85.684204%, 85.684204%, 85.684204%)" offset="0.59375"/><stop stop-opacity="1" stop-color="rgb(85.957336%, 85.957336%, 85.957336%)" offset="0.601562"/><stop stop-opacity="1" stop-color="rgb(86.228943%, 86.228943%, 86.228943%)" offset="0.609375"/><stop stop-opacity="1" stop-color="rgb(86.502075%, 86.502075%, 86.502075%)" offset="0.617188"/><stop stop-opacity="1" stop-color="rgb(86.775208%, 86.775208%, 86.775208%)" offset="0.625"/><stop stop-opacity="1" stop-color="rgb(87.04834%, 87.04834%, 87.04834%)" offset="0.632812"/><stop stop-opacity="1" stop-color="rgb(87.319946%, 87.319946%, 87.319946%)" offset="0.640625"/><stop stop-opacity="1" stop-color="rgb(87.593079%, 87.593079%, 87.593079%)" offset="0.648438"/><stop stop-opacity="1" stop-color="rgb(87.866211%, 87.866211%, 87.866211%)" offset="0.65625"/><stop stop-opacity="1" stop-color="rgb(88.137817%, 88.137817%, 88.137817%)" offset="0.664062"/><stop stop-opacity="1" stop-color="rgb(88.41095%, 88.41095%, 88.41095%)" offset="0.671875"/><stop stop-opacity="1" stop-color="rgb(88.684082%, 88.684082%, 88.684082%)" offset="0.679688"/><stop stop-opacity="1" stop-color="rgb(88.955688%, 88.955688%, 88.955688%)" offset="0.6875"/><stop stop-opacity="1" stop-color="rgb(89.228821%, 89.228821%, 89.228821%)" offset="0.695312"/><stop stop-opacity="1" stop-color="rgb(89.501953%, 89.501953%, 89.501953%)" offset="0.703125"/><stop stop-opacity="1" stop-color="rgb(89.77356%, 89.77356%, 89.77356%)" offset="0.710938"/><stop stop-opacity="1" stop-color="rgb(90.046692%, 90.046692%, 90.046692%)" offset="0.71875"/><stop stop-opacity="1" stop-color="rgb(90.319824%, 90.319824%, 90.319824%)" offset="0.726562"/><stop stop-opacity="1" stop-color="rgb(90.591431%, 90.591431%, 90.591431%)" offset="0.734375"/><stop stop-opacity="1" stop-color="rgb(90.864563%, 90.864563%, 90.864563%)" offset="0.742188"/><stop stop-opacity="1" stop-color="rgb(91.137695%, 91.137695%, 91.137695%)" offset="0.75"/><stop stop-opacity="1" stop-color="rgb(91.410828%, 91.410828%, 91.410828%)" offset="0.757812"/><stop stop-opacity="1" stop-color="rgb(91.682434%, 91.682434%, 91.682434%)" offset="0.765625"/><stop stop-opacity="1" stop-color="rgb(91.955566%, 91.955566%, 91.955566%)" offset="0.773438"/><stop stop-opacity="1" stop-color="rgb(92.228699%, 92.228699%, 92.228699%)" offset="0.78125"/><stop stop-opacity="1" stop-color="rgb(92.500305%, 92.500305%, 92.500305%)" offset="0.789062"/><stop stop-opacity="1" stop-color="rgb(92.773438%, 92.773438%, 92.773438%)" offset="0.796875"/><stop stop-opacity="1" stop-color="rgb(93.04657%, 93.04657%, 93.04657%)" offset="0.804688"/><stop stop-opacity="1" stop-color="rgb(93.318176%, 93.318176%, 93.318176%)" offset="0.8125"/><stop stop-opacity="1" stop-color="rgb(93.591309%, 93.591309%, 93.591309%)" offset="0.820312"/><stop stop-opacity="1" stop-color="rgb(93.864441%, 93.864441%, 93.864441%)" offset="0.828125"/><stop stop-opacity="1" stop-color="rgb(94.136047%, 94.136047%, 94.136047%)" offset="0.835938"/><stop stop-opacity="1" stop-color="rgb(94.40918%, 94.40918%, 94.40918%)" offset="0.84375"/><stop stop-opacity="1" stop-color="rgb(94.682312%, 94.682312%, 94.682312%)" offset="0.851562"/><stop stop-opacity="1" stop-color="rgb(94.953918%, 94.953918%, 94.953918%)" offset="0.859375"/><stop stop-opacity="1" stop-color="rgb(95.227051%, 95.227051%, 95.227051%)" offset="0.867188"/><stop stop-opacity="1" stop-color="rgb(95.500183%, 95.500183%, 95.500183%)" offset="0.875"/><stop stop-opacity="1" stop-color="rgb(95.773315%, 95.773315%, 95.773315%)" offset="0.882812"/><stop stop-opacity="1" stop-color="rgb(96.044922%, 96.044922%, 96.044922%)" offset="0.890625"/><stop stop-opacity="1" stop-color="rgb(96.318054%, 96.318054%, 96.318054%)" offset="0.898438"/><stop stop-opacity="1" stop-color="rgb(96.591187%, 96.591187%, 96.591187%)" offset="0.90625"/><stop stop-opacity="1" stop-color="rgb(96.862793%, 96.862793%, 96.862793%)" offset="0.914062"/><stop stop-opacity="1" stop-color="rgb(97.135925%, 97.135925%, 97.135925%)" offset="0.921875"/><stop stop-opacity="1" stop-color="rgb(97.409058%, 97.409058%, 97.409058%)" offset="0.929688"/><stop stop-opacity="1" stop-color="rgb(97.680664%, 97.680664%, 97.680664%)" offset="0.9375"/><stop stop-opacity="1" stop-color="rgb(97.953796%, 97.953796%, 97.953796%)" offset="0.945312"/><stop stop-opacity="1" stop-color="rgb(98.226929%, 98.226929%, 98.226929%)" offset="0.953125"/><stop stop-opacity="1" stop-color="rgb(98.498535%, 98.498535%, 98.498535%)" offset="0.960938"/><stop stop-opacity="1" stop-color="rgb(98.771667%, 98.771667%, 98.771667%)" offset="0.96875"/><stop stop-opacity="1" stop-color="rgb(99.0448%, 99.0448%, 99.0448%)" offset="0.976562"/><stop stop-opacity="1" stop-color="rgb(99.316406%, 99.316406%, 99.316406%)" offset="0.984375"/><stop stop-opacity="1" stop-color="rgb(99.589539%, 99.589539%, 99.589539%)" offset="0.992188"/><stop stop-opacity="1" stop-color="rgb(99.862671%, 99.862671%, 99.862671%)" offset="1"/></linearGradient><clipPath id="53462b3957"><path d="M 0.234375 0.738281 L 37.007812 0.738281 L 37.007812 35.527344 L 0.234375 35.527344 Z M 0.234375 0.738281 " clip-rule="nonzero"/></clipPath><clipPath id="c78946fa83"><path d="M 5.671875 0.738281 L 31.570312 0.738281 C 34.574219 0.738281 37.007812 3.171875 37.007812 6.175781 L 37.007812 30.089844 C 37.007812 33.09375 34.574219 35.527344 31.570312 35.527344 L 5.671875 35.527344 C 2.667969 35.527344 0.234375 33.09375 0.234375 30.089844 L 0.234375 6.175781 C 0.234375 3.171875 2.667969 0.738281 5.671875 0.738281 Z M 5.671875 0.738281 " clip-rule="nonzero"/></clipPath><clipPath id="7e29cd2d43"><path d="M 7 2.535156 L 32.488281 2.535156 L 32.488281 32.882812 L 7 32.882812 Z M 7 2.535156 " clip-rule="nonzero"/></clipPath><clipPath id="03f9090e3c"><path d="M 29 20 L 32.488281 20 L 32.488281 28 L 29 28 Z M 29 20 " clip-rule="nonzero"/></clipPath></defs><g clip-path="url(#2d1f670823)"><g clip-path="url(#e3f4439851)"><path fill="url(#1938525fb6)" d="M 0 0.519531 L 0 35.378906 L 36.851562 35.378906 L 36.851562 0.519531 Z M 0 0.519531 " fill-rule="nonzero"/></g></g><g clip-path="url(#53462b3957)"><g clip-path="url(#c78946fa83)"><path fill="#435b70" d="M 0.234375 0.738281 L 37.058594 0.738281 L 37.058594 35.527344 L 0.234375 35.527344 Z M 0.234375 0.738281 " fill-opacity="1" fill-rule="nonzero"/></g></g><g clip-path="url(#7e29cd2d43)"><path fill="#ce8043" d="M 31.921875 21.195312 C 31.800781 20.847656 31.429688 20.667969 31.085938 20.773438 C 30.746094 20.894531 30.566406 21.269531 30.671875 21.613281 C 31.101562 22.90625 31.074219 24.003906 30.582031 24.84375 C 30.328125 25.277344 29.96875 25.625 29.597656 25.878906 C 29.582031 25.789062 29.570312 25.714844 29.554688 25.625 C 29.078125 23.429688 26.976562 23.355469 26.976562 23.355469 L 26.964844 23.339844 C 27.214844 22.605469 27.335938 21.914062 27.367188 21.296875 C 27.453125 18.910156 26.113281 17.410156 25.5625 16.914062 C 25.609375 16.867188 25.652344 16.808594 25.683594 16.761719 C 26.710938 15.410156 27.617188 13.847656 25.980469 12.078125 C 25.949219 11.417969 25.816406 10.125 25.386719 8.621094 C 25.609375 8.832031 25.847656 9.027344 26.085938 9.238281 C 29.957031 12.4375 29.523438 8.621094 28.167969 5.800781 C 28.078125 5.605469 27.976562 5.421875 27.871094 5.242188 C 26.84375 3.472656 25.5625 3.082031 24.371094 3.003906 C 24.03125 2.976562 23.703125 2.992188 23.390625 2.992188 C 22.914062 2.992188 22.601562 3.246094 22.511719 3.679688 C 21.171875 2.585938 18.746094 2.539062 18.269531 2.539062 C 17.820312 2.539062 15.589844 2.585938 14.203125 3.5625 C 14.085938 3.214844 13.789062 3.019531 13.371094 3.003906 C 11.835938 3.003906 9.945312 2.992188 8.59375 5.8125 C 7.238281 8.636719 6.804688 12.453125 10.675781 9.253906 C 10.808594 9.132812 10.945312 9.027344 11.078125 8.90625 C 10.660156 10.441406 10.570312 11.714844 10.542969 12.257812 C 9.128906 13.953125 10.007812 15.457031 10.988281 16.761719 C 11.035156 16.808594 11.0625 16.867188 11.109375 16.914062 C 10.542969 17.421875 9.171875 18.957031 9.304688 21.402344 C 9.335938 22.003906 9.457031 22.648438 9.707031 23.371094 C 9.695312 23.371094 7.625 23.445312 7.148438 25.640625 C 6.582031 28.222656 10.199219 29.84375 10.199219 29.84375 C 10.199219 29.84375 7.667969 29.964844 7.625 30.96875 C 7.625 30.96875 7.207031 31.78125 8.578125 31.8125 C 9.53125 31.839844 11.761719 31.828125 13.042969 31.8125 C 13 32.113281 13.117188 32.414062 13.714844 32.457031 C 15.007812 32.546875 17.03125 32.878906 17.195312 31.707031 C 17.359375 30.535156 17.628906 29.828125 18.359375 29.828125 C 19.085938 29.84375 19.355469 30.550781 19.519531 31.707031 C 19.683594 32.878906 21.707031 32.546875 23.003906 32.457031 C 23.613281 32.414062 23.734375 32.113281 23.6875 31.8125 C 24.96875 31.8125 27.214844 31.828125 28.167969 31.8125 C 29.539062 31.78125 29.121094 30.96875 29.121094 30.96875 C 29.078125 29.964844 26.546875 29.84375 26.546875 29.84375 C 26.546875 29.84375 28.378906 29.019531 29.226562 27.605469 C 30.046875 27.261719 31.085938 26.628906 31.742188 25.535156 C 32.414062 24.332031 32.488281 22.875 31.921875 21.195312 Z M 31.921875 21.195312 " fill-opacity="1" fill-rule="nonzero"/></g><path fill="#f1d4b0" d="M 17.121094 7.675781 C 17.121094 7.675781 13.5625 9.613281 11.226562 11.597656 C 8.890625 13.578125 9.871094 15.292969 10.988281 16.777344 C 12.121094 18.265625 15.753906 18.59375 16.734375 16.449219 C 17.507812 14.765625 17.867188 13.863281 18.136719 10.066406 C 18.359375 7.0625 17.121094 7.675781 17.121094 7.675781 Z M 17.121094 7.675781 " fill-opacity="1" fill-rule="nonzero"/><path fill="#f1d4b0" d="M 19.578125 7.675781 C 19.578125 7.675781 23.136719 9.613281 25.472656 11.597656 C 27.8125 13.578125 26.828125 15.292969 25.710938 16.777344 C 24.582031 18.265625 20.949219 18.59375 19.964844 16.449219 C 19.191406 14.765625 18.835938 13.863281 18.566406 10.066406 C 18.34375 7.0625 19.578125 7.675781 19.578125 7.675781 Z M 19.578125 7.675781 " fill-opacity="1" fill-rule="nonzero"/><path fill="#9f5a2a" d="M 13.355469 31.152344 C 13.355469 31.152344 13.101562 31.496094 13.042969 31.828125 C 11.761719 31.828125 9.53125 31.839844 8.578125 31.8125 C 7.207031 31.78125 7.625 30.96875 7.625 30.96875 C 7.667969 29.964844 10.199219 29.84375 10.199219 29.84375 C 10.199219 29.84375 6.582031 28.222656 7.148438 25.640625 C 7.625 23.445312 9.707031 23.371094 9.707031 23.371094 C 10.109375 24.527344 10.617188 25.5625 11.121094 26.511719 C 12.164062 28.417969 13.191406 29.90625 13.355469 31.152344 Z M 13.355469 31.152344 " fill-opacity="1" fill-rule="nonzero"/><path fill="#9f5a2a" d="M 29.09375 30.96875 C 29.09375 30.96875 29.507812 31.78125 28.140625 31.8125 C 27.1875 31.839844 24.9375 31.828125 23.660156 31.8125 C 23.613281 31.480469 23.34375 31.136719 23.34375 31.136719 C 23.570312 29.304688 25.757812 26.886719 26.976562 23.355469 C 26.976562 23.355469 26.976562 23.355469 26.976562 23.339844 L 26.992188 23.355469 C 26.992188 23.355469 29.078125 23.417969 29.570312 25.625 C 30.132812 28.207031 26.515625 29.828125 26.515625 29.828125 C 26.515625 29.828125 29.046875 29.964844 29.09375 30.96875 Z M 29.09375 30.96875 " fill-opacity="1" fill-rule="nonzero"/><path fill="#9f5a2a" d="M 26.101562 9.253906 C 22.242188 6.070312 21.722656 3.019531 23.421875 3.003906 C 23.734375 3.003906 24.058594 3.003906 24.402344 3.019531 C 25.59375 3.097656 26.875 3.484375 27.902344 5.257812 C 28.003906 5.421875 28.09375 5.617188 28.199219 5.8125 C 29.539062 8.636719 29.96875 12.453125 26.101562 9.253906 Z M 26.101562 9.253906 " fill-opacity="1" fill-rule="nonzero"/><path fill="#eca591" d="M 19.964844 16.449219 C 19.964844 16.449219 19.726562 18.28125 18.359375 18.28125 C 16.988281 18.28125 16.734375 16.449219 16.734375 16.449219 C 17.332031 15.15625 17.671875 14.328125 17.925781 12.300781 L 18.761719 12.300781 C 19.027344 14.328125 19.371094 15.15625 19.964844 16.449219 Z M 19.964844 16.449219 " fill-opacity="1" fill-rule="nonzero"/><path fill="#eca591" d="M 15.023438 7.933594 C 15.023438 8.105469 14.902344 8.253906 14.664062 8.378906 C 14.425781 8.5 14.140625 8.5625 13.800781 8.5625 C 13.464844 8.5625 13.175781 8.5 12.9375 8.378906 C 12.699219 8.253906 12.582031 8.105469 12.582031 7.933594 C 12.582031 7.757812 12.699219 7.609375 12.9375 7.484375 C 13.175781 7.363281 13.464844 7.300781 13.800781 7.300781 C 14.140625 7.300781 14.425781 7.363281 14.664062 7.484375 C 14.902344 7.609375 15.023438 7.757812 15.023438 7.933594 Z M 15.023438 7.933594 " fill-opacity="1" fill-rule="nonzero"/><path fill="#eca591" d="M 24.121094 7.933594 C 24.121094 8.105469 24 8.253906 23.761719 8.378906 C 23.523438 8.5 23.234375 8.5625 22.898438 8.5625 C 22.5625 8.5625 22.273438 8.5 22.035156 8.378906 C 21.796875 8.253906 21.679688 8.105469 21.679688 7.933594 C 21.679688 7.757812 21.796875 7.609375 22.035156 7.484375 C 22.273438 7.363281 22.5625 7.300781 22.898438 7.300781 C 23.234375 7.300781 23.523438 7.363281 23.761719 7.484375 C 24 7.609375 24.121094 7.757812 24.121094 7.933594 Z M 24.121094 7.933594 " fill-opacity="1" fill-rule="nonzero"/><path fill="#eca591" d="M 11.644531 13.367188 C 11.644531 13.453125 11.613281 13.523438 11.554688 13.582031 C 11.5 13.640625 11.429688 13.667969 11.347656 13.667969 C 11.265625 13.667969 11.195312 13.640625 11.136719 13.582031 C 11.078125 13.523438 11.046875 13.453125 11.046875 13.367188 C 11.046875 13.285156 11.078125 13.214844 11.136719 13.15625 C 11.195312 13.097656 11.265625 13.066406 11.347656 13.066406 C 11.429688 13.066406 11.5 13.097656 11.554688 13.15625 C 11.613281 13.214844 11.644531 13.285156 11.644531 13.367188 Z M 11.644531 13.367188 " fill-opacity="1" fill-rule="nonzero"/><path fill="#eca591" d="M 12.625 14.253906 C 12.625 14.324219 12.601562 14.386719 12.550781 14.433594 C 12.503906 14.484375 12.441406 14.511719 12.375 14.511719 C 12.304688 14.511719 12.242188 14.484375 12.195312 14.433594 C 12.144531 14.386719 12.121094 14.324219 12.121094 14.253906 C 12.121094 14.183594 12.144531 14.125 12.195312 14.074219 C 12.242188 14.023438 12.304688 14 12.375 14 C 12.441406 14 12.503906 14.023438 12.550781 14.074219 C 12.601562 14.125 12.625 14.183594 12.625 14.253906 Z M 12.625 14.253906 " fill-opacity="1" fill-rule="nonzero"/><path fill="#eca591" d="M 12.699219 12.542969 C 12.699219 12.613281 12.675781 12.671875 12.625 12.722656 C 12.578125 12.773438 12.519531 12.796875 12.449219 12.796875 C 12.378906 12.796875 12.316406 12.773438 12.269531 12.722656 C 12.21875 12.671875 12.195312 12.613281 12.195312 12.542969 C 12.195312 12.472656 12.21875 12.410156 12.269531 12.363281 C 12.316406 12.3125 12.378906 12.289062 12.449219 12.289062 C 12.519531 12.289062 12.578125 12.3125 12.625 12.363281 C 12.675781 12.410156 12.699219 12.472656 12.699219 12.542969 Z M 12.699219 12.542969 " fill-opacity="1" fill-rule="nonzero"/><path fill="#eca591" d="M 25.5625 13.367188 C 25.5625 13.453125 25.535156 13.523438 25.476562 13.582031 C 25.417969 13.640625 25.347656 13.667969 25.265625 13.667969 C 25.183594 13.667969 25.113281 13.640625 25.054688 13.582031 C 24.996094 13.523438 24.96875 13.453125 24.96875 13.367188 C 24.96875 13.285156 24.996094 13.214844 25.054688 13.15625 C 25.113281 13.097656 25.183594 13.066406 25.265625 13.066406 C 25.347656 13.066406 25.417969 13.097656 25.476562 13.15625 C 25.535156 13.214844 25.5625 13.285156 25.5625 13.367188 Z M 25.5625 13.367188 " fill-opacity="1" fill-rule="nonzero"/><path fill="#eca591" d="M 24.492188 14.253906 C 24.492188 14.324219 24.46875 14.386719 24.417969 14.433594 C 24.367188 14.484375 24.308594 14.511719 24.238281 14.511719 C 24.167969 14.511719 24.109375 14.484375 24.058594 14.433594 C 24.011719 14.386719 23.984375 14.324219 23.984375 14.253906 C 23.984375 14.183594 24.011719 14.125 24.058594 14.074219 C 24.109375 14.023438 24.167969 14 24.238281 14 C 24.308594 14 24.367188 14.023438 24.417969 14.074219 C 24.46875 14.125 24.492188 14.183594 24.492188 14.253906 Z M 24.492188 14.253906 " fill-opacity="1" fill-rule="nonzero"/><path fill="#eca591" d="M 24.417969 12.542969 C 24.417969 12.613281 24.394531 12.671875 24.34375 12.722656 C 24.292969 12.773438 24.234375 12.796875 24.164062 12.796875 C 24.09375 12.796875 24.035156 12.773438 23.984375 12.722656 C 23.9375 12.671875 23.910156 12.613281 23.910156 12.542969 C 23.910156 12.472656 23.9375 12.410156 23.984375 12.363281 C 24.035156 12.3125 24.09375 12.289062 24.164062 12.289062 C 24.234375 12.289062 24.292969 12.3125 24.34375 12.363281 C 24.394531 12.410156 24.417969 12.472656 24.417969 12.542969 Z M 24.417969 12.542969 " fill-opacity="1" fill-rule="nonzero"/><g clip-path="url(#03f9090e3c)"><path fill="#74392c" d="M 31.710938 25.535156 C 31.074219 26.628906 30.015625 27.261719 29.195312 27.605469 C 29.496094 27.109375 29.6875 26.523438 29.613281 25.878906 C 29.984375 25.625 30.34375 25.277344 30.597656 24.84375 C 31.085938 23.988281 31.117188 22.90625 30.683594 21.613281 C 30.566406 21.269531 30.757812 20.894531 31.101562 20.773438 C 31.445312 20.652344 31.816406 20.847656 31.9375 21.179688 C 32.488281 22.875 32.414062 24.332031 31.710938 25.535156 Z M 31.710938 25.535156 " fill-opacity="1" fill-rule="nonzero"/></g><path fill="#74392c" d="M 15.945312 6.398438 C 15.945312 6.582031 15.882812 6.738281 15.753906 6.867188 C 15.625 6.996094 15.472656 7.0625 15.292969 7.0625 C 15.109375 7.0625 14.957031 6.996094 14.828125 6.867188 C 14.699219 6.738281 14.636719 6.582031 14.636719 6.398438 C 14.636719 6.21875 14.699219 6.0625 14.828125 5.933594 C 14.957031 5.804688 15.109375 5.738281 15.292969 5.738281 C 15.472656 5.738281 15.625 5.804688 15.753906 5.933594 C 15.882812 6.0625 15.945312 6.21875 15.945312 6.398438 Z M 15.945312 6.398438 " fill-opacity="1" fill-rule="nonzero"/><path fill="#74392c" d="M 22.066406 6.398438 C 22.066406 6.582031 22 6.738281 21.875 6.867188 C 21.746094 6.996094 21.589844 7.0625 21.410156 7.0625 C 21.230469 7.0625 21.074219 6.996094 20.945312 6.867188 C 20.820312 6.738281 20.753906 6.582031 20.753906 6.398438 C 20.753906 6.21875 20.820312 6.0625 20.945312 5.933594 C 21.074219 5.804688 21.230469 5.738281 21.410156 5.738281 C 21.589844 5.738281 21.746094 5.804688 21.875 5.933594 C 22 6.0625 22.066406 6.21875 22.066406 6.398438 Z M 22.066406 6.398438 " fill-opacity="1" fill-rule="nonzero"/><path fill="#74392c" d="M 13.371094 3.003906 C 11.835938 3.003906 9.945312 2.992188 8.59375 5.8125 C 7.238281 8.636719 6.804688 12.453125 10.675781 9.253906 C 14.546875 6.054688 15.054688 3.019531 13.371094 3.003906 Z M 13.371094 3.003906 " fill-opacity="1" fill-rule="nonzero"/><path fill="#74392c" d="M 27.902344 5.273438 C 24.730469 6.160156 24.417969 3.292969 24.402344 3.035156 C 25.59375 3.109375 26.875 3.5 27.902344 5.273438 Z M 27.902344 5.273438 " fill-opacity="1" fill-rule="nonzero"/><path fill="#74392c" d="M 26.308594 6.398438 C 26.726562 5.828125 27.664062 6.023438 27.855469 7.0625 C 28.035156 8.097656 25.609375 7.375 26.308594 6.398438 Z M 26.308594 6.398438 " fill-opacity="1" fill-rule="nonzero"/><path fill="#74392c" d="M 20.175781 8.699219 C 20.175781 7.933594 19.355469 7.300781 18.359375 7.300781 C 17.359375 7.300781 16.527344 7.933594 16.527344 8.699219 C 16.527344 9.402344 17.226562 9.988281 18.136719 10.078125 C 18.03125 11.507812 17.910156 12.527344 17.777344 13.339844 L 18.925781 13.339844 C 18.773438 12.527344 18.671875 11.507812 18.566406 10.078125 C 19.476562 9.988281 20.175781 9.402344 20.175781 8.699219 Z M 20.175781 8.699219 " fill-opacity="1" fill-rule="nonzero"/><path fill="#74392c" d="M 27.394531 21.3125 C 26.753906 21.703125 25.800781 21.988281 24.402344 21.765625 C 21.1875 21.253906 22.035156 18.023438 22.066406 17.90625 C 23.359375 18.128906 24.847656 17.710938 25.578125 16.914062 C 26.128906 17.421875 27.484375 18.925781 27.394531 21.3125 Z M 27.394531 21.3125 " fill-opacity="1" fill-rule="nonzero"/><path fill="#74392c" d="M 18.789062 19.359375 C 19.042969 18.476562 21.917969 18.324219 21.128906 19.933594 C 20.339844 21.539062 18.402344 20.726562 18.789062 19.359375 Z M 18.789062 19.359375 " fill-opacity="1" fill-rule="nonzero"/><path fill="#74392c" d="M 13.519531 27.351562 C 12.6875 27.636719 11.792969 27.097656 11.136719 26.511719 C 10.632812 25.578125 10.125 24.527344 9.722656 23.371094 C 9.46875 22.664062 9.351562 22.003906 9.320312 21.402344 C 9.320312 21.402344 10.960938 17.964844 14.292969 20.816406 C 16.824219 22.996094 15.128906 26.796875 13.519531 27.351562 Z M 13.519531 27.351562 " fill-opacity="1" fill-rule="nonzero"/></svg>