<svg xmlns="http://www.w3.org/2000/svg" xmlns:xlink="http://www.w3.org/1999/xlink" width="50" zoomAndPan="magnify" viewBox="0 0 37.5 37.499999" height="50" preserveAspectRatio="xMidYMid meet" version="1.0"><defs><clipPath id="cbb0d944a2"><path d="M 0 0 L 37.007812 0 L 37.007812 37.007812 L 0 37.007812 Z M 0 0 " clip-rule="nonzero"/></clipPath><clipPath id="8d059a53d7"><path d="M 18.503906 0 C 8.285156 0 0 8.285156 0 18.503906 C 0 28.722656 8.285156 37.007812 18.503906 37.007812 C 28.722656 37.007812 37.007812 28.722656 37.007812 18.503906 C 37.007812 8.285156 28.722656 0 18.503906 0 Z M 18.503906 0 " clip-rule="nonzero"/></clipPath><clipPath id="ec67b0c1be"><path d="M 10 2 L 36.894531 2 L 36.894531 27 L 10 27 Z M 10 2 " clip-rule="nonzero"/></clipPath><clipPath id="b64c74c837"><path d="M 4.328125 4 L 33 4 L 33 32.265625 L 4.328125 32.265625 Z M 4.328125 4 " clip-rule="nonzero"/></clipPath></defs><g clip-path="url(#cbb0d944a2)"><g clip-path="url(#8d059a53d7)"><path fill="#4dfac7" d="M 0 0 L 37.007812 0 L 37.007812 37.007812 L 0 37.007812 Z M 0 0 " fill-opacity="1" fill-rule="nonzero"/></g></g><g clip-path="url(#ec67b0c1be)"><path fill="#f9ca4e" d="M 10.523438 16.140625 C 10.558594 15.742188 10.726562 15.390625 10.96875 15.066406 C 11.832031 13.933594 13.769531 13.414062 15.121094 14.25 C 15.917969 14.742188 16.558594 15.378906 17.089844 16.128906 C 17.53125 16.75 17.929688 17.40625 18.359375 18.0625 C 18.660156 17.636719 18.960938 17.199219 19.273438 16.769531 C 21.9375 13.054688 24.867188 9.570312 28.261719 6.5 C 30.34375 4.617188 32.734375 3.214844 35.304688 2.109375 C 35.75 1.917969 36.117188 1.992188 36.5 2.378906 C 36.324219 2.539062 36.152344 2.703125 35.980469 2.863281 C 33.734375 4.984375 31.539062 7.152344 29.542969 9.511719 C 28.402344 10.863281 27.34375 12.28125 26.253906 13.675781 C 24.0625 16.480469 22.421875 19.636719 20.558594 22.652344 C 19.839844 23.816406 19.125 24.988281 18.40625 26.152344 C 18.121094 26.613281 17.742188 26.605469 17.457031 26.132812 C 16.523438 24.601562 15.789062 22.96875 15.09375 21.320312 C 14.515625 19.941406 13.863281 18.59375 13.035156 17.34375 C 12.628906 16.722656 12.144531 16.210938 11.351562 16.144531 C 11.085938 16.121094 10.8125 16.140625 10.523438 16.140625 Z M 10.523438 16.140625 " fill-opacity="1" fill-rule="nonzero"/></g><g clip-path="url(#b64c74c837)"><path fill="#f9ca4e" d="M 30.6875 11.339844 L 28.503906 13.523438 C 29.132812 14.917969 29.484375 16.464844 29.484375 18.09375 C 29.484375 24.226562 24.511719 29.195312 18.378906 29.195312 C 12.246094 29.195312 7.277344 24.226562 7.277344 18.09375 C 7.277344 11.960938 12.246094 6.988281 18.378906 6.988281 C 19.914062 6.988281 21.371094 7.300781 22.699219 7.863281 L 24.902344 5.660156 C 22.953125 4.636719 20.734375 4.058594 18.378906 4.058594 C 10.628906 4.058594 4.347656 10.339844 4.347656 18.09375 C 4.347656 25.84375 10.628906 32.125 18.378906 32.125 C 26.132812 32.125 32.414062 25.84375 32.414062 18.089844 C 32.414062 15.644531 31.789062 13.34375 30.6875 11.339844 Z M 30.6875 11.339844 " fill-opacity="1" fill-rule="nonzero"/></g></svg>