<svg xmlns="http://www.w3.org/2000/svg" xmlns:xlink="http://www.w3.org/1999/xlink" width="50" zoomAndPan="magnify" viewBox="0 0 37.5 37.499999" height="50" preserveAspectRatio="xMidYMid meet" version="1.0"><defs><clipPath id="5a7ed5ea1d"><path d="M 0 0 L 36.851562 0 L 36.851562 36.851562 L 0 36.851562 Z M 0 0 " clip-rule="nonzero"/></clipPath><clipPath id="c1ff0bebdf"><path d="M 18.425781 0 C 8.25 0 0 8.25 0 18.425781 C 0 28.601562 8.25 36.851562 18.425781 36.851562 C 28.601562 36.851562 36.851562 28.601562 36.851562 18.425781 C 36.851562 8.25 28.601562 0 18.425781 0 Z M 18.425781 0 " clip-rule="nonzero"/></clipPath><linearGradient x1="0.000000000000054801" gradientTransform="matrix(0.143946, 0, 0, 0.143946, 0.0000005, 0)" y1="128" x2="255.999988" gradientUnits="userSpaceOnUse" y2="128" id="5eb606d52c"><stop stop-opacity="1" stop-color="rgb(65.098572%, 65.098572%, 65.098572%)" offset="0"/><stop stop-opacity="1" stop-color="rgb(65.234375%, 65.234375%, 65.234375%)" offset="0.0078125"/><stop stop-opacity="1" stop-color="rgb(65.507507%, 65.507507%, 65.507507%)" offset="0.015625"/><stop stop-opacity="1" stop-color="rgb(65.78064%, 65.78064%, 65.78064%)" offset="0.0234375"/><stop stop-opacity="1" stop-color="rgb(66.052246%, 66.052246%, 66.052246%)" offset="0.03125"/><stop stop-opacity="1" stop-color="rgb(66.325378%, 66.325378%, 66.325378%)" offset="0.0390625"/><stop stop-opacity="1" stop-color="rgb(66.598511%, 66.598511%, 66.598511%)" offset="0.046875"/><stop stop-opacity="1" stop-color="rgb(66.871643%, 66.871643%, 66.871643%)" offset="0.0546875"/><stop stop-opacity="1" stop-color="rgb(67.14325%, 67.14325%, 67.14325%)" offset="0.0625"/><stop stop-opacity="1" stop-color="rgb(67.416382%, 67.416382%, 67.416382%)" offset="0.0703125"/><stop stop-opacity="1" stop-color="rgb(67.689514%, 67.689514%, 67.689514%)" offset="0.078125"/><stop stop-opacity="1" stop-color="rgb(67.961121%, 67.961121%, 67.961121%)" offset="0.0859375"/><stop stop-opacity="1" stop-color="rgb(68.234253%, 68.234253%, 68.234253%)" offset="0.09375"/><stop stop-opacity="1" stop-color="rgb(68.507385%, 68.507385%, 68.507385%)" offset="0.101563"/><stop stop-opacity="1" stop-color="rgb(68.778992%, 68.778992%, 68.778992%)" offset="0.109375"/><stop stop-opacity="1" stop-color="rgb(69.052124%, 69.052124%, 69.052124%)" offset="0.117188"/><stop stop-opacity="1" stop-color="rgb(69.325256%, 69.325256%, 69.325256%)" offset="0.125"/><stop stop-opacity="1" stop-color="rgb(69.596863%, 69.596863%, 69.596863%)" offset="0.132812"/><stop stop-opacity="1" stop-color="rgb(69.869995%, 69.869995%, 69.869995%)" offset="0.140625"/><stop stop-opacity="1" stop-color="rgb(70.143127%, 70.143127%, 70.143127%)" offset="0.148438"/><stop stop-opacity="1" stop-color="rgb(70.41626%, 70.41626%, 70.41626%)" offset="0.15625"/><stop stop-opacity="1" stop-color="rgb(70.687866%, 70.687866%, 70.687866%)" offset="0.164062"/><stop stop-opacity="1" stop-color="rgb(70.960999%, 70.960999%, 70.960999%)" offset="0.171875"/><stop stop-opacity="1" stop-color="rgb(71.234131%, 71.234131%, 71.234131%)" offset="0.179688"/><stop stop-opacity="1" stop-color="rgb(71.505737%, 71.505737%, 71.505737%)" offset="0.1875"/><stop stop-opacity="1" stop-color="rgb(71.77887%, 71.77887%, 71.77887%)" offset="0.195312"/><stop stop-opacity="1" stop-color="rgb(72.052002%, 72.052002%, 72.052002%)" offset="0.203125"/><stop stop-opacity="1" stop-color="rgb(72.323608%, 72.323608%, 72.323608%)" offset="0.210938"/><stop stop-opacity="1" stop-color="rgb(72.596741%, 72.596741%, 72.596741%)" offset="0.21875"/><stop stop-opacity="1" stop-color="rgb(72.869873%, 72.869873%, 72.869873%)" offset="0.226563"/><stop stop-opacity="1" stop-color="rgb(73.141479%, 73.141479%, 73.141479%)" offset="0.234375"/><stop stop-opacity="1" stop-color="rgb(73.414612%, 73.414612%, 73.414612%)" offset="0.242188"/><stop stop-opacity="1" stop-color="rgb(73.687744%, 73.687744%, 73.687744%)" offset="0.25"/><stop stop-opacity="1" stop-color="rgb(73.959351%, 73.959351%, 73.959351%)" offset="0.257812"/><stop stop-opacity="1" stop-color="rgb(74.232483%, 74.232483%, 74.232483%)" offset="0.265625"/><stop stop-opacity="1" stop-color="rgb(74.505615%, 74.505615%, 74.505615%)" offset="0.273438"/><stop stop-opacity="1" stop-color="rgb(74.778748%, 74.778748%, 74.778748%)" offset="0.28125"/><stop stop-opacity="1" stop-color="rgb(75.050354%, 75.050354%, 75.050354%)" offset="0.289062"/><stop stop-opacity="1" stop-color="rgb(75.323486%, 75.323486%, 75.323486%)" offset="0.296875"/><stop stop-opacity="1" stop-color="rgb(75.596619%, 75.596619%, 75.596619%)" offset="0.304688"/><stop stop-opacity="1" stop-color="rgb(75.868225%, 75.868225%, 75.868225%)" offset="0.3125"/><stop stop-opacity="1" stop-color="rgb(76.141357%, 76.141357%, 76.141357%)" offset="0.320312"/><stop stop-opacity="1" stop-color="rgb(76.41449%, 76.41449%, 76.41449%)" offset="0.328125"/><stop stop-opacity="1" stop-color="rgb(76.686096%, 76.686096%, 76.686096%)" offset="0.335938"/><stop stop-opacity="1" stop-color="rgb(76.959229%, 76.959229%, 76.959229%)" offset="0.34375"/><stop stop-opacity="1" stop-color="rgb(77.232361%, 77.232361%, 77.232361%)" offset="0.351562"/><stop stop-opacity="1" stop-color="rgb(77.503967%, 77.503967%, 77.503967%)" offset="0.359375"/><stop stop-opacity="1" stop-color="rgb(77.7771%, 77.7771%, 77.7771%)" offset="0.367188"/><stop stop-opacity="1" stop-color="rgb(78.050232%, 78.050232%, 78.050232%)" offset="0.375"/><stop stop-opacity="1" stop-color="rgb(78.321838%, 78.321838%, 78.321838%)" offset="0.382812"/><stop stop-opacity="1" stop-color="rgb(78.594971%, 78.594971%, 78.594971%)" offset="0.390625"/><stop stop-opacity="1" stop-color="rgb(78.868103%, 78.868103%, 78.868103%)" offset="0.398438"/><stop stop-opacity="1" stop-color="rgb(79.141235%, 79.141235%, 79.141235%)" offset="0.40625"/><stop stop-opacity="1" stop-color="rgb(79.412842%, 79.412842%, 79.412842%)" offset="0.414062"/><stop stop-opacity="1" stop-color="rgb(79.685974%, 79.685974%, 79.685974%)" offset="0.421875"/><stop stop-opacity="1" stop-color="rgb(79.959106%, 79.959106%, 79.959106%)" offset="0.429688"/><stop stop-opacity="1" stop-color="rgb(80.230713%, 80.230713%, 80.230713%)" offset="0.4375"/><stop stop-opacity="1" stop-color="rgb(80.503845%, 80.503845%, 80.503845%)" offset="0.445312"/><stop stop-opacity="1" stop-color="rgb(80.776978%, 80.776978%, 80.776978%)" offset="0.453125"/><stop stop-opacity="1" stop-color="rgb(81.048584%, 81.048584%, 81.048584%)" offset="0.460938"/><stop stop-opacity="1" stop-color="rgb(81.321716%, 81.321716%, 81.321716%)" offset="0.46875"/><stop stop-opacity="1" stop-color="rgb(81.594849%, 81.594849%, 81.594849%)" offset="0.476562"/><stop stop-opacity="1" stop-color="rgb(81.866455%, 81.866455%, 81.866455%)" offset="0.484375"/><stop stop-opacity="1" stop-color="rgb(82.139587%, 82.139587%, 82.139587%)" offset="0.492187"/><stop stop-opacity="1" stop-color="rgb(82.41272%, 82.41272%, 82.41272%)" offset="0.5"/><stop stop-opacity="1" stop-color="rgb(82.684326%, 82.684326%, 82.684326%)" offset="0.507812"/><stop stop-opacity="1" stop-color="rgb(82.957458%, 82.957458%, 82.957458%)" offset="0.515625"/><stop stop-opacity="1" stop-color="rgb(83.230591%, 83.230591%, 83.230591%)" offset="0.523438"/><stop stop-opacity="1" stop-color="rgb(83.503723%, 83.503723%, 83.503723%)" offset="0.53125"/><stop stop-opacity="1" stop-color="rgb(83.77533%, 83.77533%, 83.77533%)" offset="0.539062"/><stop stop-opacity="1" stop-color="rgb(84.048462%, 84.048462%, 84.048462%)" offset="0.546875"/><stop stop-opacity="1" stop-color="rgb(84.321594%, 84.321594%, 84.321594%)" offset="0.554688"/><stop stop-opacity="1" stop-color="rgb(84.593201%, 84.593201%, 84.593201%)" offset="0.5625"/><stop stop-opacity="1" stop-color="rgb(84.866333%, 84.866333%, 84.866333%)" offset="0.570312"/><stop stop-opacity="1" stop-color="rgb(85.139465%, 85.139465%, 85.139465%)" offset="0.578125"/><stop stop-opacity="1" stop-color="rgb(85.411072%, 85.411072%, 85.411072%)" offset="0.585938"/><stop stop-opacity="1" stop-color="rgb(85.684204%, 85.684204%, 85.684204%)" offset="0.59375"/><stop stop-opacity="1" stop-color="rgb(85.957336%, 85.957336%, 85.957336%)" offset="0.601562"/><stop stop-opacity="1" stop-color="rgb(86.228943%, 86.228943%, 86.228943%)" offset="0.609375"/><stop stop-opacity="1" stop-color="rgb(86.502075%, 86.502075%, 86.502075%)" offset="0.617188"/><stop stop-opacity="1" stop-color="rgb(86.775208%, 86.775208%, 86.775208%)" offset="0.625"/><stop stop-opacity="1" stop-color="rgb(87.046814%, 87.046814%, 87.046814%)" offset="0.632812"/><stop stop-opacity="1" stop-color="rgb(87.319946%, 87.319946%, 87.319946%)" offset="0.640625"/><stop stop-opacity="1" stop-color="rgb(87.593079%, 87.593079%, 87.593079%)" offset="0.648438"/><stop stop-opacity="1" stop-color="rgb(87.866211%, 87.866211%, 87.866211%)" offset="0.65625"/><stop stop-opacity="1" stop-color="rgb(88.137817%, 88.137817%, 88.137817%)" offset="0.664062"/><stop stop-opacity="1" stop-color="rgb(88.41095%, 88.41095%, 88.41095%)" offset="0.671875"/><stop stop-opacity="1" stop-color="rgb(88.684082%, 88.684082%, 88.684082%)" offset="0.679688"/><stop stop-opacity="1" stop-color="rgb(88.955688%, 88.955688%, 88.955688%)" offset="0.6875"/><stop stop-opacity="1" stop-color="rgb(89.228821%, 89.228821%, 89.228821%)" offset="0.695312"/><stop stop-opacity="1" stop-color="rgb(89.501953%, 89.501953%, 89.501953%)" offset="0.703125"/><stop stop-opacity="1" stop-color="rgb(89.77356%, 89.77356%, 89.77356%)" offset="0.710938"/><stop stop-opacity="1" stop-color="rgb(90.046692%, 90.046692%, 90.046692%)" offset="0.71875"/><stop stop-opacity="1" stop-color="rgb(90.319824%, 90.319824%, 90.319824%)" offset="0.726562"/><stop stop-opacity="1" stop-color="rgb(90.591431%, 90.591431%, 90.591431%)" offset="0.734375"/><stop stop-opacity="1" stop-color="rgb(90.864563%, 90.864563%, 90.864563%)" offset="0.742188"/><stop stop-opacity="1" stop-color="rgb(91.137695%, 91.137695%, 91.137695%)" offset="0.75"/><stop stop-opacity="1" stop-color="rgb(91.409302%, 91.409302%, 91.409302%)" offset="0.757812"/><stop stop-opacity="1" stop-color="rgb(91.682434%, 91.682434%, 91.682434%)" offset="0.765625"/><stop stop-opacity="1" stop-color="rgb(91.955566%, 91.955566%, 91.955566%)" offset="0.773438"/><stop stop-opacity="1" stop-color="rgb(92.228699%, 92.228699%, 92.228699%)" offset="0.78125"/><stop stop-opacity="1" stop-color="rgb(92.500305%, 92.500305%, 92.500305%)" offset="0.789062"/><stop stop-opacity="1" stop-color="rgb(92.773438%, 92.773438%, 92.773438%)" offset="0.796875"/><stop stop-opacity="1" stop-color="rgb(93.04657%, 93.04657%, 93.04657%)" offset="0.804688"/><stop stop-opacity="1" stop-color="rgb(93.318176%, 93.318176%, 93.318176%)" offset="0.8125"/><stop stop-opacity="1" stop-color="rgb(93.591309%, 93.591309%, 93.591309%)" offset="0.820312"/><stop stop-opacity="1" stop-color="rgb(93.864441%, 93.864441%, 93.864441%)" offset="0.828125"/><stop stop-opacity="1" stop-color="rgb(94.136047%, 94.136047%, 94.136047%)" offset="0.835938"/><stop stop-opacity="1" stop-color="rgb(94.40918%, 94.40918%, 94.40918%)" offset="0.84375"/><stop stop-opacity="1" stop-color="rgb(94.682312%, 94.682312%, 94.682312%)" offset="0.851562"/><stop stop-opacity="1" stop-color="rgb(94.953918%, 94.953918%, 94.953918%)" offset="0.859375"/><stop stop-opacity="1" stop-color="rgb(95.227051%, 95.227051%, 95.227051%)" offset="0.867188"/><stop stop-opacity="1" stop-color="rgb(95.500183%, 95.500183%, 95.500183%)" offset="0.875"/><stop stop-opacity="1" stop-color="rgb(95.77179%, 95.77179%, 95.77179%)" offset="0.882812"/><stop stop-opacity="1" stop-color="rgb(96.044922%, 96.044922%, 96.044922%)" offset="0.890625"/><stop stop-opacity="1" stop-color="rgb(96.318054%, 96.318054%, 96.318054%)" offset="0.898438"/><stop stop-opacity="1" stop-color="rgb(96.591187%, 96.591187%, 96.591187%)" offset="0.90625"/><stop stop-opacity="1" stop-color="rgb(96.862793%, 96.862793%, 96.862793%)" offset="0.914062"/><stop stop-opacity="1" stop-color="rgb(97.135925%, 97.135925%, 97.135925%)" offset="0.921875"/><stop stop-opacity="1" stop-color="rgb(97.409058%, 97.409058%, 97.409058%)" offset="0.929688"/><stop stop-opacity="1" stop-color="rgb(97.680664%, 97.680664%, 97.680664%)" offset="0.9375"/><stop stop-opacity="1" stop-color="rgb(97.953796%, 97.953796%, 97.953796%)" offset="0.945313"/><stop stop-opacity="1" stop-color="rgb(98.226929%, 98.226929%, 98.226929%)" offset="0.953125"/><stop stop-opacity="1" stop-color="rgb(98.498535%, 98.498535%, 98.498535%)" offset="0.960938"/><stop stop-opacity="1" stop-color="rgb(98.771667%, 98.771667%, 98.771667%)" offset="0.96875"/><stop stop-opacity="1" stop-color="rgb(99.0448%, 99.0448%, 99.0448%)" offset="0.976562"/><stop stop-opacity="1" stop-color="rgb(99.316406%, 99.316406%, 99.316406%)" offset="0.984375"/><stop stop-opacity="1" stop-color="rgb(99.589539%, 99.589539%, 99.589539%)" offset="0.992188"/><stop stop-opacity="1" stop-color="rgb(99.862671%, 99.862671%, 99.862671%)" offset="1"/></linearGradient><clipPath id="33000d4025"><path d="M 0.234375 0.234375 L 37.007812 0.234375 L 37.007812 37.007812 L 0.234375 37.007812 Z M 0.234375 0.234375 " clip-rule="nonzero"/></clipPath><clipPath id="01070a8844"><path d="M 5.671875 0.234375 L 31.570312 0.234375 C 34.574219 0.234375 37.007812 2.667969 37.007812 5.671875 L 37.007812 31.570312 C 37.007812 34.574219 34.574219 37.007812 31.570312 37.007812 L 5.671875 37.007812 C 2.667969 37.007812 0.234375 34.574219 0.234375 31.570312 L 0.234375 5.671875 C 0.234375 2.667969 2.667969 0.234375 5.671875 0.234375 Z M 5.671875 0.234375 " clip-rule="nonzero"/></clipPath><clipPath id="31c101bf1f"><path d="M 6.074219 1.386719 L 29 1.386719 L 29 35.433594 L 6.074219 35.433594 Z M 6.074219 1.386719 " clip-rule="nonzero"/></clipPath><clipPath id="cf08f9d592"><path d="M 6.074219 3 L 28 3 L 28 35.433594 L 6.074219 35.433594 Z M 6.074219 3 " clip-rule="nonzero"/></clipPath><clipPath id="13031d66bb"><path d="M 6.074219 1.386719 L 29 1.386719 L 29 35.433594 L 6.074219 35.433594 Z M 6.074219 1.386719 " clip-rule="nonzero"/></clipPath></defs><g clip-path="url(#5a7ed5ea1d)"><g clip-path="url(#c1ff0bebdf)"><path fill="url(#5eb606d52c)" d="M 0 0 L 0 36.851562 L 36.851562 36.851562 L 36.851562 0 Z M 0 0 " fill-rule="nonzero"/></g></g><g clip-path="url(#33000d4025)"><g clip-path="url(#01070a8844)"><path fill="#1848f0" d="M 0.234375 0.234375 L 37.007812 0.234375 L 37.007812 37.007812 L 0.234375 37.007812 Z M 0.234375 0.234375 " fill-opacity="1" fill-rule="nonzero"/></g></g><g clip-path="url(#31c101bf1f)"><path fill="#926f69" d="M 26.238281 32.128906 C 26.238281 32.128906 27.578125 32.234375 27.417969 32.839844 C 27.261719 33.441406 27.105469 33.96875 25.765625 33.941406 C 24.425781 33.914062 23.097656 33.890625 23.097656 33.890625 C 23.097656 33.890625 22.757812 34.917969 21.800781 34.917969 C 20.84375 34.917969 20.4375 34.859375 20.125 34.089844 L 19.304688 34.109375 C 19.304688 34.109375 18.949219 35.097656 17.820312 35.027344 C 16.691406 34.964844 16.078125 34.695312 16.214844 34.171875 C 16.214844 34.171875 10.777344 33.988281 10.648438 33.929688 C 10.519531 33.875 10.261719 32.554688 11.226562 32.371094 C 11.226562 32.371094 11.003906 31.5 10.070312 30.757812 C 9.140625 30.011719 7.824219 26.820312 10.019531 25.128906 C 10.414062 24.824219 10.769531 24.550781 11.089844 24.296875 L 9.941406 25.128906 C 6.25 21.867188 6.1875 18.214844 6.363281 18.472656 C 7.613281 20.332031 7.753906 20.144531 7.753906 20.144531 C 7.753906 20.144531 6.621094 17.136719 9.347656 15.746094 C 12.078125 14.355469 13.675781 17.304688 13.675781 17.304688 C 9.683594 18.621094 11.4375 23.355469 11.636719 23.847656 C 12.730469 22.898438 13.335938 22.050781 13.769531 20.328125 C 14.386719 17.894531 14.8125 16.742188 14.8125 16.742188 L 12.230469 14.496094 L 13.15625 14.382812 L 12.0625 13.53125 L 14.203125 9.878906 L 16.316406 6.796875 L 14.203125 9.878906 C 14.203125 9.878906 14.164062 3.054688 15.59375 2.160156 C 15.59375 2.160156 15.859375 1.808594 17.800781 6.296875 L 17.410156 6.429688 L 20.679688 6.089844 C 20.695312 3.714844 21.605469 1.597656 21.605469 1.597656 C 24.574219 2.726562 24.855469 8.332031 24.855469 8.332031 L 24.613281 8.136719 C 25.792969 9.304688 27.773438 11.265625 27.949219 11.996094 C 27.949219 11.996094 27.304688 13.058594 27.253906 13.085938 C 27.203125 13.113281 27.9375 13.113281 27.9375 13.113281 C 27.9375 13.113281 26.242188 15.433594 25.71875 16.042969 L 26.152344 23.953125 C 26.152344 23.953125 28.894531 26.699219 28.554688 28.039062 C 28.210938 29.375 26.714844 31.738281 26.238281 32.128906 Z M 26.238281 32.128906 " fill-opacity="1" fill-rule="nonzero"/></g><g clip-path="url(#cf08f9d592)"><path fill="#fcf8f5" d="M 15.40625 7.933594 C 15.40625 7.933594 14.941406 5.09375 15.699219 3.972656 C 15.699219 3.933594 16.3125 6.207031 16.945312 6.476562 C 16.945312 6.476562 16.410156 6.53125 16.363281 6.664062 C 16.316406 6.796875 15.40625 7.933594 15.40625 7.933594 Z M 13.304688 16.839844 C 13.304688 16.839844 10.351562 12.941406 7.753906 17.5625 C 7.503906 18.4375 7.613281 19.289062 7.753906 20.144531 L 6.417969 18.511719 C 6.417969 18.511719 6.769531 22.183594 8.679688 23.742188 C 8.683594 23.742188 6.621094 16.910156 13.304688 16.839844 Z M 23.792969 7.3125 C 23.898438 5.167969 22.265625 2.859375 22.382812 3.3125 C 22.503906 3.769531 21.972656 5.910156 21.972656 5.910156 Z M 25.929688 25.453125 C 25.917969 25.4375 25.917969 25.464844 25.925781 25.519531 C 25.925781 25.496094 25.925781 25.476562 25.929688 25.453125 Z M 27.320312 33.5625 C 27.136719 33.691406 24.898438 34.253906 23.101562 33.890625 C 23.101562 33.890625 22.789062 34.703125 22.605469 34.78125 C 22.421875 34.859375 20.660156 35.152344 20.308594 34.742188 C 19.953125 34.335938 20.128906 34.089844 20.128906 34.089844 L 19.308594 34.109375 C 19.308594 34.109375 19.4375 35.070312 18.125 35.042969 C 16.8125 35.015625 16.527344 34.863281 16.214844 34.171875 L 10.578125 33.964844 C 10.578125 33.964844 10.125 32.496094 11.226562 32.371094 L 10.878906 31.65625 C 10.878906 31.65625 11.535156 28.398438 11.640625 26.824219 C 11.746094 25.25 13.359375 19.617188 17.070312 22.589844 C 17.070312 22.589844 17.441406 22.980469 17.757812 22.796875 C 18.074219 22.609375 16.054688 19.703125 16.445312 17.71875 C 16.445312 17.71875 15.660156 16.707031 15.4375 16.207031 C 15.292969 15.777344 15.054688 14.757812 15.457031 14.089844 C 15.871094 13.398438 15.324219 13.140625 15.105469 12.882812 C 14.882812 12.621094 14.546875 9.890625 16.441406 8.40625 C 18.332031 6.925781 19.855469 8.5 20.003906 8.945312 C 20.152344 9.394531 20.414062 9.167969 20.488281 8.984375 C 20.5625 8.800781 21.386719 6.71875 23.476562 7.945312 C 25.671875 9.230469 25.777344 12.34375 24.8125 13.011719 C 24.8125 13.011719 26.707031 15.105469 24.570312 17.035156 C 24.570312 17.035156 23.625 21.214844 22.550781 22.476562 C 22.550781 22.476562 22.179688 22.847656 22.382812 23.125 C 22.589844 23.40625 22.882812 23.089844 23.015625 22.996094 C 23.144531 22.90625 24.015625 22.179688 25.945312 23.277344 C 25.945312 23.277344 25.976562 25.695312 25.660156 26.640625 C 25.515625 27.070312 25.316406 27.808594 25.070312 28.59375 C 25.507812 27.382812 25.859375 26.242188 25.921875 25.519531 C 25.964844 25.871094 26.292969 27.441406 26.667969 28.773438 C 26.96875 29.828125 27.390625 30.328125 27.390625 30.328125 L 26.574219 31.535156 L 26.234375 32.125 C 26.234375 32.125 27.203125 32.039062 27.316406 32.59375 C 27.433594 33.152344 27.507812 33.433594 27.320312 33.5625 Z M 21.613281 10.960938 C 21.613281 10.960938 20.15625 10.507812 19.210938 11.074219 C 19.210938 11.074219 19.96875 11.996094 20.417969 11.945312 C 20.859375 11.898438 21.574219 11.113281 21.613281 10.960938 Z M 24.160156 30.964844 C 24.117188 31.042969 24.074219 31.117188 24.035156 31.1875 C 23.554688 31.964844 23.296875 32.929688 23.179688 33.46875 C 23.355469 32.957031 23.734375 32.03125 24.160156 30.964844 Z M 24.160156 30.964844 " fill-opacity="1" fill-rule="nonzero"/></g><path fill="#f76988" d="M 21.957031 13.902344 C 21.957031 13.902344 21.753906 15.535156 20.492188 15.667969 C 19.230469 15.796875 18.820312 14.035156 18.820312 14.035156 L 20.398438 13.289062 Z M 21.957031 13.902344 " fill-opacity="1" fill-rule="nonzero"/><g clip-path="url(#13031d66bb)"><path fill="#926f69" d="M 27.921875 25.761719 C 27.246094 24.675781 26.367188 23.894531 26.277344 23.8125 C 26.285156 23.628906 26.28125 23.492188 26.257812 23.414062 C 26.164062 23.105469 25.992188 18.890625 25.898438 16.09375 C 26.195312 15.730469 26.550781 15.289062 26.878906 14.875 C 27.210938 14.457031 27.523438 14.054688 27.761719 13.746094 C 28.1875 13.191406 28.1875 13.179688 28.1875 13.105469 C 28.1875 13.050781 28.164062 13 28.121094 12.960938 C 28.039062 12.886719 27.941406 12.902344 27.648438 12.9375 C 27.625 12.9375 27.601562 12.941406 27.574219 12.945312 C 27.796875 12.679688 28.101562 12.277344 28.125 12.015625 C 28.128906 11.988281 28.125 11.957031 28.113281 11.933594 C 27.785156 11.0625 26.105469 9.335938 25.402344 8.632812 C 25.273438 8.511719 25.152344 8.386719 25.027344 8.265625 C 25.003906 7.96875 24.90625 6.71875 24.511719 5.34375 C 24.25 4.429688 23.914062 3.652344 23.511719 3.03125 C 23 2.242188 22.375 1.703125 21.660156 1.429688 C 21.570312 1.394531 21.464844 1.4375 21.425781 1.527344 C 21.386719 1.613281 20.53125 3.636719 20.484375 5.96875 C 20.148438 5.992188 19.777344 6.027344 19.394531 6.070312 C 19.339844 6.074219 18.660156 6.144531 17.960938 6.226562 C 16.15625 2.03125 15.78125 1.992188 15.640625 1.972656 C 15.582031 1.96875 15.527344 1.980469 15.484375 2.015625 C 14.839844 2.429688 14.410156 3.851562 14.175781 6.34375 C 14.027344 7.96875 14.015625 9.523438 14.015625 9.828125 C 13.332031 10.914062 12.011719 13.058594 11.910156 13.457031 C 11.890625 13.539062 11.898438 13.605469 11.941406 13.660156 C 12.019531 13.761719 12.429688 14.0625 12.753906 14.265625 C 12.582031 14.285156 12.394531 14.300781 12.328125 14.285156 C 12.269531 14.265625 12.199219 14.277344 12.148438 14.316406 C 12.097656 14.359375 12.070312 14.429688 12.082031 14.496094 C 12.09375 14.558594 12.101562 14.597656 12.601562 15.078125 C 12.800781 15.265625 13.207031 15.648438 13.71875 16.089844 C 13.984375 16.3125 14.28125 16.558594 14.582031 16.796875 C 14.492188 17.0625 14.121094 18.160156 13.582031 20.28125 C 13.1875 21.851562 12.664062 22.664062 11.710938 23.527344 C 11.460938 22.796875 10.90625 20.8125 11.609375 19.261719 C 11.996094 18.414062 12.707031 17.8125 13.730469 17.476562 C 13.78125 17.460938 13.824219 17.417969 13.847656 17.367188 C 13.867188 17.316406 13.863281 17.257812 13.835938 17.210938 C 13.820312 17.179688 13.410156 16.429688 12.644531 15.851562 C 11.925781 15.304688 10.757812 14.8125 9.265625 15.574219 C 7.777344 16.335938 7.398438 17.558594 7.339844 18.449219 C 7.3125 18.894531 7.363281 19.300781 7.417969 19.609375 C 7.226562 19.375 6.9375 18.992188 6.511719 18.363281 C 6.464844 18.292969 6.390625 18.257812 6.3125 18.269531 C 6.273438 18.277344 6.179688 18.304688 6.140625 18.429688 C 6.074219 18.667969 6.152344 19.625 6.652344 20.882812 C 7.085938 21.972656 7.964844 23.589844 9.695312 25.15625 C 9.007812 25.777344 8.644531 26.617188 8.636719 27.601562 C 8.625 28.976562 9.3125 30.382812 9.957031 30.898438 C 10.582031 31.402344 10.871094 31.96875 10.984375 32.246094 C 10.613281 32.390625 10.390625 32.714844 10.339844 33.179688 C 10.308594 33.453125 10.347656 34 10.574219 34.101562 C 10.628906 34.125 10.6875 34.148438 13.402344 34.257812 C 14.589844 34.304688 15.773438 34.347656 16.023438 34.355469 C 16.246094 34.808594 16.316406 34.902344 16.371094 34.9375 C 16.515625 35.023438 17.175781 35.128906 17.722656 35.15625 C 17.816406 35.15625 17.902344 35.160156 17.988281 35.160156 C 18.683594 35.160156 19.140625 35.027344 19.347656 34.761719 C 19.464844 34.609375 19.507812 34.445312 19.5 34.285156 C 19.683594 34.273438 19.867188 34.269531 19.980469 34.269531 C 19.988281 34.386719 20.019531 34.507812 20.078125 34.617188 C 20.207031 34.859375 20.449219 35.019531 20.796875 35.097656 C 20.800781 35.097656 20.804688 35.097656 20.808594 35.101562 C 20.957031 35.128906 21.132812 35.148438 21.324219 35.148438 C 22.75 35.148438 23.085938 34.566406 23.199219 34.074219 C 23.523438 34.082031 23.847656 34.097656 24.160156 34.109375 C 24.59375 34.132812 25.007812 34.148438 25.394531 34.148438 C 26.488281 34.148438 27.328125 33.996094 27.550781 33.269531 C 27.671875 32.875 27.652344 32.5625 27.488281 32.335938 C 27.234375 31.980469 26.726562 31.953125 26.4375 31.945312 C 26.625 31.660156 27.160156 30.964844 28.109375 29.71875 C 28.9375 28.652344 28.867188 27.285156 27.921875 25.761719 Z M 21.703125 1.839844 C 23.894531 2.847656 24.480469 6.546875 24.625 7.871094 C 24.402344 7.660156 24.1875 7.464844 23.980469 7.277344 C 24.015625 6.234375 23.671875 5.214844 23.371094 4.53125 C 23.066406 3.832031 22.667969 3.1875 22.484375 3.097656 C 22.410156 3.058594 22.324219 3.066406 22.265625 3.117188 C 22.214844 3.152344 22.164062 3.230469 22.203125 3.367188 C 22.28125 3.660156 21.992188 5.054688 21.789062 5.867188 C 21.789062 5.875 21.785156 5.878906 21.785156 5.886719 C 21.652344 5.886719 21.488281 5.894531 21.273438 5.910156 C 21.148438 5.914062 21.011719 5.925781 20.867188 5.9375 C 20.910156 4.066406 21.5 2.375 21.703125 1.839844 Z M 22.289062 5.941406 C 22.265625 5.917969 22.234375 5.902344 22.164062 5.890625 C 22.253906 5.53125 22.507812 4.46875 22.570312 3.78125 C 22.949219 4.402344 23.554688 5.691406 23.609375 6.949219 C 23.042969 6.460938 22.570312 6.097656 22.289062 5.941406 Z M 15.617188 2.378906 C 15.773438 2.546875 16.28125 3.261719 17.585938 6.265625 C 17.402344 6.289062 17.226562 6.316406 17.066406 6.335938 C 17.050781 6.324219 17.035156 6.316406 17.015625 6.308594 C 16.90625 6.261719 16.492188 5.949219 15.902344 3.996094 C 15.894531 3.972656 15.886719 3.953125 15.886719 3.9375 C 15.835938 3.769531 15.699219 3.785156 15.671875 3.792969 C 15.617188 3.800781 15.570312 3.832031 15.542969 3.875 C 14.753906 5.050781 15.199219 7.847656 15.21875 7.96875 C 15.21875 7.976562 15.222656 7.976562 15.222656 7.980469 C 14.976562 8.351562 14.691406 8.777344 14.394531 9.238281 C 14.410156 8.582031 14.441406 7.496094 14.546875 6.378906 C 14.8125 3.539062 15.300781 2.652344 15.617188 2.378906 Z M 15.539062 7.527344 C 15.460938 6.84375 15.34375 5.382812 15.664062 4.472656 C 15.972656 5.429688 16.28125 6.085938 16.578125 6.421875 C 16.507812 6.433594 16.453125 6.449219 16.425781 6.460938 C 16.355469 6.492188 16.21875 6.550781 15.539062 7.527344 Z M 6.53125 19.042969 C 7.433594 20.328125 7.632812 20.332031 7.734375 20.332031 C 7.800781 20.332031 7.867188 20.304688 7.902344 20.253906 C 7.941406 20.199219 7.953125 20.136719 7.929688 20.074219 C 7.925781 20.066406 7.660156 19.347656 7.714844 18.476562 C 7.785156 17.316406 8.363281 16.453125 9.433594 15.910156 C 10.496094 15.371094 11.496094 15.449219 12.414062 16.140625 C 12.898438 16.503906 13.234375 16.957031 13.394531 17.203125 C 12.390625 17.585938 11.675781 18.226562 11.277344 19.113281 C 10.457031 20.917969 11.179688 23.164062 11.414062 23.792969 C 11.027344 24.125 10.578125 24.472656 10.046875 24.882812 L 9.988281 24.925781 C 7.394531 22.589844 6.675781 20.097656 6.53125 19.042969 Z M 22.890625 33.730469 C 22.832031 34.136719 22.769531 34.582031 21.972656 34.730469 C 21.980469 34.53125 22.042969 34.1875 22.109375 33.902344 C 22.132812 33.804688 22.074219 33.703125 21.972656 33.679688 C 21.875 33.652344 21.773438 33.714844 21.75 33.8125 C 21.707031 33.976562 21.601562 34.453125 21.605469 34.773438 C 21.519531 34.777344 21.433594 34.777344 21.332031 34.777344 C 21.238281 34.777344 21.132812 34.777344 21.03125 34.761719 C 21.050781 34.539062 21.167969 34.160156 21.265625 33.910156 C 21.300781 33.8125 21.253906 33.707031 21.160156 33.671875 C 21.0625 33.632812 20.953125 33.679688 20.921875 33.777344 C 20.878906 33.882812 20.714844 34.320312 20.671875 34.667969 C 20.5625 34.617188 20.472656 34.542969 20.417969 34.445312 C 20.257812 34.148438 20.460938 33.671875 20.574219 33.5 C 20.597656 33.464844 20.632812 33.4375 20.683594 33.394531 C 21.085938 33.074219 21.699219 32.59375 21.730469 25.226562 C 21.730469 25.125 21.652344 25.039062 21.546875 25.039062 C 21.445312 25.039062 21.363281 25.121094 21.363281 25.222656 C 21.328125 32.410156 20.761719 32.859375 20.457031 33.101562 C 20.394531 33.148438 20.328125 33.203125 20.269531 33.289062 C 20.199219 33.398438 20.078125 33.628906 20.023438 33.894531 C 19.910156 33.894531 19.722656 33.898438 19.414062 33.917969 C 19.265625 33.609375 18.996094 33.332031 18.8125 33.140625 C 18.742188 33.0625 18.675781 32.996094 18.640625 32.953125 C 18.503906 32.539062 18.132812 27.777344 17.929688 24.84375 C 17.925781 24.742188 17.835938 24.664062 17.734375 24.671875 C 17.628906 24.675781 17.550781 24.765625 17.558594 24.867188 C 17.558594 24.890625 17.699219 26.871094 17.859375 28.867188 C 18.1875 32.949219 18.273438 33.074219 18.328125 33.152344 C 18.378906 33.222656 18.453125 33.300781 18.546875 33.398438 C 18.941406 33.808594 19.304688 34.230469 19.070312 34.535156 C 18.996094 34.628906 18.832031 34.699219 18.59375 34.742188 C 18.535156 34.175781 18.253906 33.761719 18.242188 33.742188 C 18.183594 33.65625 18.066406 33.636719 17.980469 33.695312 C 17.898438 33.753906 17.875 33.867188 17.929688 33.953125 C 17.933594 33.957031 18.167969 34.316406 18.222656 34.785156 C 18.089844 34.792969 17.945312 34.792969 17.789062 34.789062 C 17.730469 34.785156 17.671875 34.78125 17.613281 34.777344 C 17.59375 34.625 17.535156 34.355469 17.394531 33.882812 C 17.367188 33.785156 17.261719 33.726562 17.164062 33.757812 C 17.066406 33.785156 17.007812 33.890625 17.039062 33.988281 C 17.113281 34.25 17.191406 34.558594 17.226562 34.746094 C 16.917969 34.707031 16.679688 34.660156 16.59375 34.628906 C 16.414062 34.359375 15.574219 32.503906 15.015625 31.269531 C 14.617188 30.382812 14.269531 29.621094 14.152344 29.394531 C 14.003906 29.109375 13.691406 28.34375 13.480469 27.289062 C 13.21875 25.980469 13.183594 24.6875 13.386719 23.445312 C 13.402344 23.34375 13.335938 23.25 13.234375 23.234375 C 13.128906 23.21875 13.035156 23.285156 13.019531 23.386719 C 12.554688 26.292969 13.445312 28.832031 13.824219 29.570312 C 13.9375 29.789062 14.28125 30.542969 14.683594 31.425781 C 15.246094 32.667969 15.613281 33.46875 15.859375 33.984375 C 13.933594 33.917969 11.25 33.8125 10.773438 33.765625 C 10.726562 33.628906 10.664062 33.25 10.796875 32.9375 C 10.886719 32.730469 11.042969 32.609375 11.277344 32.5625 C 11.328125 32.554688 11.371094 32.523438 11.398438 32.480469 C 11.425781 32.4375 11.4375 32.386719 11.421875 32.335938 C 11.414062 32.296875 11.171875 31.394531 10.207031 30.621094 C 9.707031 30.21875 9.015625 28.949219 9.027344 27.617188 C 9.039062 26.636719 9.414062 25.855469 10.152344 25.289062 L 10.289062 25.183594 C 10.820312 24.773438 11.277344 24.421875 11.675781 24.085938 C 11.699219 24.085938 11.722656 24.082031 11.742188 24.070312 C 11.804688 24.042969 11.84375 23.988281 11.855469 23.925781 C 12.921875 22.984375 13.53125 22.109375 13.96875 20.378906 C 14.441406 18.511719 14.789062 17.429688 14.921875 17.035156 C 15.449219 17.425781 15.984375 17.761719 16.40625 17.898438 C 16.425781 17.90625 16.449219 17.910156 16.464844 17.910156 C 16.542969 17.910156 16.613281 17.863281 16.640625 17.785156 C 16.675781 17.683594 16.621094 17.582031 16.527344 17.546875 C 15.453125 17.191406 13.449219 15.371094 12.71875 14.652344 C 12.75 14.652344 12.777344 14.648438 12.796875 14.644531 C 13.261719 14.589844 13.335938 14.5 13.371094 14.414062 C 13.414062 14.324219 13.390625 14.191406 13.242188 14.117188 C 13.019531 14.007812 12.5 13.640625 12.316406 13.488281 C 12.457031 13.144531 13.207031 11.839844 14.308594 10.101562 C 15.640625 7.996094 16.425781 6.917969 16.597656 6.804688 C 16.746094 6.753906 17.824219 6.605469 19.34375 6.449219 C 20.941406 6.289062 21.929688 6.234375 22.109375 6.261719 C 23.15625 6.808594 27.226562 10.730469 27.777344 12.023438 C 27.714844 12.238281 27.304688 12.746094 27.089844 12.960938 C 26.984375 13.070312 27.023438 13.183594 27.039062 13.214844 C 27.113281 13.371094 27.296875 13.359375 27.65625 13.316406 C 27.050781 14.113281 25.359375 16.234375 25.082031 16.515625 C 25.007812 16.585938 25.007812 16.707031 25.082031 16.777344 C 25.152344 16.847656 25.269531 16.847656 25.34375 16.777344 C 25.390625 16.730469 25.46875 16.640625 25.566406 16.527344 C 25.625 18.1875 25.808594 23.121094 25.925781 23.523438 C 25.964844 23.671875 25.882812 24.632812 25.609375 26.050781 C 25.328125 27.511719 24.992188 28.699219 24.707031 29.238281 C 24.035156 30.496094 23.015625 33.082031 22.925781 33.628906 C 22.902344 33.65625 22.894531 33.691406 22.890625 33.730469 Z M 26.34375 31.445312 C 26.042969 31.859375 25.984375 31.976562 26.003906 32.097656 C 26.019531 32.199219 26.09375 32.246094 26.125 32.269531 C 26.1875 32.3125 26.265625 32.3125 26.40625 32.320312 C 26.628906 32.328125 27.039062 32.339844 27.195312 32.554688 C 27.285156 32.6875 27.289062 32.890625 27.207031 33.167969 C 26.992188 33.871094 25.695312 33.8125 24.191406 33.746094 C 23.890625 33.734375 23.582031 33.71875 23.273438 33.707031 C 23.273438 33.703125 23.277344 33.691406 23.277344 33.679688 C 23.351562 33.214844 24.332031 30.695312 25.015625 29.410156 C 25.453125 28.589844 25.816406 26.832031 25.957031 26.117188 C 26.046875 25.644531 26.175781 24.890625 26.242188 24.285156 C 26.550781 24.585938 27.140625 25.199219 27.609375 25.960938 C 28.480469 27.359375 28.550781 28.550781 27.828125 29.5 C 27.050781 30.503906 26.605469 31.089844 26.34375 31.445312 Z M 23.007812 12.347656 C 22.910156 12.371094 22.847656 12.472656 22.867188 12.574219 C 22.976562 13.046875 22.9375 13.363281 22.746094 13.515625 C 22.320312 13.847656 21.128906 13.453125 20.476562 13.125 C 20.421875 13.097656 20.359375 13.097656 20.304688 13.128906 C 18.335938 14.21875 17.789062 14.046875 17.644531 13.925781 C 17.433594 13.742188 17.597656 13.273438 17.601562 13.261719 C 17.632812 13.167969 17.585938 13.058594 17.492188 13.023438 C 17.394531 12.988281 17.285156 13.039062 17.253906 13.132812 C 17.242188 13.164062 16.992188 13.847656 17.402344 14.203125 C 17.542969 14.324219 17.734375 14.382812 17.980469 14.382812 C 18.179688 14.382812 18.414062 14.34375 18.691406 14.261719 C 18.75 14.4375 18.855469 14.71875 19.023438 14.996094 C 19.371094 15.5625 19.828125 15.855469 20.359375 15.855469 C 20.410156 15.855469 20.457031 15.855469 20.507812 15.851562 C 21.746094 15.722656 22.066406 14.359375 22.128906 14.007812 C 22.453125 14.027344 22.757812 13.976562 22.976562 13.800781 C 23.292969 13.550781 23.378906 13.109375 23.230469 12.484375 C 23.207031 12.390625 23.109375 12.328125 23.007812 12.347656 Z M 20.472656 15.480469 C 19.585938 15.574219 19.171875 14.542969 19.042969 14.140625 C 19.433594 13.996094 19.882812 13.78125 20.398438 13.5 C 20.441406 13.523438 20.492188 13.546875 20.550781 13.570312 L 20.53125 14.214844 C 20.527344 14.316406 20.609375 14.402344 20.710938 14.40625 C 20.710938 14.40625 20.714844 14.40625 20.714844 14.40625 C 20.816406 14.40625 20.898438 14.328125 20.898438 14.222656 L 20.914062 13.71875 C 21.160156 13.8125 21.453125 13.90625 21.753906 13.960938 C 21.699219 14.277344 21.417969 15.386719 20.472656 15.480469 Z M 18.539062 11.285156 C 18.570312 11.355469 18.636719 11.398438 18.707031 11.398438 C 18.730469 11.398438 18.757812 11.394531 18.78125 11.382812 C 18.785156 11.382812 18.917969 11.328125 19.121094 11.257812 C 19.332031 11.5 19.921875 12.132812 20.386719 12.132812 C 20.402344 12.132812 20.417969 12.132812 20.4375 12.132812 C 20.734375 12.101562 21.066406 11.839844 21.296875 11.628906 C 21.3125 11.617188 21.621094 11.328125 21.746094 11.117188 C 21.792969 11.144531 21.839844 11.175781 21.878906 11.210938 C 21.957031 11.273438 22.078125 11.265625 22.140625 11.183594 C 22.207031 11.105469 22.195312 10.984375 22.113281 10.921875 C 21.035156 10.042969 18.734375 11.003906 18.640625 11.042969 C 18.542969 11.082031 18.496094 11.191406 18.539062 11.285156 Z M 21.390625 10.980469 C 21.222656 11.207031 20.691406 11.730469 20.394531 11.761719 C 20.199219 11.78125 19.800781 11.445312 19.511719 11.136719 C 20.0625 10.980469 20.8125 10.835938 21.390625 10.980469 Z M 17.730469 10.269531 C 17.714844 9.796875 17.828125 9.324219 18.109375 9.296875 C 18.40625 9.269531 18.628906 9.738281 18.609375 10.222656 C 18.589844 10.695312 18.523438 11.070312 18.191406 11.0625 C 17.988281 11.058594 17.746094 10.808594 17.730469 10.269531 Z M 21.929688 10.035156 C 21.871094 9.5625 21.941406 9.085938 22.214844 9.03125 C 22.507812 8.976562 22.777344 9.425781 22.800781 9.90625 C 22.824219 10.382812 22.796875 10.761719 22.460938 10.785156 C 22.257812 10.792969 21.996094 10.566406 21.929688 10.035156 Z M 21.929688 10.035156 " fill-opacity="1" fill-rule="nonzero"/></g></svg>