<svg xmlns="http://www.w3.org/2000/svg" xmlns:xlink="http://www.w3.org/1999/xlink" width="50" zoomAndPan="magnify" viewBox="0 0 37.5 37.499999" height="50" preserveAspectRatio="xMidYMid meet" version="1.0"><defs><clipPath id="7953ff358c"><path d="M 0 0 L 36.851562 0 L 36.851562 36.851562 L 0 36.851562 Z M 0 0 " clip-rule="nonzero"/></clipPath><clipPath id="01689e7104"><path d="M 18.425781 0 C 8.25 0 0 8.25 0 18.425781 C 0 28.601562 8.25 36.851562 18.425781 36.851562 C 28.601562 36.851562 36.851562 28.601562 36.851562 18.425781 C 36.851562 8.25 28.601562 0 18.425781 0 Z M 18.425781 0 " clip-rule="nonzero"/></clipPath><linearGradient x1="0.000000000000054801" gradientTransform="matrix(0.143946, 0, 0, 0.143946, 0.0000005, 0)" y1="128" x2="255.999988" gradientUnits="userSpaceOnUse" y2="128" id="ae3f163f25"><stop stop-opacity="1" stop-color="rgb(65.098572%, 65.098572%, 65.098572%)" offset="0"/><stop stop-opacity="1" stop-color="rgb(65.234375%, 65.234375%, 65.234375%)" offset="0.0078125"/><stop stop-opacity="1" stop-color="rgb(65.507507%, 65.507507%, 65.507507%)" offset="0.015625"/><stop stop-opacity="1" stop-color="rgb(65.78064%, 65.78064%, 65.78064%)" offset="0.0234375"/><stop stop-opacity="1" stop-color="rgb(66.052246%, 66.052246%, 66.052246%)" offset="0.03125"/><stop stop-opacity="1" stop-color="rgb(66.325378%, 66.325378%, 66.325378%)" offset="0.0390625"/><stop stop-opacity="1" stop-color="rgb(66.598511%, 66.598511%, 66.598511%)" offset="0.046875"/><stop stop-opacity="1" stop-color="rgb(66.871643%, 66.871643%, 66.871643%)" offset="0.0546875"/><stop stop-opacity="1" stop-color="rgb(67.14325%, 67.14325%, 67.14325%)" offset="0.0625"/><stop stop-opacity="1" stop-color="rgb(67.416382%, 67.416382%, 67.416382%)" offset="0.0703125"/><stop stop-opacity="1" stop-color="rgb(67.689514%, 67.689514%, 67.689514%)" offset="0.078125"/><stop stop-opacity="1" stop-color="rgb(67.961121%, 67.961121%, 67.961121%)" offset="0.0859375"/><stop stop-opacity="1" stop-color="rgb(68.234253%, 68.234253%, 68.234253%)" offset="0.09375"/><stop stop-opacity="1" stop-color="rgb(68.507385%, 68.507385%, 68.507385%)" offset="0.101563"/><stop stop-opacity="1" stop-color="rgb(68.778992%, 68.778992%, 68.778992%)" offset="0.109375"/><stop stop-opacity="1" stop-color="rgb(69.052124%, 69.052124%, 69.052124%)" offset="0.117188"/><stop stop-opacity="1" stop-color="rgb(69.325256%, 69.325256%, 69.325256%)" offset="0.125"/><stop stop-opacity="1" stop-color="rgb(69.596863%, 69.596863%, 69.596863%)" offset="0.132812"/><stop stop-opacity="1" stop-color="rgb(69.869995%, 69.869995%, 69.869995%)" offset="0.140625"/><stop stop-opacity="1" stop-color="rgb(70.143127%, 70.143127%, 70.143127%)" offset="0.148438"/><stop stop-opacity="1" stop-color="rgb(70.41626%, 70.41626%, 70.41626%)" offset="0.15625"/><stop stop-opacity="1" stop-color="rgb(70.687866%, 70.687866%, 70.687866%)" offset="0.164062"/><stop stop-opacity="1" stop-color="rgb(70.960999%, 70.960999%, 70.960999%)" offset="0.171875"/><stop stop-opacity="1" stop-color="rgb(71.234131%, 71.234131%, 71.234131%)" offset="0.179688"/><stop stop-opacity="1" stop-color="rgb(71.505737%, 71.505737%, 71.505737%)" offset="0.1875"/><stop stop-opacity="1" stop-color="rgb(71.77887%, 71.77887%, 71.77887%)" offset="0.195312"/><stop stop-opacity="1" stop-color="rgb(72.052002%, 72.052002%, 72.052002%)" offset="0.203125"/><stop stop-opacity="1" stop-color="rgb(72.323608%, 72.323608%, 72.323608%)" offset="0.210938"/><stop stop-opacity="1" stop-color="rgb(72.596741%, 72.596741%, 72.596741%)" offset="0.21875"/><stop stop-opacity="1" stop-color="rgb(72.869873%, 72.869873%, 72.869873%)" offset="0.226563"/><stop stop-opacity="1" stop-color="rgb(73.141479%, 73.141479%, 73.141479%)" offset="0.234375"/><stop stop-opacity="1" stop-color="rgb(73.414612%, 73.414612%, 73.414612%)" offset="0.242188"/><stop stop-opacity="1" stop-color="rgb(73.687744%, 73.687744%, 73.687744%)" offset="0.25"/><stop stop-opacity="1" stop-color="rgb(73.959351%, 73.959351%, 73.959351%)" offset="0.257812"/><stop stop-opacity="1" stop-color="rgb(74.232483%, 74.232483%, 74.232483%)" offset="0.265625"/><stop stop-opacity="1" stop-color="rgb(74.505615%, 74.505615%, 74.505615%)" offset="0.273438"/><stop stop-opacity="1" stop-color="rgb(74.778748%, 74.778748%, 74.778748%)" offset="0.28125"/><stop stop-opacity="1" stop-color="rgb(75.050354%, 75.050354%, 75.050354%)" offset="0.289062"/><stop stop-opacity="1" stop-color="rgb(75.323486%, 75.323486%, 75.323486%)" offset="0.296875"/><stop stop-opacity="1" stop-color="rgb(75.596619%, 75.596619%, 75.596619%)" offset="0.304688"/><stop stop-opacity="1" stop-color="rgb(75.868225%, 75.868225%, 75.868225%)" offset="0.3125"/><stop stop-opacity="1" stop-color="rgb(76.141357%, 76.141357%, 76.141357%)" offset="0.320312"/><stop stop-opacity="1" stop-color="rgb(76.41449%, 76.41449%, 76.41449%)" offset="0.328125"/><stop stop-opacity="1" stop-color="rgb(76.686096%, 76.686096%, 76.686096%)" offset="0.335938"/><stop stop-opacity="1" stop-color="rgb(76.959229%, 76.959229%, 76.959229%)" offset="0.34375"/><stop stop-opacity="1" stop-color="rgb(77.232361%, 77.232361%, 77.232361%)" offset="0.351562"/><stop stop-opacity="1" stop-color="rgb(77.503967%, 77.503967%, 77.503967%)" offset="0.359375"/><stop stop-opacity="1" stop-color="rgb(77.7771%, 77.7771%, 77.7771%)" offset="0.367188"/><stop stop-opacity="1" stop-color="rgb(78.050232%, 78.050232%, 78.050232%)" offset="0.375"/><stop stop-opacity="1" stop-color="rgb(78.321838%, 78.321838%, 78.321838%)" offset="0.382812"/><stop stop-opacity="1" stop-color="rgb(78.594971%, 78.594971%, 78.594971%)" offset="0.390625"/><stop stop-opacity="1" stop-color="rgb(78.868103%, 78.868103%, 78.868103%)" offset="0.398438"/><stop stop-opacity="1" stop-color="rgb(79.141235%, 79.141235%, 79.141235%)" offset="0.40625"/><stop stop-opacity="1" stop-color="rgb(79.412842%, 79.412842%, 79.412842%)" offset="0.414062"/><stop stop-opacity="1" stop-color="rgb(79.685974%, 79.685974%, 79.685974%)" offset="0.421875"/><stop stop-opacity="1" stop-color="rgb(79.959106%, 79.959106%, 79.959106%)" offset="0.429688"/><stop stop-opacity="1" stop-color="rgb(80.230713%, 80.230713%, 80.230713%)" offset="0.4375"/><stop stop-opacity="1" stop-color="rgb(80.503845%, 80.503845%, 80.503845%)" offset="0.445312"/><stop stop-opacity="1" stop-color="rgb(80.776978%, 80.776978%, 80.776978%)" offset="0.453125"/><stop stop-opacity="1" stop-color="rgb(81.048584%, 81.048584%, 81.048584%)" offset="0.460938"/><stop stop-opacity="1" stop-color="rgb(81.321716%, 81.321716%, 81.321716%)" offset="0.46875"/><stop stop-opacity="1" stop-color="rgb(81.594849%, 81.594849%, 81.594849%)" offset="0.476562"/><stop stop-opacity="1" stop-color="rgb(81.866455%, 81.866455%, 81.866455%)" offset="0.484375"/><stop stop-opacity="1" stop-color="rgb(82.139587%, 82.139587%, 82.139587%)" offset="0.492187"/><stop stop-opacity="1" stop-color="rgb(82.41272%, 82.41272%, 82.41272%)" offset="0.5"/><stop stop-opacity="1" stop-color="rgb(82.684326%, 82.684326%, 82.684326%)" offset="0.507812"/><stop stop-opacity="1" stop-color="rgb(82.957458%, 82.957458%, 82.957458%)" offset="0.515625"/><stop stop-opacity="1" stop-color="rgb(83.230591%, 83.230591%, 83.230591%)" offset="0.523438"/><stop stop-opacity="1" stop-color="rgb(83.503723%, 83.503723%, 83.503723%)" offset="0.53125"/><stop stop-opacity="1" stop-color="rgb(83.77533%, 83.77533%, 83.77533%)" offset="0.539062"/><stop stop-opacity="1" stop-color="rgb(84.048462%, 84.048462%, 84.048462%)" offset="0.546875"/><stop stop-opacity="1" stop-color="rgb(84.321594%, 84.321594%, 84.321594%)" offset="0.554688"/><stop stop-opacity="1" stop-color="rgb(84.593201%, 84.593201%, 84.593201%)" offset="0.5625"/><stop stop-opacity="1" stop-color="rgb(84.866333%, 84.866333%, 84.866333%)" offset="0.570312"/><stop stop-opacity="1" stop-color="rgb(85.139465%, 85.139465%, 85.139465%)" offset="0.578125"/><stop stop-opacity="1" stop-color="rgb(85.411072%, 85.411072%, 85.411072%)" offset="0.585938"/><stop stop-opacity="1" stop-color="rgb(85.684204%, 85.684204%, 85.684204%)" offset="0.59375"/><stop stop-opacity="1" stop-color="rgb(85.957336%, 85.957336%, 85.957336%)" offset="0.601562"/><stop stop-opacity="1" stop-color="rgb(86.228943%, 86.228943%, 86.228943%)" offset="0.609375"/><stop stop-opacity="1" stop-color="rgb(86.502075%, 86.502075%, 86.502075%)" offset="0.617188"/><stop stop-opacity="1" stop-color="rgb(86.775208%, 86.775208%, 86.775208%)" offset="0.625"/><stop stop-opacity="1" stop-color="rgb(87.046814%, 87.046814%, 87.046814%)" offset="0.632812"/><stop stop-opacity="1" stop-color="rgb(87.319946%, 87.319946%, 87.319946%)" offset="0.640625"/><stop stop-opacity="1" stop-color="rgb(87.593079%, 87.593079%, 87.593079%)" offset="0.648438"/><stop stop-opacity="1" stop-color="rgb(87.866211%, 87.866211%, 87.866211%)" offset="0.65625"/><stop stop-opacity="1" stop-color="rgb(88.137817%, 88.137817%, 88.137817%)" offset="0.664062"/><stop stop-opacity="1" stop-color="rgb(88.41095%, 88.41095%, 88.41095%)" offset="0.671875"/><stop stop-opacity="1" stop-color="rgb(88.684082%, 88.684082%, 88.684082%)" offset="0.679688"/><stop stop-opacity="1" stop-color="rgb(88.955688%, 88.955688%, 88.955688%)" offset="0.6875"/><stop stop-opacity="1" stop-color="rgb(89.228821%, 89.228821%, 89.228821%)" offset="0.695312"/><stop stop-opacity="1" stop-color="rgb(89.501953%, 89.501953%, 89.501953%)" offset="0.703125"/><stop stop-opacity="1" stop-color="rgb(89.77356%, 89.77356%, 89.77356%)" offset="0.710938"/><stop stop-opacity="1" stop-color="rgb(90.046692%, 90.046692%, 90.046692%)" offset="0.71875"/><stop stop-opacity="1" stop-color="rgb(90.319824%, 90.319824%, 90.319824%)" offset="0.726562"/><stop stop-opacity="1" stop-color="rgb(90.591431%, 90.591431%, 90.591431%)" offset="0.734375"/><stop stop-opacity="1" stop-color="rgb(90.864563%, 90.864563%, 90.864563%)" offset="0.742188"/><stop stop-opacity="1" stop-color="rgb(91.137695%, 91.137695%, 91.137695%)" offset="0.75"/><stop stop-opacity="1" stop-color="rgb(91.409302%, 91.409302%, 91.409302%)" offset="0.757812"/><stop stop-opacity="1" stop-color="rgb(91.682434%, 91.682434%, 91.682434%)" offset="0.765625"/><stop stop-opacity="1" stop-color="rgb(91.955566%, 91.955566%, 91.955566%)" offset="0.773438"/><stop stop-opacity="1" stop-color="rgb(92.228699%, 92.228699%, 92.228699%)" offset="0.78125"/><stop stop-opacity="1" stop-color="rgb(92.500305%, 92.500305%, 92.500305%)" offset="0.789062"/><stop stop-opacity="1" stop-color="rgb(92.773438%, 92.773438%, 92.773438%)" offset="0.796875"/><stop stop-opacity="1" stop-color="rgb(93.04657%, 93.04657%, 93.04657%)" offset="0.804688"/><stop stop-opacity="1" stop-color="rgb(93.318176%, 93.318176%, 93.318176%)" offset="0.8125"/><stop stop-opacity="1" stop-color="rgb(93.591309%, 93.591309%, 93.591309%)" offset="0.820312"/><stop stop-opacity="1" stop-color="rgb(93.864441%, 93.864441%, 93.864441%)" offset="0.828125"/><stop stop-opacity="1" stop-color="rgb(94.136047%, 94.136047%, 94.136047%)" offset="0.835938"/><stop stop-opacity="1" stop-color="rgb(94.40918%, 94.40918%, 94.40918%)" offset="0.84375"/><stop stop-opacity="1" stop-color="rgb(94.682312%, 94.682312%, 94.682312%)" offset="0.851562"/><stop stop-opacity="1" stop-color="rgb(94.953918%, 94.953918%, 94.953918%)" offset="0.859375"/><stop stop-opacity="1" stop-color="rgb(95.227051%, 95.227051%, 95.227051%)" offset="0.867188"/><stop stop-opacity="1" stop-color="rgb(95.500183%, 95.500183%, 95.500183%)" offset="0.875"/><stop stop-opacity="1" stop-color="rgb(95.77179%, 95.77179%, 95.77179%)" offset="0.882812"/><stop stop-opacity="1" stop-color="rgb(96.044922%, 96.044922%, 96.044922%)" offset="0.890625"/><stop stop-opacity="1" stop-color="rgb(96.318054%, 96.318054%, 96.318054%)" offset="0.898438"/><stop stop-opacity="1" stop-color="rgb(96.591187%, 96.591187%, 96.591187%)" offset="0.90625"/><stop stop-opacity="1" stop-color="rgb(96.862793%, 96.862793%, 96.862793%)" offset="0.914062"/><stop stop-opacity="1" stop-color="rgb(97.135925%, 97.135925%, 97.135925%)" offset="0.921875"/><stop stop-opacity="1" stop-color="rgb(97.409058%, 97.409058%, 97.409058%)" offset="0.929688"/><stop stop-opacity="1" stop-color="rgb(97.680664%, 97.680664%, 97.680664%)" offset="0.9375"/><stop stop-opacity="1" stop-color="rgb(97.953796%, 97.953796%, 97.953796%)" offset="0.945313"/><stop stop-opacity="1" stop-color="rgb(98.226929%, 98.226929%, 98.226929%)" offset="0.953125"/><stop stop-opacity="1" stop-color="rgb(98.498535%, 98.498535%, 98.498535%)" offset="0.960938"/><stop stop-opacity="1" stop-color="rgb(98.771667%, 98.771667%, 98.771667%)" offset="0.96875"/><stop stop-opacity="1" stop-color="rgb(99.0448%, 99.0448%, 99.0448%)" offset="0.976562"/><stop stop-opacity="1" stop-color="rgb(99.316406%, 99.316406%, 99.316406%)" offset="0.984375"/><stop stop-opacity="1" stop-color="rgb(99.589539%, 99.589539%, 99.589539%)" offset="0.992188"/><stop stop-opacity="1" stop-color="rgb(99.862671%, 99.862671%, 99.862671%)" offset="1"/></linearGradient><clipPath id="3d3e4e96bd"><path d="M 0.234375 0.234375 L 37.007812 0.234375 L 37.007812 37.007812 L 0.234375 37.007812 Z M 0.234375 0.234375 " clip-rule="nonzero"/></clipPath><clipPath id="4a32da8ea3"><path d="M 5.671875 0.234375 L 31.570312 0.234375 C 34.574219 0.234375 37.007812 2.667969 37.007812 5.671875 L 37.007812 31.570312 C 37.007812 34.574219 34.574219 37.007812 31.570312 37.007812 L 5.671875 37.007812 C 2.667969 37.007812 0.234375 34.574219 0.234375 31.570312 L 0.234375 5.671875 C 0.234375 2.667969 2.667969 0.234375 5.671875 0.234375 Z M 5.671875 0.234375 " clip-rule="nonzero"/></clipPath><clipPath id="57999c3098"><path d="M 5.15625 1.816406 L 34 1.816406 L 34 35 L 5.15625 35 Z M 5.15625 1.816406 " clip-rule="nonzero"/></clipPath><clipPath id="749ea6d031"><path d="M 5.15625 24 L 13 24 L 13 34 L 5.15625 34 Z M 5.15625 24 " clip-rule="nonzero"/></clipPath></defs><g clip-path="url(#7953ff358c)"><g clip-path="url(#01689e7104)"><path fill="url(#ae3f163f25)" d="M 0 0 L 0 36.851562 L 36.851562 36.851562 L 36.851562 0 Z M 0 0 " fill-rule="nonzero"/></g></g><g clip-path="url(#3d3e4e96bd)"><g clip-path="url(#4a32da8ea3)"><path fill="#439b4f" d="M 0.234375 0.234375 L 37.007812 0.234375 L 37.007812 37.007812 L 0.234375 37.007812 Z M 0.234375 0.234375 " fill-opacity="1" fill-rule="nonzero"/></g></g><g clip-path="url(#57999c3098)"><path fill="#ce8043" d="M 33.390625 22.292969 C 33.257812 21.914062 32.84375 21.71875 32.460938 21.832031 C 32.078125 21.964844 31.878906 22.375 31.996094 22.757812 C 32.476562 24.175781 32.445312 25.378906 31.898438 26.300781 C 31.613281 26.777344 31.214844 27.160156 30.800781 27.4375 C 30.785156 27.339844 30.769531 27.257812 30.75 27.160156 C 30.222656 24.75 27.882812 24.667969 27.882812 24.667969 L 27.867188 24.652344 C 28.148438 23.84375 28.28125 23.085938 28.3125 22.410156 C 28.414062 19.789062 26.917969 18.140625 26.304688 17.59375 C 26.355469 17.546875 26.40625 17.480469 26.4375 17.429688 C 27.582031 15.945312 28.59375 14.230469 26.769531 12.285156 C 26.738281 11.5625 26.589844 10.144531 26.105469 8.496094 C 26.355469 8.726562 26.621094 8.941406 26.886719 9.171875 C 31.199219 12.683594 30.71875 8.496094 29.210938 5.394531 C 29.109375 5.179688 28.992188 4.984375 28.878906 4.785156 C 27.734375 2.839844 26.304688 2.410156 24.980469 2.328125 C 24.597656 2.296875 24.230469 2.3125 23.882812 2.3125 C 23.351562 2.3125 23.003906 2.59375 22.90625 3.070312 C 21.414062 1.867188 18.707031 1.816406 18.175781 1.816406 C 17.679688 1.816406 15.191406 1.867188 13.648438 2.9375 C 13.515625 2.558594 13.183594 2.34375 12.71875 2.328125 C 11.011719 2.328125 8.902344 2.3125 7.394531 5.410156 C 5.886719 8.511719 5.402344 12.699219 9.71875 9.1875 C 9.867188 9.054688 10.015625 8.941406 10.164062 8.808594 C 9.699219 10.488281 9.601562 11.890625 9.566406 12.484375 C 7.992188 14.347656 8.96875 15.996094 10.066406 17.429688 C 10.113281 17.480469 10.148438 17.546875 10.199219 17.59375 C 9.566406 18.15625 8.042969 19.835938 8.191406 22.523438 C 8.222656 23.183594 8.355469 23.894531 8.636719 24.683594 C 8.621094 24.683594 6.316406 24.765625 5.785156 27.175781 C 5.15625 30.011719 9.1875 31.792969 9.1875 31.792969 C 9.1875 31.792969 6.367188 31.921875 6.316406 33.027344 C 6.316406 33.027344 5.851562 33.917969 7.378906 33.949219 C 8.441406 33.984375 10.929688 33.96875 12.355469 33.949219 C 12.304688 34.28125 12.4375 34.609375 13.101562 34.660156 C 14.542969 34.757812 16.800781 35.121094 16.984375 33.835938 C 17.164062 32.550781 17.464844 31.773438 18.277344 31.773438 C 19.089844 31.792969 19.386719 32.566406 19.570312 33.835938 C 19.753906 35.121094 22.007812 34.757812 23.453125 34.660156 C 24.132812 34.609375 24.265625 34.28125 24.214844 33.949219 C 25.640625 33.949219 28.148438 33.96875 29.210938 33.949219 C 30.734375 33.917969 30.269531 33.027344 30.269531 33.027344 C 30.222656 31.921875 27.402344 31.792969 27.402344 31.792969 C 27.402344 31.792969 29.441406 30.882812 30.386719 29.335938 C 31.300781 28.957031 32.460938 28.261719 33.191406 27.058594 C 33.9375 25.742188 34.019531 24.140625 33.390625 22.292969 Z M 33.390625 22.292969 " fill-opacity="1" fill-rule="nonzero"/></g><path fill="#f1d4b0" d="M 16.898438 7.457031 C 16.898438 7.457031 12.933594 9.582031 10.332031 11.757812 C 7.726562 13.933594 8.820312 15.816406 10.066406 17.445312 C 11.324219 19.078125 15.375 19.441406 16.46875 17.085938 C 17.332031 15.238281 17.730469 14.25 18.027344 10.078125 C 18.277344 6.78125 16.898438 7.457031 16.898438 7.457031 Z M 16.898438 7.457031 " fill-opacity="1" fill-rule="nonzero"/><path fill="#f1d4b0" d="M 19.636719 7.457031 C 19.636719 7.457031 23.601562 9.582031 26.207031 11.757812 C 28.8125 13.933594 27.714844 15.816406 26.472656 17.445312 C 25.210938 19.078125 21.164062 19.441406 20.070312 17.085938 C 19.207031 15.238281 18.808594 14.25 18.507812 10.078125 C 18.261719 6.78125 19.636719 7.457031 19.636719 7.457031 Z M 19.636719 7.457031 " fill-opacity="1" fill-rule="nonzero"/><g clip-path="url(#749ea6d031)"><path fill="#9f5a2a" d="M 12.703125 33.226562 C 12.703125 33.226562 12.421875 33.605469 12.355469 33.96875 C 10.929688 33.96875 8.441406 33.984375 7.378906 33.949219 C 5.851562 33.917969 6.316406 33.027344 6.316406 33.027344 C 6.367188 31.921875 9.1875 31.792969 9.1875 31.792969 C 9.1875 31.792969 5.15625 30.011719 5.785156 27.175781 C 6.316406 24.765625 8.636719 24.683594 8.636719 24.683594 C 9.085938 25.953125 9.652344 27.09375 10.214844 28.132812 C 11.375 30.226562 12.519531 31.855469 12.703125 33.226562 Z M 12.703125 33.226562 " fill-opacity="1" fill-rule="nonzero"/></g><path fill="#9f5a2a" d="M 30.238281 33.027344 C 30.238281 33.027344 30.703125 33.917969 29.175781 33.949219 C 28.113281 33.984375 25.609375 33.96875 24.183594 33.949219 C 24.132812 33.589844 23.835938 33.210938 23.835938 33.210938 C 24.082031 31.199219 26.523438 28.542969 27.882812 24.667969 C 27.882812 24.667969 27.882812 24.667969 27.882812 24.652344 L 27.898438 24.667969 C 27.898438 24.667969 30.222656 24.734375 30.769531 27.160156 C 31.398438 29.992188 27.367188 31.773438 27.367188 31.773438 C 27.367188 31.773438 30.1875 31.921875 30.238281 33.027344 Z M 30.238281 33.027344 " fill-opacity="1" fill-rule="nonzero"/><path fill="#9f5a2a" d="M 26.902344 9.1875 C 22.605469 5.691406 22.027344 2.34375 23.917969 2.328125 C 24.265625 2.328125 24.628906 2.328125 25.011719 2.34375 C 26.339844 2.425781 27.765625 2.855469 28.910156 4.800781 C 29.027344 4.984375 29.125 5.195312 29.242188 5.410156 C 30.734375 8.511719 31.214844 12.699219 26.902344 9.1875 Z M 26.902344 9.1875 " fill-opacity="1" fill-rule="nonzero"/><path fill="#eca591" d="M 20.070312 17.085938 C 20.070312 17.085938 19.804688 19.097656 18.277344 19.097656 C 16.75 19.097656 16.46875 17.085938 16.46875 17.085938 C 17.132812 15.667969 17.515625 14.757812 17.796875 12.535156 L 18.726562 12.535156 C 19.023438 14.757812 19.40625 15.667969 20.070312 17.085938 Z M 20.070312 17.085938 " fill-opacity="1" fill-rule="nonzero"/><path fill="#eca591" d="M 14.5625 7.734375 C 14.5625 7.828125 14.527344 7.917969 14.457031 8 C 14.386719 8.085938 14.289062 8.160156 14.164062 8.226562 C 14.035156 8.289062 13.886719 8.339844 13.722656 8.375 C 13.554688 8.410156 13.382812 8.429688 13.199219 8.429688 C 13.019531 8.429688 12.847656 8.410156 12.679688 8.375 C 12.511719 8.339844 12.367188 8.289062 12.238281 8.226562 C 12.109375 8.160156 12.011719 8.085938 11.945312 8 C 11.875 7.917969 11.839844 7.828125 11.839844 7.734375 C 11.839844 7.644531 11.875 7.554688 11.945312 7.472656 C 12.011719 7.386719 12.109375 7.3125 12.238281 7.246094 C 12.367188 7.179688 12.511719 7.132812 12.679688 7.097656 C 12.847656 7.0625 13.019531 7.042969 13.199219 7.042969 C 13.382812 7.042969 13.554688 7.0625 13.722656 7.097656 C 13.886719 7.132812 14.035156 7.179688 14.164062 7.246094 C 14.289062 7.3125 14.386719 7.386719 14.457031 7.472656 C 14.527344 7.554688 14.5625 7.644531 14.5625 7.734375 Z M 14.5625 7.734375 " fill-opacity="1" fill-rule="nonzero"/><path fill="#eca591" d="M 24.695312 7.734375 C 24.695312 7.828125 24.664062 7.917969 24.59375 8 C 24.523438 8.085938 24.425781 8.160156 24.296875 8.226562 C 24.171875 8.289062 24.023438 8.339844 23.855469 8.375 C 23.691406 8.410156 23.515625 8.429688 23.335938 8.429688 C 23.15625 8.429688 22.984375 8.410156 22.816406 8.375 C 22.648438 8.339844 22.503906 8.289062 22.375 8.226562 C 22.246094 8.160156 22.148438 8.085938 22.078125 8 C 22.011719 7.917969 21.976562 7.828125 21.976562 7.734375 C 21.976562 7.644531 22.011719 7.554688 22.078125 7.472656 C 22.148438 7.386719 22.246094 7.3125 22.375 7.246094 C 22.503906 7.179688 22.648438 7.132812 22.816406 7.097656 C 22.984375 7.0625 23.15625 7.042969 23.335938 7.042969 C 23.515625 7.042969 23.691406 7.0625 23.855469 7.097656 C 24.023438 7.132812 24.171875 7.179688 24.296875 7.246094 C 24.425781 7.3125 24.523438 7.386719 24.59375 7.472656 C 24.664062 7.554688 24.695312 7.644531 24.695312 7.734375 Z M 24.695312 7.734375 " fill-opacity="1" fill-rule="nonzero"/><path fill="#eca591" d="M 10.796875 13.703125 C 10.796875 13.796875 10.761719 13.875 10.699219 13.9375 C 10.632812 14.003906 10.554688 14.035156 10.464844 14.035156 C 10.371094 14.035156 10.292969 14.003906 10.230469 13.9375 C 10.164062 13.875 10.132812 13.796875 10.132812 13.703125 C 10.132812 13.613281 10.164062 13.535156 10.230469 13.472656 C 10.292969 13.40625 10.371094 13.375 10.464844 13.375 C 10.554688 13.375 10.632812 13.40625 10.699219 13.472656 C 10.761719 13.535156 10.796875 13.613281 10.796875 13.703125 Z M 10.796875 13.703125 " fill-opacity="1" fill-rule="nonzero"/><path fill="#eca591" d="M 11.890625 14.675781 C 11.890625 14.753906 11.863281 14.820312 11.808594 14.875 C 11.753906 14.929688 11.6875 14.957031 11.609375 14.957031 C 11.53125 14.957031 11.464844 14.929688 11.410156 14.875 C 11.355469 14.820312 11.324219 14.753906 11.324219 14.675781 C 11.324219 14.601562 11.355469 14.535156 11.410156 14.480469 C 11.464844 14.425781 11.53125 14.398438 11.609375 14.398438 C 11.6875 14.398438 11.753906 14.425781 11.808594 14.480469 C 11.863281 14.535156 11.890625 14.601562 11.890625 14.675781 Z M 11.890625 14.675781 " fill-opacity="1" fill-rule="nonzero"/><path fill="#eca591" d="M 11.972656 12.796875 C 11.972656 12.875 11.945312 12.941406 11.890625 12.996094 C 11.835938 13.050781 11.769531 13.078125 11.691406 13.078125 C 11.613281 13.078125 11.546875 13.050781 11.492188 12.996094 C 11.4375 12.941406 11.410156 12.875 11.410156 12.796875 C 11.410156 12.71875 11.4375 12.652344 11.492188 12.597656 C 11.546875 12.542969 11.613281 12.515625 11.691406 12.515625 C 11.769531 12.515625 11.835938 12.542969 11.890625 12.597656 C 11.945312 12.652344 11.972656 12.71875 11.972656 12.796875 Z M 11.972656 12.796875 " fill-opacity="1" fill-rule="nonzero"/><path fill="#eca591" d="M 26.304688 13.703125 C 26.304688 13.796875 26.273438 13.875 26.207031 13.9375 C 26.144531 14.003906 26.066406 14.035156 25.972656 14.035156 C 25.882812 14.035156 25.804688 14.003906 25.738281 13.9375 C 25.675781 13.875 25.640625 13.796875 25.640625 13.703125 C 25.640625 13.613281 25.675781 13.535156 25.738281 13.472656 C 25.804688 13.40625 25.882812 13.375 25.972656 13.375 C 26.066406 13.375 26.144531 13.40625 26.207031 13.472656 C 26.273438 13.535156 26.304688 13.613281 26.304688 13.703125 Z M 26.304688 13.703125 " fill-opacity="1" fill-rule="nonzero"/><path fill="#eca591" d="M 25.113281 14.675781 C 25.113281 14.753906 25.085938 14.820312 25.027344 14.875 C 24.972656 14.929688 24.90625 14.957031 24.828125 14.957031 C 24.75 14.957031 24.683594 14.929688 24.628906 14.875 C 24.574219 14.820312 24.546875 14.753906 24.546875 14.675781 C 24.546875 14.601562 24.574219 14.535156 24.628906 14.480469 C 24.683594 14.425781 24.75 14.398438 24.828125 14.398438 C 24.90625 14.398438 24.972656 14.425781 25.027344 14.480469 C 25.085938 14.535156 25.113281 14.601562 25.113281 14.675781 Z M 25.113281 14.675781 " fill-opacity="1" fill-rule="nonzero"/><path fill="#eca591" d="M 25.027344 12.796875 C 25.027344 12.875 25 12.941406 24.945312 12.996094 C 24.890625 13.050781 24.824219 13.078125 24.746094 13.078125 C 24.667969 13.078125 24.601562 13.050781 24.546875 12.996094 C 24.492188 12.941406 24.464844 12.875 24.464844 12.796875 C 24.464844 12.71875 24.492188 12.652344 24.546875 12.597656 C 24.601562 12.542969 24.667969 12.515625 24.746094 12.515625 C 24.824219 12.515625 24.890625 12.542969 24.945312 12.597656 C 25 12.652344 25.027344 12.71875 25.027344 12.796875 Z M 25.027344 12.796875 " fill-opacity="1" fill-rule="nonzero"/><path fill="#74392c" d="M 33.15625 27.058594 C 32.445312 28.261719 31.265625 28.957031 30.355469 29.335938 C 30.6875 28.789062 30.902344 28.148438 30.816406 27.4375 C 31.234375 27.160156 31.632812 26.777344 31.914062 26.300781 C 32.460938 25.359375 32.492188 24.175781 32.011719 22.757812 C 31.878906 22.375 32.09375 21.964844 32.476562 21.832031 C 32.859375 21.699219 33.273438 21.914062 33.40625 22.277344 C 34.019531 24.140625 33.9375 25.742188 33.15625 27.058594 Z M 33.15625 27.058594 " fill-opacity="1" fill-rule="nonzero"/><path fill="#74392c" d="M 15.589844 6.054688 C 15.589844 6.253906 15.519531 6.425781 15.375 6.566406 C 15.234375 6.707031 15.0625 6.78125 14.859375 6.78125 C 14.65625 6.78125 14.484375 6.707031 14.34375 6.566406 C 14.199219 6.425781 14.128906 6.253906 14.128906 6.054688 C 14.128906 5.855469 14.199219 5.683594 14.34375 5.542969 C 14.484375 5.398438 14.65625 5.328125 14.859375 5.328125 C 15.0625 5.328125 15.234375 5.398438 15.375 5.542969 C 15.519531 5.683594 15.589844 5.855469 15.589844 6.054688 Z M 15.589844 6.054688 " fill-opacity="1" fill-rule="nonzero"/><path fill="#74392c" d="M 22.40625 6.054688 C 22.40625 6.253906 22.335938 6.425781 22.195312 6.566406 C 22.050781 6.707031 21.878906 6.78125 21.675781 6.78125 C 21.476562 6.78125 21.304688 6.707031 21.160156 6.566406 C 21.019531 6.425781 20.949219 6.253906 20.949219 6.054688 C 20.949219 5.855469 21.019531 5.683594 21.160156 5.542969 C 21.304688 5.398438 21.476562 5.328125 21.675781 5.328125 C 21.878906 5.328125 22.050781 5.398438 22.195312 5.542969 C 22.335938 5.683594 22.40625 5.855469 22.40625 6.054688 Z M 22.40625 6.054688 " fill-opacity="1" fill-rule="nonzero"/><path fill="#74392c" d="M 12.71875 2.328125 C 11.011719 2.328125 8.902344 2.3125 7.394531 5.410156 C 5.886719 8.511719 5.402344 12.699219 9.71875 9.1875 C 14.03125 5.675781 14.59375 2.34375 12.71875 2.328125 Z M 12.71875 2.328125 " fill-opacity="1" fill-rule="nonzero"/><path fill="#74392c" d="M 28.910156 4.816406 C 25.378906 5.789062 25.027344 2.640625 25.011719 2.359375 C 26.339844 2.445312 27.765625 2.871094 28.910156 4.816406 Z M 28.910156 4.816406 " fill-opacity="1" fill-rule="nonzero"/><path fill="#74392c" d="M 27.136719 6.054688 C 27.601562 5.429688 28.644531 5.640625 28.859375 6.78125 C 29.058594 7.917969 26.355469 7.125 27.136719 6.054688 Z M 27.136719 6.054688 " fill-opacity="1" fill-rule="nonzero"/><path fill="#74392c" d="M 20.300781 8.578125 C 20.300781 7.734375 19.386719 7.042969 18.277344 7.042969 C 17.164062 7.042969 16.238281 7.734375 16.238281 8.578125 C 16.238281 9.351562 17.015625 9.996094 18.027344 10.09375 C 17.910156 11.660156 17.777344 12.78125 17.628906 13.671875 L 18.90625 13.671875 C 18.742188 12.78125 18.625 11.660156 18.507812 10.09375 C 19.519531 9.996094 20.300781 9.351562 20.300781 8.578125 Z M 20.300781 8.578125 " fill-opacity="1" fill-rule="nonzero"/><path fill="#74392c" d="M 28.347656 22.425781 C 27.632812 22.855469 26.570312 23.167969 25.011719 22.921875 C 21.429688 22.359375 22.375 18.816406 22.40625 18.683594 C 23.851562 18.929688 25.507812 18.46875 26.324219 17.59375 C 26.9375 18.15625 28.445312 19.804688 28.347656 22.425781 Z M 28.347656 22.425781 " fill-opacity="1" fill-rule="nonzero"/><path fill="#74392c" d="M 18.757812 20.28125 C 19.039062 19.308594 22.242188 19.144531 21.363281 20.910156 C 20.484375 22.671875 18.328125 21.785156 18.757812 20.28125 Z M 18.757812 20.28125 " fill-opacity="1" fill-rule="nonzero"/><path fill="#74392c" d="M 12.886719 29.054688 C 11.957031 29.367188 10.960938 28.773438 10.230469 28.132812 C 9.667969 27.109375 9.101562 25.953125 8.65625 24.683594 C 8.375 23.910156 8.242188 23.183594 8.207031 22.523438 C 8.207031 22.523438 10.03125 18.75 13.746094 21.882812 C 16.566406 24.273438 14.675781 28.445312 12.886719 29.054688 Z M 12.886719 29.054688 " fill-opacity="1" fill-rule="nonzero"/></svg>