<svg xmlns="http://www.w3.org/2000/svg" xmlns:xlink="http://www.w3.org/1999/xlink" width="50" zoomAndPan="magnify" viewBox="0 0 37.5 37.499999" height="50" preserveAspectRatio="xMidYMid meet" version="1.0"><defs><clipPath id="ca2d4a4054"><path d="M 0 0 L 36.851562 0 L 36.851562 36.851562 L 0 36.851562 Z M 0 0 " clip-rule="nonzero"/></clipPath><clipPath id="f844facd76"><path d="M 18.425781 0 C 8.25 0 0 8.25 0 18.425781 C 0 28.601562 8.25 36.851562 18.425781 36.851562 C 28.601562 36.851562 36.851562 28.601562 36.851562 18.425781 C 36.851562 8.25 28.601562 0 18.425781 0 Z M 18.425781 0 " clip-rule="nonzero"/></clipPath><linearGradient x1="0.000000000000054801" gradientTransform="matrix(0.143946, 0, 0, 0.143946, 0.0000005, 0)" y1="128" x2="255.999988" gradientUnits="userSpaceOnUse" y2="128" id="be8d3133e5"><stop stop-opacity="1" stop-color="rgb(65.098572%, 65.098572%, 65.098572%)" offset="0"/><stop stop-opacity="1" stop-color="rgb(65.234375%, 65.234375%, 65.234375%)" offset="0.0078125"/><stop stop-opacity="1" stop-color="rgb(65.507507%, 65.507507%, 65.507507%)" offset="0.015625"/><stop stop-opacity="1" stop-color="rgb(65.78064%, 65.78064%, 65.78064%)" offset="0.0234375"/><stop stop-opacity="1" stop-color="rgb(66.052246%, 66.052246%, 66.052246%)" offset="0.03125"/><stop stop-opacity="1" stop-color="rgb(66.325378%, 66.325378%, 66.325378%)" offset="0.0390625"/><stop stop-opacity="1" stop-color="rgb(66.598511%, 66.598511%, 66.598511%)" offset="0.046875"/><stop stop-opacity="1" stop-color="rgb(66.871643%, 66.871643%, 66.871643%)" offset="0.0546875"/><stop stop-opacity="1" stop-color="rgb(67.14325%, 67.14325%, 67.14325%)" offset="0.0625"/><stop stop-opacity="1" stop-color="rgb(67.416382%, 67.416382%, 67.416382%)" offset="0.0703125"/><stop stop-opacity="1" stop-color="rgb(67.689514%, 67.689514%, 67.689514%)" offset="0.078125"/><stop stop-opacity="1" stop-color="rgb(67.961121%, 67.961121%, 67.961121%)" offset="0.0859375"/><stop stop-opacity="1" stop-color="rgb(68.234253%, 68.234253%, 68.234253%)" offset="0.09375"/><stop stop-opacity="1" stop-color="rgb(68.507385%, 68.507385%, 68.507385%)" offset="0.101563"/><stop stop-opacity="1" stop-color="rgb(68.778992%, 68.778992%, 68.778992%)" offset="0.109375"/><stop stop-opacity="1" stop-color="rgb(69.052124%, 69.052124%, 69.052124%)" offset="0.117188"/><stop stop-opacity="1" stop-color="rgb(69.325256%, 69.325256%, 69.325256%)" offset="0.125"/><stop stop-opacity="1" stop-color="rgb(69.596863%, 69.596863%, 69.596863%)" offset="0.132812"/><stop stop-opacity="1" stop-color="rgb(69.869995%, 69.869995%, 69.869995%)" offset="0.140625"/><stop stop-opacity="1" stop-color="rgb(70.143127%, 70.143127%, 70.143127%)" offset="0.148438"/><stop stop-opacity="1" stop-color="rgb(70.41626%, 70.41626%, 70.41626%)" offset="0.15625"/><stop stop-opacity="1" stop-color="rgb(70.687866%, 70.687866%, 70.687866%)" offset="0.164062"/><stop stop-opacity="1" stop-color="rgb(70.960999%, 70.960999%, 70.960999%)" offset="0.171875"/><stop stop-opacity="1" stop-color="rgb(71.234131%, 71.234131%, 71.234131%)" offset="0.179688"/><stop stop-opacity="1" stop-color="rgb(71.505737%, 71.505737%, 71.505737%)" offset="0.1875"/><stop stop-opacity="1" stop-color="rgb(71.77887%, 71.77887%, 71.77887%)" offset="0.195312"/><stop stop-opacity="1" stop-color="rgb(72.052002%, 72.052002%, 72.052002%)" offset="0.203125"/><stop stop-opacity="1" stop-color="rgb(72.323608%, 72.323608%, 72.323608%)" offset="0.210938"/><stop stop-opacity="1" stop-color="rgb(72.596741%, 72.596741%, 72.596741%)" offset="0.21875"/><stop stop-opacity="1" stop-color="rgb(72.869873%, 72.869873%, 72.869873%)" offset="0.226563"/><stop stop-opacity="1" stop-color="rgb(73.141479%, 73.141479%, 73.141479%)" offset="0.234375"/><stop stop-opacity="1" stop-color="rgb(73.414612%, 73.414612%, 73.414612%)" offset="0.242188"/><stop stop-opacity="1" stop-color="rgb(73.687744%, 73.687744%, 73.687744%)" offset="0.25"/><stop stop-opacity="1" stop-color="rgb(73.959351%, 73.959351%, 73.959351%)" offset="0.257812"/><stop stop-opacity="1" stop-color="rgb(74.232483%, 74.232483%, 74.232483%)" offset="0.265625"/><stop stop-opacity="1" stop-color="rgb(74.505615%, 74.505615%, 74.505615%)" offset="0.273438"/><stop stop-opacity="1" stop-color="rgb(74.778748%, 74.778748%, 74.778748%)" offset="0.28125"/><stop stop-opacity="1" stop-color="rgb(75.050354%, 75.050354%, 75.050354%)" offset="0.289062"/><stop stop-opacity="1" stop-color="rgb(75.323486%, 75.323486%, 75.323486%)" offset="0.296875"/><stop stop-opacity="1" stop-color="rgb(75.596619%, 75.596619%, 75.596619%)" offset="0.304688"/><stop stop-opacity="1" stop-color="rgb(75.868225%, 75.868225%, 75.868225%)" offset="0.3125"/><stop stop-opacity="1" stop-color="rgb(76.141357%, 76.141357%, 76.141357%)" offset="0.320312"/><stop stop-opacity="1" stop-color="rgb(76.41449%, 76.41449%, 76.41449%)" offset="0.328125"/><stop stop-opacity="1" stop-color="rgb(76.686096%, 76.686096%, 76.686096%)" offset="0.335938"/><stop stop-opacity="1" stop-color="rgb(76.959229%, 76.959229%, 76.959229%)" offset="0.34375"/><stop stop-opacity="1" stop-color="rgb(77.232361%, 77.232361%, 77.232361%)" offset="0.351562"/><stop stop-opacity="1" stop-color="rgb(77.503967%, 77.503967%, 77.503967%)" offset="0.359375"/><stop stop-opacity="1" stop-color="rgb(77.7771%, 77.7771%, 77.7771%)" offset="0.367188"/><stop stop-opacity="1" stop-color="rgb(78.050232%, 78.050232%, 78.050232%)" offset="0.375"/><stop stop-opacity="1" stop-color="rgb(78.321838%, 78.321838%, 78.321838%)" offset="0.382812"/><stop stop-opacity="1" stop-color="rgb(78.594971%, 78.594971%, 78.594971%)" offset="0.390625"/><stop stop-opacity="1" stop-color="rgb(78.868103%, 78.868103%, 78.868103%)" offset="0.398438"/><stop stop-opacity="1" stop-color="rgb(79.141235%, 79.141235%, 79.141235%)" offset="0.40625"/><stop stop-opacity="1" stop-color="rgb(79.412842%, 79.412842%, 79.412842%)" offset="0.414062"/><stop stop-opacity="1" stop-color="rgb(79.685974%, 79.685974%, 79.685974%)" offset="0.421875"/><stop stop-opacity="1" stop-color="rgb(79.959106%, 79.959106%, 79.959106%)" offset="0.429688"/><stop stop-opacity="1" stop-color="rgb(80.230713%, 80.230713%, 80.230713%)" offset="0.4375"/><stop stop-opacity="1" stop-color="rgb(80.503845%, 80.503845%, 80.503845%)" offset="0.445312"/><stop stop-opacity="1" stop-color="rgb(80.776978%, 80.776978%, 80.776978%)" offset="0.453125"/><stop stop-opacity="1" stop-color="rgb(81.048584%, 81.048584%, 81.048584%)" offset="0.460938"/><stop stop-opacity="1" stop-color="rgb(81.321716%, 81.321716%, 81.321716%)" offset="0.46875"/><stop stop-opacity="1" stop-color="rgb(81.594849%, 81.594849%, 81.594849%)" offset="0.476562"/><stop stop-opacity="1" stop-color="rgb(81.866455%, 81.866455%, 81.866455%)" offset="0.484375"/><stop stop-opacity="1" stop-color="rgb(82.139587%, 82.139587%, 82.139587%)" offset="0.492187"/><stop stop-opacity="1" stop-color="rgb(82.41272%, 82.41272%, 82.41272%)" offset="0.5"/><stop stop-opacity="1" stop-color="rgb(82.684326%, 82.684326%, 82.684326%)" offset="0.507812"/><stop stop-opacity="1" stop-color="rgb(82.957458%, 82.957458%, 82.957458%)" offset="0.515625"/><stop stop-opacity="1" stop-color="rgb(83.230591%, 83.230591%, 83.230591%)" offset="0.523438"/><stop stop-opacity="1" stop-color="rgb(83.503723%, 83.503723%, 83.503723%)" offset="0.53125"/><stop stop-opacity="1" stop-color="rgb(83.77533%, 83.77533%, 83.77533%)" offset="0.539062"/><stop stop-opacity="1" stop-color="rgb(84.048462%, 84.048462%, 84.048462%)" offset="0.546875"/><stop stop-opacity="1" stop-color="rgb(84.321594%, 84.321594%, 84.321594%)" offset="0.554688"/><stop stop-opacity="1" stop-color="rgb(84.593201%, 84.593201%, 84.593201%)" offset="0.5625"/><stop stop-opacity="1" stop-color="rgb(84.866333%, 84.866333%, 84.866333%)" offset="0.570312"/><stop stop-opacity="1" stop-color="rgb(85.139465%, 85.139465%, 85.139465%)" offset="0.578125"/><stop stop-opacity="1" stop-color="rgb(85.411072%, 85.411072%, 85.411072%)" offset="0.585938"/><stop stop-opacity="1" stop-color="rgb(85.684204%, 85.684204%, 85.684204%)" offset="0.59375"/><stop stop-opacity="1" stop-color="rgb(85.957336%, 85.957336%, 85.957336%)" offset="0.601562"/><stop stop-opacity="1" stop-color="rgb(86.228943%, 86.228943%, 86.228943%)" offset="0.609375"/><stop stop-opacity="1" stop-color="rgb(86.502075%, 86.502075%, 86.502075%)" offset="0.617188"/><stop stop-opacity="1" stop-color="rgb(86.775208%, 86.775208%, 86.775208%)" offset="0.625"/><stop stop-opacity="1" stop-color="rgb(87.046814%, 87.046814%, 87.046814%)" offset="0.632812"/><stop stop-opacity="1" stop-color="rgb(87.319946%, 87.319946%, 87.319946%)" offset="0.640625"/><stop stop-opacity="1" stop-color="rgb(87.593079%, 87.593079%, 87.593079%)" offset="0.648438"/><stop stop-opacity="1" stop-color="rgb(87.866211%, 87.866211%, 87.866211%)" offset="0.65625"/><stop stop-opacity="1" stop-color="rgb(88.137817%, 88.137817%, 88.137817%)" offset="0.664062"/><stop stop-opacity="1" stop-color="rgb(88.41095%, 88.41095%, 88.41095%)" offset="0.671875"/><stop stop-opacity="1" stop-color="rgb(88.684082%, 88.684082%, 88.684082%)" offset="0.679688"/><stop stop-opacity="1" stop-color="rgb(88.955688%, 88.955688%, 88.955688%)" offset="0.6875"/><stop stop-opacity="1" stop-color="rgb(89.228821%, 89.228821%, 89.228821%)" offset="0.695312"/><stop stop-opacity="1" stop-color="rgb(89.501953%, 89.501953%, 89.501953%)" offset="0.703125"/><stop stop-opacity="1" stop-color="rgb(89.77356%, 89.77356%, 89.77356%)" offset="0.710938"/><stop stop-opacity="1" stop-color="rgb(90.046692%, 90.046692%, 90.046692%)" offset="0.71875"/><stop stop-opacity="1" stop-color="rgb(90.319824%, 90.319824%, 90.319824%)" offset="0.726562"/><stop stop-opacity="1" stop-color="rgb(90.591431%, 90.591431%, 90.591431%)" offset="0.734375"/><stop stop-opacity="1" stop-color="rgb(90.864563%, 90.864563%, 90.864563%)" offset="0.742188"/><stop stop-opacity="1" stop-color="rgb(91.137695%, 91.137695%, 91.137695%)" offset="0.75"/><stop stop-opacity="1" stop-color="rgb(91.409302%, 91.409302%, 91.409302%)" offset="0.757812"/><stop stop-opacity="1" stop-color="rgb(91.682434%, 91.682434%, 91.682434%)" offset="0.765625"/><stop stop-opacity="1" stop-color="rgb(91.955566%, 91.955566%, 91.955566%)" offset="0.773438"/><stop stop-opacity="1" stop-color="rgb(92.228699%, 92.228699%, 92.228699%)" offset="0.78125"/><stop stop-opacity="1" stop-color="rgb(92.500305%, 92.500305%, 92.500305%)" offset="0.789062"/><stop stop-opacity="1" stop-color="rgb(92.773438%, 92.773438%, 92.773438%)" offset="0.796875"/><stop stop-opacity="1" stop-color="rgb(93.04657%, 93.04657%, 93.04657%)" offset="0.804688"/><stop stop-opacity="1" stop-color="rgb(93.318176%, 93.318176%, 93.318176%)" offset="0.8125"/><stop stop-opacity="1" stop-color="rgb(93.591309%, 93.591309%, 93.591309%)" offset="0.820312"/><stop stop-opacity="1" stop-color="rgb(93.864441%, 93.864441%, 93.864441%)" offset="0.828125"/><stop stop-opacity="1" stop-color="rgb(94.136047%, 94.136047%, 94.136047%)" offset="0.835938"/><stop stop-opacity="1" stop-color="rgb(94.40918%, 94.40918%, 94.40918%)" offset="0.84375"/><stop stop-opacity="1" stop-color="rgb(94.682312%, 94.682312%, 94.682312%)" offset="0.851562"/><stop stop-opacity="1" stop-color="rgb(94.953918%, 94.953918%, 94.953918%)" offset="0.859375"/><stop stop-opacity="1" stop-color="rgb(95.227051%, 95.227051%, 95.227051%)" offset="0.867188"/><stop stop-opacity="1" stop-color="rgb(95.500183%, 95.500183%, 95.500183%)" offset="0.875"/><stop stop-opacity="1" stop-color="rgb(95.77179%, 95.77179%, 95.77179%)" offset="0.882812"/><stop stop-opacity="1" stop-color="rgb(96.044922%, 96.044922%, 96.044922%)" offset="0.890625"/><stop stop-opacity="1" stop-color="rgb(96.318054%, 96.318054%, 96.318054%)" offset="0.898438"/><stop stop-opacity="1" stop-color="rgb(96.591187%, 96.591187%, 96.591187%)" offset="0.90625"/><stop stop-opacity="1" stop-color="rgb(96.862793%, 96.862793%, 96.862793%)" offset="0.914062"/><stop stop-opacity="1" stop-color="rgb(97.135925%, 97.135925%, 97.135925%)" offset="0.921875"/><stop stop-opacity="1" stop-color="rgb(97.409058%, 97.409058%, 97.409058%)" offset="0.929688"/><stop stop-opacity="1" stop-color="rgb(97.680664%, 97.680664%, 97.680664%)" offset="0.9375"/><stop stop-opacity="1" stop-color="rgb(97.953796%, 97.953796%, 97.953796%)" offset="0.945313"/><stop stop-opacity="1" stop-color="rgb(98.226929%, 98.226929%, 98.226929%)" offset="0.953125"/><stop stop-opacity="1" stop-color="rgb(98.498535%, 98.498535%, 98.498535%)" offset="0.960938"/><stop stop-opacity="1" stop-color="rgb(98.771667%, 98.771667%, 98.771667%)" offset="0.96875"/><stop stop-opacity="1" stop-color="rgb(99.0448%, 99.0448%, 99.0448%)" offset="0.976562"/><stop stop-opacity="1" stop-color="rgb(99.316406%, 99.316406%, 99.316406%)" offset="0.984375"/><stop stop-opacity="1" stop-color="rgb(99.589539%, 99.589539%, 99.589539%)" offset="0.992188"/><stop stop-opacity="1" stop-color="rgb(99.862671%, 99.862671%, 99.862671%)" offset="1"/></linearGradient><clipPath id="c85eabe958"><path d="M 0.234375 0.234375 L 37.007812 0.234375 L 37.007812 37.007812 L 0.234375 37.007812 Z M 0.234375 0.234375 " clip-rule="nonzero"/></clipPath><clipPath id="9f5408d891"><path d="M 5.671875 0.234375 L 31.570312 0.234375 C 34.574219 0.234375 37.007812 2.667969 37.007812 5.671875 L 37.007812 31.570312 C 37.007812 34.574219 34.574219 37.007812 31.570312 37.007812 L 5.671875 37.007812 C 2.667969 37.007812 0.234375 34.574219 0.234375 31.570312 L 0.234375 5.671875 C 0.234375 2.667969 2.667969 0.234375 5.671875 0.234375 Z M 5.671875 0.234375 " clip-rule="nonzero"/></clipPath><clipPath id="44b0004a73"><path d="M 4.667969 15 L 29 15 L 29 33.492188 L 4.667969 33.492188 Z M 4.667969 15 " clip-rule="nonzero"/></clipPath><clipPath id="454e473f5b"><path d="M 10 30 L 23 30 L 23 33.492188 L 10 33.492188 Z M 10 30 " clip-rule="nonzero"/></clipPath><clipPath id="8d0fea4a94"><path d="M 11 2.40625 L 31.3125 2.40625 L 31.3125 18 L 11 18 Z M 11 2.40625 " clip-rule="nonzero"/></clipPath><clipPath id="85cd8c183a"><path d="M 21 2.40625 L 31.3125 2.40625 L 31.3125 14 L 21 14 Z M 21 2.40625 " clip-rule="nonzero"/></clipPath><clipPath id="a09a0cafc6"><path d="M 13 31 L 22 31 L 22 33.492188 L 13 33.492188 Z M 13 31 " clip-rule="nonzero"/></clipPath></defs><g clip-path="url(#ca2d4a4054)"><g clip-path="url(#f844facd76)"><path fill="url(#be8d3133e5)" d="M 0 0 L 0 36.851562 L 36.851562 36.851562 L 36.851562 0 Z M 0 0 " fill-rule="nonzero"/></g></g><g clip-path="url(#c85eabe958)"><g clip-path="url(#9f5408d891)"><path fill="#f0184e" d="M 0.234375 0.234375 L 37.007812 0.234375 L 37.007812 37.007812 L 0.234375 37.007812 Z M 0.234375 0.234375 " fill-opacity="1" fill-rule="nonzero"/></g></g><g clip-path="url(#44b0004a73)"><path fill="#ecb06b" d="M 15.71875 15.824219 C 15.71875 15.824219 15.574219 16.976562 13.867188 18.054688 C 12.160156 19.128906 9.519531 19.394531 7.566406 20.71875 C 5.609375 22.042969 4.6875 24.390625 4.804688 26.65625 C 4.921875 28.925781 6.445312 30.339844 7.195312 30.933594 C 7.945312 31.527344 9.382812 31.914062 10.484375 32.265625 C 11.585938 32.617188 12.113281 33.0625 12.878906 33.125 C 13.242188 33.15625 13.769531 32.789062 14.113281 32.363281 C 14.492188 31.890625 14.710938 31.375 14.609375 31.113281 C 14.453125 30.695312 13.933594 30.46875 13.402344 30.40625 C 13.402344 30.40625 14.355469 30.199219 15.277344 30.234375 C 16.195312 30.265625 17.632812 30.414062 18.429688 30.265625 C 18.429688 30.265625 18.570312 31.421875 18.644531 31.96875 C 18.722656 32.515625 18.875 32.945312 19.792969 33.214844 C 20.707031 33.484375 21.425781 33.472656 22.003906 33.214844 C 22.578125 32.960938 22.300781 32.183594 22.085938 31.773438 C 21.871094 31.363281 22.191406 30.089844 22.375 29.601562 C 22.375 29.601562 24.316406 28.617188 25.363281 27.390625 C 26.414062 26.160156 26.988281 24.816406 26.988281 24.816406 C 26.988281 24.816406 26.957031 25.175781 27.101562 25.160156 C 27.246094 25.148438 27.761719 24.109375 27.671875 23.011719 C 27.671875 23.011719 27.847656 23.652344 27.976562 23.585938 C 28.101562 23.515625 28.304688 23.125 28.183594 21.875 C 28.074219 20.765625 27.304688 17.789062 25.972656 16.4375 C 24.613281 15.054688 15.578125 15.984375 15.71875 15.824219 Z M 15.71875 15.824219 " fill-opacity="1" fill-rule="evenodd"/></g><g clip-path="url(#454e473f5b)"><path fill="#f3e5d6" d="M 18.480469 30.667969 C 18.722656 30.617188 19.167969 30.550781 19.585938 30.644531 C 20.203125 30.785156 20.535156 30.996094 21.082031 31.019531 C 21.410156 31.035156 21.796875 30.949219 22.054688 30.878906 C 22 31.25 21.992188 31.59375 22.085938 31.773438 C 22.300781 32.183594 22.578125 32.960938 22.003906 33.214844 C 21.425781 33.472656 20.707031 33.484375 19.792969 33.214844 C 18.875 32.945312 18.722656 32.515625 18.644531 31.96875 C 18.597656 31.628906 18.527344 31.054688 18.480469 30.667969 Z M 10.730469 32.347656 C 10.851562 32.179688 11.042969 31.945312 11.28125 31.765625 C 11.707031 31.445312 12.433594 31.039062 12.925781 30.195312 C 12.925781 30.195312 13.144531 30.402344 13.394531 30.40625 L 13.402344 30.40625 C 13.933594 30.46875 14.453125 30.695312 14.609375 31.113281 C 14.710938 31.375 14.492188 31.890625 14.113281 32.363281 C 13.769531 32.789062 13.242188 33.15625 12.878906 33.125 C 12.171875 33.066406 11.671875 32.683594 10.730469 32.347656 Z M 10.730469 32.347656 " fill-opacity="1" fill-rule="evenodd"/></g><path fill="#f3e5d6" d="M 17.75 15.757812 C 17.066406 16.089844 16.558594 16.339844 16.558594 16.339844 C 16.558594 16.339844 16.808594 17.886719 18.8125 19.574219 C 20.816406 21.265625 24.269531 23.613281 22.375 29.601562 C 22.375 29.601562 24.316406 28.617188 25.363281 27.390625 C 26.414062 26.160156 26.988281 24.816406 26.988281 24.816406 C 26.988281 24.816406 26.957031 25.175781 27.101562 25.160156 C 27.246094 25.148438 27.761719 24.109375 27.671875 23.011719 C 27.671875 23.011719 27.847656 23.652344 27.976562 23.585938 C 28.101562 23.515625 28.304688 23.125 28.183594 21.875 C 28.074219 20.765625 27.304688 17.789062 25.972656 16.4375 C 25.039062 15.484375 20.464844 15.628906 17.75 15.757812 Z M 17.75 15.757812 " fill-opacity="1" fill-rule="evenodd"/><path fill="#ecb06b" d="M 23.238281 28.679688 C 23.238281 28.679688 23.375 29.546875 23.433594 30.167969 C 23.492188 30.792969 23.710938 31.375 24.320312 31.609375 C 24.929688 31.839844 26.425781 31.707031 26.691406 31.375 C 26.957031 31.046875 27.050781 30.453125 26.582031 29.921875 C 26.113281 29.394531 25.902344 29.285156 26.003906 28.679688 C 26.105469 28.078125 27.011719 24.546875 27.011719 24.546875 Z M 23.238281 28.679688 " fill-opacity="1" fill-rule="evenodd"/><path fill="#fcf7f2" d="M 26.03125 29.230469 C 26.113281 29.441406 26.300781 29.605469 26.582031 29.921875 C 27.050781 30.453125 26.957031 31.046875 26.691406 31.375 C 26.425781 31.707031 24.929688 31.839844 24.320312 31.609375 C 23.710938 31.375 23.492188 30.792969 23.433594 30.167969 C 23.421875 30.050781 23.410156 29.921875 23.394531 29.796875 C 23.558594 29.734375 23.792969 29.6875 24.050781 29.726562 C 24.566406 29.808594 24.929688 29.777344 25.378906 29.488281 C 25.621094 29.332031 25.859375 29.261719 26.03125 29.230469 Z M 26.03125 29.230469 " fill-opacity="1" fill-rule="evenodd"/><path fill="#65453f" d="M 26.207031 31.609375 C 26.25 31.597656 26.289062 31.585938 26.324219 31.574219 C 26.292969 31.011719 25.980469 30.691406 25.980469 30.691406 C 25.960938 30.667969 25.921875 30.664062 25.898438 30.6875 C 25.875 30.710938 25.875 30.75 25.898438 30.773438 C 25.898438 30.773438 26.1875 31.078125 26.207031 31.609375 Z M 26.207031 31.609375 " fill-opacity="1" fill-rule="evenodd"/><g clip-path="url(#8d0fea4a94)"><path fill="#f3e5d6" d="M 21.636719 17.867188 C 21.636719 17.867188 20.03125 17.90625 18.085938 17.308594 C 16.847656 16.929688 15.070312 16.027344 14.46875 15.574219 C 13.867188 15.125 13.550781 14.976562 13.714844 14.828125 C 13.882812 14.683594 14.09375 14.535156 14.09375 14.535156 C 14.09375 14.535156 13.511719 14.109375 13.53125 13.960938 C 13.550781 13.816406 13.902344 13.484375 14.054688 13.105469 C 14.207031 12.722656 14.230469 12.019531 14.4375 11.378906 C 14.4375 11.378906 13.539062 10.875 12.941406 9.855469 C 12.34375 8.835938 11.542969 6.753906 11.542969 5.152344 C 11.546875 3.394531 11.839844 2.859375 13.425781 3.128906 C 14.925781 3.386719 17.128906 4.507812 18.609375 6.0625 C 18.609375 6.0625 19.710938 5.683594 21.03125 5.664062 C 21.171875 5.660156 21.628906 5.652344 21.757812 5.644531 C 23.078125 5.601562 24.195312 5.929688 24.195312 5.929688 C 25.601562 4.304688 27.75 3.082031 29.234375 2.753906 C 30.808594 2.40625 31.121094 2.925781 31.210938 4.683594 C 31.289062 6.28125 30.585938 8.398438 30.039062 9.445312 C 29.488281 10.492188 28.613281 11.039062 28.613281 11.039062 C 28.851562 11.671875 28.90625 12.371094 29.078125 12.746094 C 29.25 13.117188 29.617188 13.433594 29.644531 13.578125 C 29.671875 13.722656 29.109375 14.175781 29.109375 14.175781 C 29.109375 14.175781 29.328125 14.3125 29.5 14.453125 C 29.671875 14.589844 29.359375 14.753906 28.78125 15.234375 C 28.203125 15.714844 26.710938 16.691406 25.324219 17.261719 C 23.839844 17.875 21.636719 17.867188 21.636719 17.867188 Z M 21.636719 17.867188 " fill-opacity="1" fill-rule="evenodd"/></g><path fill="#ecb06b" d="M 14 13.21875 C 14.019531 13.179688 14.039062 13.144531 14.054688 13.105469 C 14.207031 12.722656 14.230469 12.019531 14.4375 11.378906 C 14.4375 11.378906 13.539062 10.875 12.941406 9.855469 C 12.34375 8.835938 11.542969 6.753906 11.542969 5.152344 C 11.546875 3.394531 11.839844 2.859375 13.425781 3.128906 C 14.925781 3.386719 17.128906 4.507812 18.609375 6.0625 C 18.609375 6.0625 19.582031 5.726562 20.800781 5.671875 C 20.964844 6.582031 21.019531 7.542969 21.003906 8.292969 C 20.988281 9.273438 20.972656 11.148438 19.863281 12.234375 C 18.753906 13.320312 16.921875 13.371094 16.027344 13.332031 C 15.363281 13.300781 14.433594 13.246094 14 13.21875 Z M 14 13.21875 " fill-opacity="1" fill-rule="evenodd"/><g clip-path="url(#85cd8c183a)"><path fill="#ecb06b" d="M 29.136719 12.859375 C 29.117188 12.820312 29.097656 12.78125 29.078125 12.746094 C 28.90625 12.371094 28.851562 11.671875 28.613281 11.039062 C 28.613281 11.039062 29.488281 10.492188 30.039062 9.445312 C 30.585938 8.398438 31.289062 6.28125 31.210938 4.683594 C 31.121094 2.925781 30.808594 2.40625 29.234375 2.753906 C 27.75 3.082031 25.601562 4.304688 24.195312 5.929688 C 24.195312 5.929688 23.207031 5.640625 21.992188 5.640625 C 21.921875 6.492188 22.003906 7.589844 22.054688 8.335938 C 22.121094 9.316406 22.074219 11.121094 23.234375 12.152344 C 24.394531 13.183594 26.226562 13.148438 27.117188 13.066406 C 27.78125 13.003906 28.707031 12.90625 29.136719 12.859375 Z M 29.136719 12.859375 " fill-opacity="1" fill-rule="evenodd"/></g><path fill="#65453f" d="M 18.921875 10.609375 C 19.265625 10.597656 19.550781 10.871094 19.558594 11.214844 C 19.566406 11.558594 19.292969 11.84375 18.953125 11.851562 C 18.613281 11.859375 18.328125 11.585938 18.320312 11.242188 C 18.3125 10.902344 18.582031 10.617188 18.921875 10.609375 Z M 18.921875 10.609375 " fill-opacity="1" fill-rule="evenodd"/><path fill="#65453f" d="M 24.097656 10.484375 C 23.757812 10.492188 23.484375 10.777344 23.492188 11.121094 C 23.5 11.464844 23.785156 11.734375 24.125 11.726562 C 24.46875 11.71875 24.738281 11.433594 24.730469 11.089844 C 24.722656 10.746094 24.4375 10.476562 24.097656 10.484375 Z M 24.097656 10.484375 " fill-opacity="1" fill-rule="evenodd"/><path fill="#eb826d" d="M 20.539062 14.628906 C 20.539062 14.628906 21.285156 15.183594 21.761719 15.175781 C 22.265625 15.164062 22.988281 14.570312 22.988281 14.570312 C 22.988281 14.570312 21.902344 14.546875 21.640625 13.699219 C 21.640625 13.699219 21.835938 14.363281 20.539062 14.628906 Z M 20.539062 14.628906 " fill-opacity="1" fill-rule="evenodd"/><path fill="#65453f" d="M 21.527344 13.972656 C 20.949219 13.953125 20.417969 13.585938 20.394531 13.214844 C 20.375 12.851562 20.71875 12.402344 21.558594 12.402344 C 22.40625 12.398438 22.785156 12.824219 22.785156 13.121094 C 22.789062 13.492188 22.425781 13.847656 21.867188 13.945312 C 21.996094 14.128906 22.269531 14.390625 22.796875 14.433594 C 23.402344 14.484375 23.875 14.25 24.003906 13.914062 C 24.023438 13.871094 24.074219 13.847656 24.117188 13.867188 C 24.164062 13.882812 24.1875 13.933594 24.167969 13.980469 C 24.015625 14.367188 23.484375 14.667969 22.78125 14.609375 C 22.15625 14.558594 21.84375 14.234375 21.703125 14.015625 C 21.625 14.171875 21.492188 14.308594 21.332031 14.421875 C 20.996094 14.644531 20.519531 14.757812 20.097656 14.671875 C 19.363281 14.527344 19.257812 14.082031 19.257812 14.082031 C 19.246094 14.035156 19.273438 13.988281 19.320312 13.976562 C 19.367188 13.964844 19.417969 13.992188 19.429688 14.039062 C 19.429688 14.039062 19.527344 14.378906 20.132812 14.5 C 20.511719 14.574219 20.933594 14.472656 21.230469 14.273438 C 21.355469 14.1875 21.460938 14.085938 21.527344 13.972656 Z M 21.527344 13.972656 " fill-opacity="1" fill-rule="evenodd"/><path fill="#ecb06b" d="M 18.292969 17.414062 C 18.292969 17.414062 21.730469 18.625 25.339844 17.328125 C 25.371094 17.316406 25.386719 17.28125 25.375 17.25 C 25.363281 17.21875 25.332031 17.203125 25.300781 17.214844 C 21.730469 18.5 18.332031 17.304688 18.332031 17.304688 C 18.300781 17.292969 18.269531 17.308594 18.257812 17.339844 C 18.246094 17.371094 18.261719 17.402344 18.292969 17.414062 Z M 18.292969 17.414062 " fill-opacity="1" fill-rule="evenodd"/><path fill="#f3e5d6" d="M 14.984375 9.855469 C 14.660156 9.800781 14.105469 9.367188 13.667969 8.5625 C 13.40625 8.078125 12.929688 6.59375 12.867188 5.734375 C 12.796875 4.789062 12.980469 4.582031 13.949219 4.78125 C 14.929688 4.988281 15.890625 5.535156 16.550781 6.082031 C 17.207031 6.632812 17.425781 6.847656 17.171875 7.234375 C 17.019531 7.46875 16.515625 8.09375 16.164062 8.53125 C 15.417969 9.453125 15.328125 9.914062 14.984375 9.855469 Z M 14.984375 9.855469 " fill-opacity="1" fill-rule="evenodd"/><path fill="#f3e5d6" d="M 27.996094 9.546875 C 28.316406 9.472656 28.851562 9.015625 29.25 8.191406 C 29.488281 7.691406 29.894531 6.1875 29.917969 5.324219 C 29.941406 4.382812 29.75 4.179688 28.792969 4.429688 C 27.820312 4.679688 26.886719 5.269531 26.253906 5.851562 C 25.625 6.433594 25.414062 6.65625 25.6875 7.03125 C 25.851562 7.257812 26.382812 7.855469 26.757812 8.277344 C 27.542969 9.164062 27.65625 9.621094 27.996094 9.546875 Z M 27.996094 9.546875 " fill-opacity="1" fill-rule="evenodd"/><path fill="#f3e5d6" d="M 17.921875 9.710938 C 17.863281 9.492188 17.925781 9.152344 18.386719 9.023438 C 18.761719 8.917969 19.132812 9.007812 19.191406 9.285156 C 19.253906 9.558594 18.941406 9.769531 18.675781 9.871094 C 18.371094 9.988281 17.988281 9.96875 17.921875 9.710938 Z M 17.921875 9.710938 " fill-opacity="1" fill-rule="evenodd"/><path fill="#f3e5d6" d="M 25.054688 9.542969 C 25.101562 9.316406 25.027344 8.980469 24.558594 8.875 C 24.179688 8.785156 23.8125 8.898438 23.765625 9.175781 C 23.71875 9.453125 24.039062 9.648438 24.3125 9.738281 C 24.621094 9.839844 25.003906 9.800781 25.054688 9.542969 Z M 25.054688 9.542969 " fill-opacity="1" fill-rule="evenodd"/><g clip-path="url(#a09a0cafc6)"><path fill="#65453f" d="M 20.476562 33.371094 C 20.515625 33.378906 20.554688 33.382812 20.59375 33.386719 C 20.699219 32.804688 20.425781 32.445312 20.425781 32.445312 C 20.40625 32.417969 20.367188 32.414062 20.34375 32.433594 C 20.316406 32.453125 20.3125 32.488281 20.332031 32.515625 C 20.332031 32.515625 20.574219 32.84375 20.476562 33.371094 Z M 21.636719 33.339844 C 21.675781 33.332031 21.71875 33.320312 21.757812 33.308594 C 21.792969 33.054688 21.773438 32.703125 21.535156 32.375 C 21.515625 32.347656 21.476562 32.339844 21.453125 32.359375 C 21.425781 32.378906 21.417969 32.417969 21.4375 32.445312 C 21.675781 32.765625 21.675781 33.109375 21.636719 33.339844 Z M 14.046875 32.441406 C 14.070312 32.414062 14.089844 32.386719 14.113281 32.363281 C 14.117188 32.355469 14.121094 32.351562 14.121094 32.347656 C 14 32.222656 13.78125 32.0625 13.449219 32.0625 C 13.414062 32.0625 13.390625 32.089844 13.390625 32.121094 C 13.390625 32.152344 13.414062 32.179688 13.449219 32.179688 C 13.746094 32.179688 13.941406 32.328125 14.046875 32.441406 Z M 14.496094 31.761719 C 14.515625 31.71875 14.535156 31.679688 14.550781 31.636719 C 14.265625 31.300781 13.84375 31.363281 13.84375 31.363281 C 13.8125 31.367188 13.789062 31.398438 13.792969 31.429688 C 13.796875 31.460938 13.828125 31.484375 13.859375 31.480469 C 13.859375 31.480469 14.253906 31.421875 14.496094 31.761719 Z M 14.496094 31.761719 " fill-opacity="1" fill-rule="evenodd"/></g></svg>